<?xml version="1.0" encoding="UTF-8"?>
<svg version="1.1" xmlns="http://www.w3.org/2000/svg" width="225" height="224">
<path d="M0 0 C74.25 0 148.5 0 225 0 C225 73.92 225 147.84 225 224 C150.75 224 76.5 224 0 224 C0 150.08 0 76.16 0 0 Z " fill="#000000" transform="translate(0,0)"/>
<path d="M0 0 C3.56834986 1.42733994 5.87680536 2.42650254 8.8828125 4.53125 C9.57503906 5.01207031 10.26726563 5.49289063 10.98046875 5.98828125 C11.68816406 6.48714844 12.39585938 6.98601562 13.125 7.5 C14.54423781 8.48963069 15.96350741 9.4792158 17.3828125 10.46875 C18.00559082 10.90638672 18.62836914 11.34402344 19.27001953 11.79492188 C20.83277767 12.88351546 22.41533209 13.94355473 24 15 C25.04473517 20.58392933 25.45754045 26.44850574 24 32 C20.96920885 35.88123914 17.32478231 37.75791384 13 40 C10.92801066 41.31853867 8.86494979 42.65124728 6.8125 44 C5.21063645 45.00368514 3.60734868 46.00512267 2 47 C2.35098891 52.35258093 3.14836395 56.79316446 5.046875 61.82421875 C5.41135742 62.79834717 5.77583984 63.77247559 6.15136719 64.77612305 C6.43141602 65.51000244 6.71146484 66.24388184 7 67 C7.83660156 66.94239502 8.67320313 66.88479004 9.53515625 66.82543945 C12.67334386 66.63668772 15.80862561 66.49953119 18.95068359 66.39575195 C20.96517969 66.31391455 22.97704917 66.17404847 24.98828125 66.03320312 C34.6532826 65.76607997 34.6532826 65.76607997 38.6875 69.46240234 C40.69256577 72.22876652 42.39595291 74.98736941 44 78 C44.33 78.33 44.66 78.66 45 79 C44.54805952 86.39006373 42.07627421 92.55606776 39.3515625 99.37304688 C38.87976562 100.59024414 38.87976562 100.59024414 38.3984375 101.83203125 C38.10630371 102.56139893 37.81416992 103.2907666 37.51318359 104.04223633 C36.75969242 106.18981444 36.75969242 106.18981444 38 109 C40.05314424 110.70515369 42.06563438 112.23480547 44.25 113.75 C44.82363281 114.17410156 45.39726563 114.59820312 45.98828125 115.03515625 C49.39534949 117.44075104 49.39534949 117.44075104 53.42675781 117.81005859 C56.32973672 116.89619863 58.09257204 115.69681 60.46875 113.8046875 C61.28730469 113.17175781 62.10585938 112.53882813 62.94921875 111.88671875 C64.65354508 110.54257164 66.35406242 109.19358113 68.05078125 107.83984375 C68.86933594 107.20949219 69.68789062 106.57914062 70.53125 105.9296875 C71.26923828 105.34429199 72.00722656 104.75889648 72.76757812 104.15576172 C75.69255791 102.64145132 76.87404444 103.09500348 80 104 C81.04373779 104.16870605 82.08747559 104.33741211 83.1628418 104.51123047 C91.9651894 106.43251273 91.9651894 106.43251273 94.80322266 110.73144531 C96.08075551 114.17273212 96.99776609 117.54633428 97.8125 121.125 C98.13541016 122.33027344 98.45832031 123.53554687 98.79101562 124.77734375 C101 133.17054238 101 133.17054238 101 136 C67.67 136 34.34 136 0 136 C0 91.12 0 46.24 0 0 Z " fill="#FCFCFC" transform="translate(0,88)"/>
<path d="M0 0 C33.33 0 66.66 0 101 0 C101 44.88 101 89.76 101 136 C97.43165014 134.57266006 95.12319464 133.57349746 92.1171875 131.46875 C91.42496094 130.98792969 90.73273438 130.50710937 90.01953125 130.01171875 C89.31183594 129.51285156 88.60414063 129.01398438 87.875 128.5 C86.45576219 127.51036931 85.03649259 126.5207842 83.6171875 125.53125 C82.99440918 125.09361328 82.37163086 124.65597656 81.72998047 124.20507812 C80.16722233 123.11648454 78.58466791 122.05644527 77 121 C75.95526483 115.41607067 75.54245955 109.55149426 77 104 C80.02535983 100.12571622 83.66434704 98.21043732 88 96 C95.53613423 92.33025328 95.53613423 92.33025328 100 85.875 C99.40253256 82.18816309 97.78681669 78.72192362 96.4375 75.2578125 C95.98246094 74.08621582 95.52742188 72.91461914 95.05859375 71.70751953 C94.70925781 70.81403809 94.35992187 69.92055664 94 69 C93.16339844 69.05760498 92.32679688 69.11520996 91.46484375 69.17456055 C88.32665614 69.36331228 85.19137439 69.50046881 82.04931641 69.60424805 C80.03482031 69.68608545 78.02295083 69.82595153 76.01171875 69.96679688 C66.3467174 70.23392003 66.3467174 70.23392003 62.3125 66.53759766 C60.30743423 63.77123348 58.60404709 61.01263059 57 58 C56.67 57.67 56.34 57.34 56 57 C56.45194048 49.60993627 58.92372579 43.44393224 61.6484375 36.62695312 C62.12023437 35.40975586 62.12023437 35.40975586 62.6015625 34.16796875 C62.89369629 33.43860107 63.18583008 32.7092334 63.48681641 31.95776367 C64.24030758 29.81018556 64.24030758 29.81018556 63 27 C60.94685576 25.29484631 58.93436562 23.76519453 56.75 22.25 C56.17636719 21.82589844 55.60273438 21.40179687 55.01171875 20.96484375 C51.60049261 18.5584647 51.60049261 18.5584647 47.56445312 18.18774414 C44.66673078 19.10555852 43.00066225 20.28902275 40.671875 22.23046875 C39.87136719 22.86791016 39.07085937 23.50535156 38.24609375 24.16210938 C36.58565403 25.50943018 34.93703476 26.87145401 33.30078125 28.24804688 C27.3197838 32.95150327 27.3197838 32.95150327 23.70117188 33.08447266 C21.35502043 32.5927185 19.24493077 31.83448129 17 31 C16.20698486 30.87850586 15.41396973 30.75701172 14.59692383 30.63183594 C11.90147133 30.13182604 10.23764062 29.60099898 8 28 C5.7128468 23.84941075 4.59891138 19.51223831 3.4375 14.9375 C3.09654297 13.72771484 2.75558594 12.51792969 2.40429688 11.27148438 C0 2.61698315 0 2.61698315 0 0 Z " fill="#FCFCFC" transform="translate(124,0)"/>
<path d="M0 0 C0.33 0 0.66 0 1 0 C1 28.38 1 56.76 1 86 C-32.99 86 -66.98 86 -102 86 C-99.36 77.09 -96.72 68.18 -94 59 C-91.36 58.01 -88.72 57.02 -86 56 C-85.07574219 55.58234375 -84.15148437 55.1646875 -83.19921875 54.734375 C-80.30090143 53.59848703 -78.12642671 52.99145785 -75 53 C-70.75865168 55.38131568 -67.50134685 58.65550539 -64 62 C-62.26328413 63.43806098 -60.49394667 64.83807352 -58.6875 66.1875 C-57.92824219 66.77917969 -57.16898438 67.37085938 -56.38671875 67.98046875 C-53.96791844 69.27732522 -53.96791844 69.27732522 -51.07421875 68.43359375 C-47.75625925 66.8863369 -45.04361343 65.08175649 -42.125 62.875 C-41.15820312 62.15054688 -40.19140625 61.42609375 -39.1953125 60.6796875 C-38.47085938 60.12539062 -37.74640625 59.57109375 -37 59 C-38.222039 52.15658159 -40.41121712 45.9897631 -43.05517578 39.5859375 C-45.04350148 34.58782774 -45.04350148 34.58782774 -44.84765625 31.94140625 C-44.56792969 31.30074219 -44.28820312 30.66007812 -44 30 C-43.65453125 28.93265625 -43.3090625 27.8653125 -42.953125 26.765625 C-40.86860087 22.46270822 -39.29560596 19.32237925 -35 17 C-25.54653243 15.26975978 -15.52490564 16.22002662 -6 17 C-5.18710947 14.72930578 -4.37467262 12.45845099 -3.5625 10.1875 C-3.33240234 9.54490234 -3.10230469 8.90230469 -2.86523438 8.24023438 C-1.88582149 5.50071717 -0.92004638 2.76013914 0 0 Z " fill="#FCFCFC" transform="translate(224,138)"/>
<path d="M0 0 C33.99 0 67.98 0 103 0 C95 26 95 26 94 28 C91.75560137 28.76942515 89.47760597 29.44221383 87.1875 30.0625 C85.32158203 30.57490234 85.32158203 30.57490234 83.41796875 31.09765625 C82.29003906 31.39542969 81.16210938 31.69320313 80 32 C79.28585938 32.27585938 78.57171875 32.55171875 77.8359375 32.8359375 C76 33 76 33 73.80859375 31.62890625 C73.02613281 30.94699219 72.24367188 30.26507812 71.4375 29.5625 C70.56480469 28.83417969 69.69210938 28.10585938 68.79296875 27.35546875 C67.87128906 26.57816406 66.94960937 25.80085938 66 25 C64.10428774 23.43263844 62.18789831 21.88989186 60.25 20.375 C59.38890625 19.68148438 58.5278125 18.98796875 57.640625 18.2734375 C55.02932851 16.69592895 55.02932851 16.69592895 52.0390625 17.53125 C48.76343144 19.11433134 46.02596249 20.93158934 43.125 23.125 C41.67480469 24.21167969 41.67480469 24.21167969 40.1953125 25.3203125 C39.47085938 25.87460937 38.74640625 26.42890625 38 27 C38.73732455 33.46738966 41.25373825 39.1916118 43.6484375 45.1875 C43.96296875 46.00476562 44.2775 46.82203125 44.6015625 47.6640625 C44.89369629 48.40092285 45.18583008 49.1377832 45.48681641 49.89697266 C46.08667439 52.3551918 45.80282073 53.6251638 45 56 C44.65453125 57.06734375 44.3090625 58.1346875 43.953125 59.234375 C41.86860087 63.53729178 40.29560596 66.67762075 36 69 C26.52370822 70.73441766 16.54265077 69.72358402 7 69 C5.02 74.28 3.04 79.56 1 85 C0.67 85 0.34 85 0 85 C0 56.95 0 28.9 0 0 Z " fill="#FDFDFD" transform="translate(0,0)"/>
<path d="M0 0 C7.64285258 5.43369771 13.73090788 14.1168552 15.3125 23.4375 C16.45105642 33.91510147 14.29801099 42.71719549 8.0625 51.25 C1.71915808 58.82676951 -5.86838388 63.80098065 -15.6875 65.4375 C-27.09172694 66.37126892 -36.78117998 64.70058495 -46.0625 57.75 C-53.97091649 50.93503017 -58.66246951 42.8586433 -59.6875 32.4375 C-59.76484375 31.695 -59.8421875 30.9525 -59.921875 30.1875 C-60.46504284 20.77259083 -56.90344737 12.68300063 -50.9375 5.5 C-46.99098379 1.39770025 -42.84625802 -1.22593997 -37.6875 -3.5625 C-37.07519531 -3.88089844 -36.46289062 -4.19929688 -35.83203125 -4.52734375 C-23.94046289 -10.02941269 -10.69935755 -6.29910982 0 0 Z " fill="#FCFCFC" transform="translate(134.6875,82.5625)"/>
<path d="M0 0 C1.9375 1.0625 1.9375 1.0625 3 3 C2.875 6.5625 2.875 6.5625 2 10 C-1.23253796 12.15502531 -2.25150923 12.46856135 -6 12 C-7.8125 10.875 -7.8125 10.875 -9 9 C-9.39365568 5.85075452 -9.52854531 3.88090884 -7.875 1.125 C-5.11909116 -0.52854531 -3.14924548 -0.39365568 0 0 Z " fill="#F4F4F4" transform="translate(173,134)"/>
<path d="M0 0 C1.8125 1.125 1.8125 1.125 3 3 C3.39365568 6.14924548 3.52854531 8.11909116 1.875 10.875 C-0.91106042 12.54663625 -2.81988862 12.46376624 -6 12 C-7.9375 10.375 -7.9375 10.375 -9 8 C-8.875 4.875 -8.875 4.875 -8 2 C-4.76746204 -0.15502531 -3.74849077 -0.46856135 0 0 Z " fill="#F5F5F5" transform="translate(58,78)"/>
<path d="M0 0 C1.875 1.1875 1.875 1.1875 3 3 C3.59636329 6.3225955 3.29109393 7.57455503 1.375 10.375 C-1 12 -1 12 -4.125 11.875 C-7 11 -7 11 -9 9 C-9.3125 5.5 -9.3125 5.5 -9 2 C-5.53076119 -0.31282587 -4.07794425 -0.42478586 0 0 Z " fill="#F3F3F3" transform="translate(145,51)"/>
<path d="M0 0 C2.875 0.875 2.875 0.875 4.875 2.875 C5.20515665 5.97847254 5.38031294 8.03281176 3.75 10.75 C0.99409116 12.40354531 -0.97575452 12.26865568 -4.125 11.875 C-6 10.6875 -6 10.6875 -7.125 8.875 C-7.72136329 5.5524045 -7.41609393 4.30044497 -5.5 1.5 C-3.125 -0.125 -3.125 -0.125 0 0 Z " fill="#F5F5F5" transform="translate(84.125,161.125)"/>
</svg>
