<?xml version="1.0" encoding="UTF-8"?>
<svg version="1.1" xmlns="http://www.w3.org/2000/svg" width="512" height="512">
<path d="M0 0 C0.78117188 -0.01675781 1.56234375 -0.03351562 2.3671875 -0.05078125 C10.08820929 0.96629386 15.47763079 4.70719836 21.5 9.3125 C58.78788525 36.94545192 102.11911897 53.58257369 147.2109375 63.43359375 C147.98405273 63.60544189 148.75716797 63.77729004 149.55371094 63.9543457 C151.58768726 64.40179336 153.62573616 64.83061836 155.6640625 65.2578125 C161.13093927 66.92379075 165.1075504 69.88229873 168.875 74.125 C169.44734375 74.75019531 170.0196875 75.37539062 170.609375 76.01953125 C173.95472976 81.08067364 174.37533871 86.60049176 174.37896729 92.52929688 C174.38208727 93.22142084 174.38520725 93.91354481 174.38842177 94.62664223 C174.39634983 96.92826678 174.39009814 99.22962384 174.38378906 101.53125 C174.38650163 103.18952589 174.39006406 104.84780058 174.39440918 106.506073 C174.40351513 111.00295727 174.39999329 115.49974958 174.39365101 119.99663544 C174.38856823 124.72643776 174.39329003 129.4562325 174.39642334 134.18603516 C174.40006205 142.14519654 174.39527231 150.10432082 174.38574219 158.06347656 C174.37491767 167.208027 174.37833961 176.35248782 174.389395 185.49703598 C174.39854256 193.38452789 174.39971528 201.27199316 174.39451766 209.15948868 C174.39143088 213.85332957 174.39089504 218.54712874 174.39759064 223.2409668 C174.44524299 261.96626428 172.47077865 297.90923613 155.125 333.3125 C154.80273438 333.97088867 154.48046875 334.62927734 154.1484375 335.30761719 C147.36721343 348.95965467 139.02874768 361.71546743 129.125 373.3125 C128.48691406 374.06144531 127.84882813 374.81039063 127.19140625 375.58203125 C108.13371535 397.30563732 86.29455619 415.13917182 61.125 429.3125 C60.08666016 429.90345459 60.08666016 429.90345459 59.02734375 430.50634766 C49.34150784 435.97087449 39.44376235 440.60061188 29.125 444.75 C28.09906738 445.16306396 27.07313477 445.57612793 26.01611328 446.00170898 C1.05583452 455.78256615 -15.52123365 450.65106505 -39.37109375 440.25 C-92.98450965 416.35561608 -140.12780791 373.80837141 -161.66430664 318.39526367 C-171.28787063 292.73155444 -174.01829867 267.22827543 -174.03613281 239.96337891 C-174.04077523 238.28120824 -174.04580173 236.5990386 -174.05117798 234.91687012 C-174.06415259 230.39663743 -174.0707153 225.87641947 -174.07518864 221.35617113 C-174.07813903 218.52560643 -174.08224695 215.6950456 -174.08669281 212.86448288 C-174.10031782 203.98783027 -174.11001319 195.1111867 -174.1138947 186.23452437 C-174.11838694 176.02205528 -174.13600966 165.80971926 -174.1648953 155.59729064 C-174.18652707 147.67249424 -174.1965995 139.74773531 -174.19793582 131.82290971 C-174.1989812 127.10165082 -174.20483426 122.38051789 -174.22275543 117.65929031 C-174.23926589 113.22516558 -174.24137727 108.79126127 -174.23261642 104.3571167 C-174.2318481 102.73542056 -174.23616164 101.11371238 -174.24607468 99.49204636 C-174.34938767 81.53227581 -174.34938767 81.53227581 -169.21875 73.82421875 C-160.89946457 65.59306135 -150.18819563 63.72731613 -139.0625 61.3125 C-136.74686035 60.79143655 -134.43174813 60.26802322 -132.1171875 59.7421875 C-131.02631836 59.49436523 -129.93544922 59.24654297 -128.81152344 58.99121094 C-123.08453175 57.66754641 -117.47322188 56.11235843 -111.875 54.3125 C-111.0819043 54.05807129 -110.28880859 53.80364258 -109.47167969 53.54150391 C-77.20591792 43.06783206 -47.7279521 28.2244512 -20.08203125 8.62890625 C-19.20043335 8.00761841 -19.20043335 8.00761841 -18.30102539 7.3737793 C-16.75124856 6.27685787 -15.21110806 5.16635582 -13.671875 4.0546875 C-9.28924743 1.32472675 -5.15771645 0.02536582 0 0 Z M-78.875 149.3125 C-84.99013146 156.70850359 -90.74049387 164.63141071 -94.875 173.3125 C-95.43832031 174.4571875 -96.00164062 175.601875 -96.58203125 176.78125 C-109.27159758 203.41960135 -109.20308231 232.93439618 -99.40625 260.5625 C-90.2867847 284.35627472 -70.85384355 305.36846217 -47.875 316.3125 C-46.7303125 316.87582031 -45.585625 317.43914062 -44.40625 318.01953125 C-17.76789865 330.70909758 11.74689618 330.64058231 39.375 320.84375 C63.16877472 311.7242847 84.18096217 292.29134355 95.125 269.3125 C95.68832031 268.1678125 96.25164062 267.023125 96.83203125 265.84375 C109.52159758 239.20539865 109.45308231 209.69060382 99.65625 182.0625 C90.5367847 158.26872528 71.10384355 137.25653783 48.125 126.3125 C46.9803125 125.74917969 45.835625 125.18585938 44.65625 124.60546875 C2.83209549 104.68192408 -47.55678238 115.51174074 -78.875 149.3125 Z " fill="#000000" transform="translate(255.875,29.6875)"/>
<path d="M0 0 C3.1170788 1.91820234 5.47222566 4.37148103 8 7 C8.96569762 7.93804845 9.93466104 8.87274239 10.90625 9.8046875 C20.11321436 18.72915705 20.11321436 18.72915705 20.3125 26.3125 C20.36857422 27.69888672 20.36857422 27.69888672 20.42578125 29.11328125 C19.51021536 35.32064997 14.6095482 39.68561909 10.31689453 43.95776367 C9.76024109 44.51952805 9.20358765 45.08129242 8.63006592 45.66007996 C6.80275402 47.50120438 4.96819734 49.33489447 3.1328125 51.16796875 C1.85230964 52.45236222 0.57202951 53.73697778 -0.70803833 55.02180481 C-3.38611276 57.70732285 -6.068006 60.38895622 -8.75244141 63.06811523 C-12.18619735 66.49606954 -15.60843575 69.93527209 -19.02767754 73.37769604 C-21.66647703 76.03124704 -24.31219204 78.67781779 -26.95993423 81.32244301 C-28.2245105 82.58753145 -29.48673558 83.8549748 -30.74651718 85.12483788 C-32.50994483 86.90064403 -34.28270723 88.66659232 -36.05810547 90.43041992 C-36.57259247 90.95255066 -37.08707947 91.4746814 -37.61715698 92.01263428 C-41.85605804 96.1909162 -46.3159095 99.42626772 -52.4375 99.4375 C-53.13746094 99.45683594 -53.83742187 99.47617187 -54.55859375 99.49609375 C-61.97376063 97.98933184 -67.03622197 92.38038547 -72.12890625 87.19921875 C-72.88163315 86.44461868 -73.63436005 85.69001862 -74.40989685 84.91255188 C-75.99416076 83.32159174 -77.57483598 81.72705081 -79.15209961 80.12915039 C-81.5513812 77.69876295 -83.96111791 75.27915843 -86.37304688 72.86132812 C-87.91729003 71.3079111 -89.46092999 69.75389416 -91.00390625 68.19921875 C-92.07288902 67.12386116 -92.07288902 67.12386116 -93.16346741 66.02677917 C-106.10823417 52.89849283 -106.10823417 52.89849283 -106.25 45.125 C-106.27578125 44.28195313 -106.3015625 43.43890625 -106.328125 42.5703125 C-105.46463344 35.80629526 -99.66193933 31.32885097 -95.0625 26.75 C-94.34642578 26.0178125 -93.63035156 25.285625 -92.89257812 24.53125 C-91.8494043 23.48710937 -91.8494043 23.48710937 -90.78515625 22.421875 C-90.15488525 21.78862305 -89.52461426 21.15537109 -88.87524414 20.50292969 C-85.3413448 17.67065728 -81.62303896 17.85113518 -77.1953125 17.671875 C-69.92955122 18.75786067 -65.47277429 24.1687825 -60.625 29.1875 C-59.88894531 29.93708984 -59.15289062 30.68667969 -58.39453125 31.45898438 C-56.58933357 33.29934824 -54.79154492 35.14635923 -53 37 C-48.13446601 32.96340076 -43.61910344 28.7113675 -39.21875 24.17578125 C-37.95226987 22.88693044 -36.68532898 21.59853226 -35.41796875 20.31054688 C-33.45176465 18.30720282 -31.48884038 16.30100368 -29.53369141 14.28686523 C-27.62540576 12.32391391 -25.70449987 10.37405872 -23.78125 8.42578125 C-22.91687317 7.52573112 -22.91687317 7.52573112 -22.03503418 6.60749817 C-15.68113383 0.21336655 -8.97758877 -2.72736874 0 0 Z " fill="#000000" transform="translate(299,208)"/>
</svg>
