<?xml version="1.0" encoding="iso-8859-1"?>
<!-- Uploaded to: SVG Repo, www.svgrepo.com, Generator: SVG Repo Mixer Tools -->
<svg height="800px" width="800px" version="1.1" id="Layer_1" xmlns="http://www.w3.org/2000/svg" xmlns:xlink="http://www.w3.org/1999/xlink" 
	 viewBox="0 0 511.998 511.998" xml:space="preserve">
<circle cx="255.999" cy="255.999" r="255.999"/>
<circle style="fill:#FFFFFF;" cx="176.324" cy="300.056" r="34.864"/>
<path style="fill:#E21B1B;" d="M236.463,412.199v-30.864c0-32.488-35.448-33.08-35.448-33.08h-49.352c0,0-35.448,0.4-35.448,33.08
	v30.864H236.463z"/>
<circle style="fill:#FFFFFF;" cx="335.644" cy="300.056" r="34.864"/>
<path style="fill:#E21B1B;" d="M395.783,412.199v-30.864c0-32.488-35.448-33.08-35.448-33.08h-49.352c0,0-35.448,0.4-35.448,33.08
	v30.864H395.783z"/>
<circle style="fill:#FFFFFF;" cx="255.989" cy="134.648" r="34.864"/>
<path style="fill:#E21B1B;" d="M316.119,246.792v-30.864c0-32.488-35.448-33.08-35.448-33.08h-49.352c0,0-35.448,0.4-35.448,33.08
	v30.864H316.119z"/>
</svg>