<?xml version="1.0" encoding="UTF-8"?>
<svg version="1.1" xmlns="http://www.w3.org/2000/svg" width="225" height="225">
<path d="M0 0 C74.25 0 148.5 0 225 0 C225 74.25 225 148.5 225 225 C150.75 225 76.5 225 0 225 C0 150.75 0 76.5 0 0 Z " fill="#FDFDFD" transform="translate(0,0)"/>
<path d="M0 0 C2.21070194 3.65081301 2.67144404 7.43570715 3.21875 11.58984375 C3.37386047 12.70039879 3.37386047 12.70039879 3.53210449 13.83338928 C3.8613612 16.20056663 4.18097231 18.56892452 4.5 20.9375 C4.82011447 23.26619957 5.14221755 25.59461754 5.46459961 27.92300415 C5.67505653 29.44624091 5.88421186 30.9696581 6.09204102 32.49325562 C6.86152249 38.11054701 7.72485386 43.70905991 8.65039062 49.30297852 C8.98757091 51.90411723 9.06440156 54.38070496 9 57 C5.23362869 57.19314725 1.92924225 56.83929455 -1.72265625 55.9921875 C-2.52582275 55.80769043 -3.32898926 55.62319336 -4.15649414 55.43310547 C-4.76485107 55.29018066 -5.37320801 55.14725586 -6 55 C-6.87706973 77.4140041 -2.55636349 97.13011512 12.51220703 114.47143555 C20.89306706 123.52293524 31.25683086 130.20957391 43 134 C43.79059814 134.25676514 44.58119629 134.51353027 45.39575195 134.77807617 C52.28514022 136.85678685 58.63422007 137.51112636 65.8125 137.4375 C66.86421387 137.42920166 67.91592773 137.42090332 68.99951172 137.41235352 C87.40824229 137.01376719 103.56362113 129.56145187 117 117 C118.16982422 115.91138672 118.16982422 115.91138672 119.36328125 114.80078125 C129.47668721 104.51270506 135.55304664 90.86012715 139 77 C156.87896254 79.93948127 156.87896254 79.93948127 163 83 C158.90005554 107.17553457 143.28030622 130.37082394 123.5078125 144.6171875 C116.14329764 149.62513979 108.32050047 153.82241373 100 157 C99.3719043 157.24266602 98.74380859 157.48533203 98.09667969 157.73535156 C87.16983873 161.76326428 76.28712133 162.49719649 64.75 162.5625 C64.08116791 162.5712616 63.41233582 162.58002319 62.72323608 162.58905029 C49.54259019 162.7074944 37.31868793 160.21009473 25.4375 154.375 C24.38236206 153.86404785 24.38236206 153.86404785 23.3059082 153.34277344 C0.85370101 142.09262023 -17.12150771 122.6464764 -25.546875 98.83203125 C-26.83331943 94.92360395 -28.0107368 90.99441964 -29 87 C-29.18763916 86.24960449 -29.37527832 85.49920898 -29.56860352 84.72607422 C-31.08363428 78.03262411 -31.26856301 71.59342482 -31.1875 64.75 C-31.18685547 63.70070312 -31.18621094 62.65140625 -31.18554688 61.5703125 C-31.15730174 56.61172275 -31.04962785 51.87027321 -30 47 C-31.794375 46.814375 -31.794375 46.814375 -33.625 46.625 C-37.27596813 46.17674946 -40.54524899 45.29553163 -44 44 C-39.67555355 38.83284091 -35.14133474 33.9942208 -30.37109375 29.23828125 C-29.65897232 28.52520309 -28.94685089 27.81212494 -28.21315002 27.07743835 C-26.71762819 25.58124017 -25.22085943 24.0862874 -23.72290039 22.5925293 C-21.43715731 20.31215812 -19.15682084 18.02647797 -16.87695312 15.74023438 C-15.41698732 14.28092913 -13.95671146 12.821934 -12.49609375 11.36328125 C-11.48028481 10.34443596 -11.48028481 10.34443596 -10.44395447 9.30500793 C-7.10493024 5.98240509 -3.76261152 2.85191574 0 0 Z " fill="#010101" transform="translate(53,46)"/>
<path d="M0 0 C3.63 0 7.26 0 11 0 C11 10.56 11 21.12 11 32 C13.64 32 16.28 32 19 32 C19 34.64 19 37.28 19 40 C16.36 40 13.72 40 11 40 C11 44.62 11 49.24 11 54 C8.03 54 5.06 54 2 54 C2 49.38 2 44.76 2 40 C-6.58 40 -15.16 40 -24 40 C-24 34.00113046 -23.96501654 33.20199283 -20.74609375 28.734375 C-20.05580078 27.76113281 -19.36550781 26.78789063 -18.65429688 25.78515625 C-17.92275391 24.78355469 -17.19121094 23.78195313 -16.4375 22.75 C-15.73302734 21.76386719 -15.02855469 20.77773437 -14.30273438 19.76171875 C-12.89871357 17.79738365 -11.4891044 15.83702997 -10.07373047 13.88085938 C-7.45243343 10.2393118 -4.8887713 6.55928879 -2.33227539 2.87207031 C-1 1 -1 1 0 0 Z " fill="#040404" transform="translate(143,93)"/>
<path d="M0 0 C3.82225482 2.0259591 5.74946965 4.47799893 7.6328125 8.27734375 C8.42750175 13.59675014 8.38162471 18.58437701 6.1953125 23.52734375 C0.80326814 29.31392794 -5.10634317 34.30750944 -11.640625 38.7578125 C-13.89949391 40.59069046 -13.89949391 40.59069046 -16.3671875 45.27734375 C-8.1171875 45.27734375 0.1328125 45.27734375 8.6328125 45.27734375 C8.6328125 47.91734375 8.6328125 50.55734375 8.6328125 53.27734375 C-2.9171875 53.27734375 -14.4671875 53.27734375 -26.3671875 53.27734375 C-26.3671875 39.65219315 -26.3671875 39.65219315 -22.62109375 35.35546875 C-18.46938973 31.52755447 -14.02252991 28.08731975 -9.51171875 24.6953125 C-5.19279275 21.72106142 -5.19279275 21.72106142 -3.00390625 17.3046875 C-2.93187516 12.81775843 -2.93187516 12.81775843 -5.3671875 9.27734375 C-10.02807226 8.48984652 -13.44788838 8.67698514 -17.4296875 11.27734375 C-18.0690625 11.93734375 -18.7084375 12.59734375 -19.3671875 13.27734375 C-24.1171875 11.40234375 -24.1171875 11.40234375 -26.3671875 10.27734375 C-25.89310707 6.01061991 -23.48411628 4.03183895 -20.3671875 1.27734375 C-14.7934058 -2.32186955 -6.16038913 -1.88064685 0 0 Z " fill="#030303" transform="translate(104.3671875,93.72265625)"/>
<path d="M0 0 C0.89604368 6.04829486 1.11269443 11.8894576 1 18 C-1.88211302 18.96070434 -3.69850044 19.10581883 -6.6875 19.0625 C-7.89986328 19.04896484 -7.89986328 19.04896484 -9.13671875 19.03515625 C-9.75160156 19.02355469 -10.36648437 19.01195313 -11 19 C-11.95619733 15.00204108 -12.1039592 11.29196078 -12.0625 7.1875 C-12.05347656 6.02605469 -12.04445313 4.86460938 -12.03515625 3.66796875 C-12.02355469 2.78753906 -12.01195313 1.90710938 -12 1 C-7.915021 0.45533613 -4.1274515 0 0 0 Z " fill="#0C0C0C" transform="translate(117,16)"/>
<path d="M0 0 C0.33 3.96 0.66 7.92 1 12 C-7.91 12.99 -7.91 12.99 -17 14 C-17.33 10.04 -17.66 6.08 -18 2 C-11.81382652 0.62529478 -6.32844017 -0.23438667 0 0 Z " fill="#080808" transform="translate(213,93)"/>
<path d="M0 0 C3.96479572 1.47930193 6.77588233 3.23647057 10 6 C8.62815653 10.06498881 6.77931541 12.67396561 3.875 15.8125 C3.15054688 16.60269531 2.42609375 17.39289062 1.6796875 18.20703125 C1.12539062 18.79871094 0.57109375 19.39039062 0 20 C-3.96479572 18.52069807 -6.77588233 16.76352943 -10 14 C-8.43632643 10.47761953 -6.30504111 7.72876006 -3.875 4.75 C-3.15054688 3.85796875 -2.42609375 2.9659375 -1.6796875 2.046875 C-0.84824219 1.03367188 -0.84824219 1.03367188 0 0 Z " fill="#050505" transform="translate(173,34)"/>
<path d="M0 0 C3.0252994 1.5308744 3.83808863 3.80712099 5.3203125 6.796875 C5.86429688 7.85519531 6.40828125 8.91351563 6.96875 10.00390625 C7.9453125 12.984375 7.9453125 12.984375 7.3984375 15.26171875 C5.54319171 17.46108271 4.07020516 17.94869138 1.3203125 18.734375 C0.09441406 19.09789062 0.09441406 19.09789062 -1.15625 19.46875 C-1.78273438 19.63890625 -2.40921875 19.8090625 -3.0546875 19.984375 C-4.22910285 17.88420877 -5.39432762 15.77978745 -6.5546875 13.671875 C-6.88855469 13.07697266 -7.22242187 12.48207031 -7.56640625 11.86914062 C-9.12293864 9.02608656 -10.0546875 7.27776512 -10.0546875 3.984375 C-8.81292055 3.28211359 -7.56083151 2.59808391 -6.3046875 1.921875 C-5.26054688 1.34759766 -5.26054688 1.34759766 -4.1953125 0.76171875 C-2.0546875 -0.015625 -2.0546875 -0.015625 0 0 Z " fill="#050505" transform="translate(81.0546875,25.015625)"/>
<path d="M0 0 C1.99609375 0.3046875 1.99609375 0.3046875 4.4375 0.875 C5.24058594 1.05804687 6.04367188 1.24109375 6.87109375 1.4296875 C9 2 9 2 11 3 C9.68 8.28 8.36 13.56 7 19 C-1.625 18.125 -1.625 18.125 -5 17 C-3.57142857 3.57142857 -3.57142857 3.57142857 0 0 Z " fill="#070707" transform="translate(141,19)"/>
<path d="M0 0 C2.42134473 1.80392867 3.52166069 3.57131902 4.76171875 6.3125 C4.703125 8.23828125 4.703125 8.23828125 3.76171875 10.3125 C1.14453125 12.26953125 1.14453125 12.26953125 -2.11328125 14.125 C-3.18320313 14.75019531 -4.253125 15.37539062 -5.35546875 16.01953125 C-8.23828125 17.3125 -8.23828125 17.3125 -11.23828125 16.3125 C-12.4765625 14.82421875 -12.4765625 14.82421875 -13.55078125 13 C-13.91816406 12.40574219 -14.28554687 11.81148437 -14.6640625 11.19921875 C-15.23828125 9.3125 -15.23828125 9.3125 -14.6796875 7.29296875 C-12.76335063 4.65995305 -10.70972455 3.50189913 -7.86328125 1.9375 C-6.90679687 1.39351562 -5.9503125 0.84953125 -4.96484375 0.2890625 C-2.23828125 -0.6875 -2.23828125 -0.6875 0 0 Z " fill="#030303" transform="translate(199.23828125,60.6875)"/>
<path d="M0 0 C0.33 0 0.66 0 1 0 C1 6.93 1 13.86 1 21 C-3.95 21 -8.9 21 -14 21 C-11.21401853 15.95406154 -8.18096882 11.23680696 -4.8125 6.5625 C-4.36197266 5.92634766 -3.91144531 5.29019531 -3.44726562 4.63476562 C-2.32592085 3.06959024 -1.16643107 1.53187031 0 0 Z " fill="#F8F8F8" transform="translate(144,104)"/>
</svg>
