<?xml version="1.0" encoding="UTF-8"?>
<svg id="Layer_2" data-name="Layer 2" xmlns="http://www.w3.org/2000/svg" xmlns:xlink="http://www.w3.org/1999/xlink" viewBox="0 0 613.01 237.52">
  <defs>
    <style>
      .cls-1 {
        fill: url(#linear-gradient-2);
      }

      .cls-2 {
        stroke: #fff;
        stroke-width: .25px;
      }

      .cls-2, .cls-3 {
        font-family: BerlinSansFBDemi-Bold, 'Berlin Sans FB Demi';
        font-size: 27.73px;
        font-weight: 700;
      }

      .cls-2, .cls-4 {
        fill: none;
        stroke-miterlimit: 10;
      }

      .cls-5 {
        fill: url(#linear-gradient-6);
      }

      .cls-6 {
        fill: #b11a3d;
      }

      .cls-4 {
        stroke: url(#linear-gradient-8);
        stroke-width: 4px;
      }

      .cls-7 {
        fill: #bd2f28;
      }

      .cls-8 {
        fill: url(#linear-gradient-5);
      }

      .cls-9 {
        fill: url(#linear-gradient-7);
      }

      .cls-10 {
        fill: url(#linear-gradient-9);
      }

      .cls-11 {
        fill: url(#linear-gradient-3);
      }

      .cls-12 {
        fill: url(#linear-gradient);
      }

      .cls-13 {
        fill: url(#linear-gradient-4);
      }
    </style>
    <linearGradient id="linear-gradient" x1="187.22" y1="42.97" x2="187.22" y2="180.69" gradientUnits="userSpaceOnUse">
      <stop offset="0" stop-color="#4c6da3"/>
      <stop offset="1" stop-color="#2b2728"/>
      <stop offset="1" stop-color="#374178"/>
    </linearGradient>
    <linearGradient id="linear-gradient-2" x1="384.43" y1="53.87" x2="384.43" y2="172.15" xlink:href="#linear-gradient"/>
    <linearGradient id="linear-gradient-3" x1="507.43" y1="53.87" x2="507.43" y2="172.15" xlink:href="#linear-gradient"/>
    <linearGradient id="linear-gradient-4" x1="69.2" y1="158.68" x2="387.43" y2="158.68" xlink:href="#linear-gradient"/>
    <linearGradient id="linear-gradient-5" x1="37.29" y1="144.69" x2="259.18" y2="144.69" xlink:href="#linear-gradient"/>
    <linearGradient id="linear-gradient-6" x1="290.71" y1="70.15" x2="290.71" y2="172.15" xlink:href="#linear-gradient"/>
    <linearGradient id="linear-gradient-7" x1="290.71" y1="27.29" x2="290.71" y2="51.86" xlink:href="#linear-gradient"/>
    <linearGradient id="linear-gradient-8" x1="585.71" y1="0" x2="585.71" y2="54.58" xlink:href="#linear-gradient"/>
    <linearGradient id="linear-gradient-9" x1="592.11" y1="43.55" x2="592.11" y2="-64.82" gradientUnits="userSpaceOnUse">
      <stop offset="0" stop-color="#4c6dc2"/>
      <stop offset=".6" stop-color="#384367"/>
      <stop offset="1" stop-color="#2b2728"/>
    </linearGradient>
  </defs>
  <g id="Layer_1-2" data-name="Layer 1">
    <g>
      <g>
        <path class="cls-12" d="m190.68,43.06c-5.3-.26-10.49.09-15.48.97-3.75.66-7.4,1.62-10.92,2.87-2.83,1-4.73,3.67-4.77,6.67l-.17,14.03v44.24h.11c-.08.78-.11,1.58-.11,2.39,0,15.98,13.45,28.82,29.64,27.83,13.89-.86,25.19-12.15,26.06-26.03,1.02-16.22-11.83-29.68-27.82-29.68-1.35,0-2.67.1-3.97.28-4.26.61-8.05-2.79-8.05-7.09v-12.56c0-3.63,2.71-6.72,6.32-7.11,1.87-.2,3.77-.31,5.7-.31,28.88,0,52.28,23.41,52.28,52.28s-24.48,53.36-54.27,52.25c-27.12-1.01-49.22-23.09-50.26-50.21-.32-8.38,1.34-16.35,4.55-23.47v-.02c.34-4.34-1.79-8.23-4.95-9.51-3.49-1.43-8.36.33-10.87,4.51l-.48.99c-.28.71-.55,1.43-.82,2.15-2.91,8.08-4.34,16.87-3.99,26.03,1.37,35.69,30.35,64.69,66.04,66.09,38.87,1.52,70.94-29.2,71.61-67.58.65-36.96-28.47-68.18-65.39-70Zm-1.88,59.89c5.42.68,9.79,5.05,10.47,10.47,1.01,7.95-5.68,14.63-13.63,13.63-5.41-.68-9.78-5.06-10.47-10.47-1-7.95,5.69-14.63,13.63-13.63Z"/>
        <path class="cls-1" d="m429.04,83.15l-51.63,53.6c-2.11,2.19-.56,5.83,2.48,5.83h52.52c1.9,0,3.44,1.54,3.44,3.44v22.69c0,1.9-1.54,3.44-3.44,3.44h-95.98c-1.9,0-3.44-1.54-3.44-3.44v-27.89c0-.89.35-1.75.96-2.39l47.62-49.45c2.11-2.19.56-5.83-2.48-5.83h-42.66c-1.9,0-3.44-1.54-3.44-3.44v-22.4c0-1.9,1.54-3.44,3.44-3.44h95.98c1.9,0,3.44,1.54,3.44,3.44v17.36c0,.89-.34,1.74-.96,2.39l-5.86,6.09Z"/>
        <path class="cls-11" d="m552.04,83.15l-51.63,53.6c-2.11,2.19-.56,5.83,2.48,5.83h52.52c1.9,0,3.44,1.54,3.44,3.44v22.69c0,1.9-1.54,3.44-3.44,3.44h-95.98c-1.9,0-3.44-1.54-3.44-3.44v-27.89c0-.89.35-1.75.96-2.39l47.62-49.45c2.11-2.19.56-5.83-2.48-5.83h-42.66c-1.9,0-3.44-1.54-3.44-3.44v-22.4c0-1.9,1.54-3.44,3.44-3.44h95.98c1.9,0,3.44,1.54,3.44,3.44v17.36c0,.89-.34,1.74-.96,2.39l-5.86,6.09Z"/>
        <path class="cls-13" d="m82.29,96.29s-34.72,75,92.78,104.14c0,0,114.65,31.71,212.36-10.71,0,0-99,58.71-236.14,15.43,0,0-121.29-37.29-69-108.86Z"/>
        <path class="cls-8" d="m111.53,51.86c-5.89,3.78-59.67,39.31-56.45,89.13.42,6.46,1.86,14.16,5.45,22.69,2.4,3.2,7.07,9.18,13.71,15.86,68.18,68.47,184.98,50.37,184.94,53.57-.03,2.29-60.8,12.46-128.79-9-28.33-8.94-50.97-21.19-67.71-32.14-16.08-11.84-21.34-24-23.36-30.89-10.01-34.09,17.66-80.55,72.22-109.21Z"/>
        <path class="cls-7" d="m189,16.58c-17.14.18-47.03,2.72-80.14,18-37.31,17.22-60.14,42.03-71.14,55.82-3.21,3.13-19.42,19.55-19.29,44.89.18,34.54,30.56,53.07,32.14,54-24.76-4.69-44.2-22.84-49.29-45.86-5.88-26.6,10.16-47.32,12.43-50.14,12.92-15.31,40.96-44.29,86.57-62.14,36.92-14.45,69.63-15.45,88.71-14.57Z"/>
        <rect class="cls-5" x="278.43" y="70.15" width="24.57" height="102" rx="6.86" ry="6.86"/>
        <rect class="cls-9" x="278.43" y="27.29" width="24.57" height="24.57" rx="6.93" ry="6.93"/>
        <circle class="cls-4" cx="585.71" cy="27.29" r="25.29"/>
        <g>
          <g>
            <path class="cls-10" d="m581.48,21.28c0,.18-.1.27-.3.27-.34,0-1.7-.07-4.08-.2-.05,2.28-.08,3.88-.08,4.78,0,1.07.04,2.67.13,4.81.09,2.14.13,3.74.13,4.81,0,.17-.04.28-.12.33-.03.02-.15.04-.38.07-.54.07-1.34.11-2.38.11-1.17,0-1.98-.04-2.45-.11-.25-.04-.38-.18-.38-.42,0-1.06.04-2.66.14-4.79.09-2.13.13-3.73.13-4.79,0-.7-.04-2.27-.11-4.71-1.81.18-3.25.27-4.32.27-.14,0-.22-.04-.22-.13,0-.12.06-.46.19-1.04.14-.63.23-1.02.24-1.15.03-.42.06-.85.09-1.27.06-.68.17-1.02.33-1.02.02,0,.08,0,.19.01,1.46.19,3.62.28,6.49.28.81,0,2.31-.08,4.5-.26,1.17-.09,1.76-.14,1.77-.14.18,0,.28.01.31.03s.04.11.05.26c0,.24,0,.58-.03,1.02-.02.48-.03.82-.03,1.02,0,.23.03.56.09,1,.06.44.09.77.09.98Z"/>
            <path class="cls-10" d="m603.11,35.72c0,.28-.13.42-.39.42h-4.79c-.26,0-.39-.16-.39-.47,0-.91.03-2.28.1-4.1.07-1.82.1-3.19.1-4.1,0-.26-.04-.4-.12-.42-.1.05-.7,1.45-1.81,4.18-.65,1.61-1.3,3.21-1.95,4.81-.09.21-.2.33-.34.37-.05,0-.23.01-.54.01-.47,0-.75-.09-.84-.27-.49-.99-1.13-2.44-1.92-4.33-.85-2-1.49-3.45-1.91-4.35-.02-.04-.06-.09-.12-.15-.06.08-.09.21-.09.39,0,.88.02,2.21.07,3.98.04,1.77.07,3.1.07,3.98,0,.32-.13.47-.38.47h-4.52c-.18,0-.29-.03-.33-.09-.04-.06-.06-.16-.06-.3,0-.98.05-2.46.14-4.43.1-1.97.14-3.45.14-4.43,0-1.05-.04-3.01-.14-5.89,0-.75-.05-1.86-.12-3.34v-.23c-.02-.18.17-.27.55-.27.5,0,1.24-.02,2.23-.05.99-.03,1.74-.05,2.23-.05.1,0,.24.19.42.57l3.95,8.68c.28.59.51.88.7.88.1,0,.31-.34.64-1.02.91-1.9,2.26-4.75,4.05-8.57.15-.35.32-.53.5-.53.26,0,.66.01,1.18.04s.93.04,1.2.04c.23,0,.57-.02,1.04-.07.46-.04.81-.07,1.04-.07.27,0,.41.11.41.33,0,1.07-.04,2.66-.12,4.77-.08,2.12-.11,3.71-.11,4.77,0,.98.04,2.46.12,4.43.08,1.97.12,3.44.12,4.41Z"/>
          </g>
          <text class="cls-3" transform="translate(567.04 36.14)"><tspan x="0" y="0">TM</tspan></text>
          <text class="cls-2" transform="translate(567.04 36.14)"><tspan x="0" y="0">TM</tspan></text>
        </g>
      </g>
      <polygon class="cls-6" points="419.07 202.04 415.67 195.32 409.17 191.5 415.89 188.09 419.71 181.59 423.12 188.32 429.62 192.14 422.9 195.55 419.07 202.04"/>
      <polygon class="cls-6" points="371.05 191.23 368.93 187.06 364.91 184.69 369.07 182.58 371.44 178.55 373.56 182.72 377.58 185.09 373.42 187.2 371.05 191.23"/>
      <polygon class="cls-6" points="398.06 211.36 396.67 208.92 394.32 207.38 396.5 206.42 397.59 204.31 398.98 206.75 401.33 208.29 399.15 209.24 398.06 211.36"/>
    </g>
  </g>
</svg>