<?xml version="1.0" encoding="UTF-8"?>
<svg id="Layer_2" data-name="Layer 2" xmlns="http://www.w3.org/2000/svg" xmlns:xlink="http://www.w3.org/1999/xlink" viewBox="0 0 613.01 236.96">
  <defs>
    <style>
      .cls-1 {
        fill: url(#linear-gradient-2);
      }

      .cls-2 {
        fill: url(#New_Gradient_Swatch_1-3);
      }

      .cls-3 {
        fill: url(#New_Gradient_Swatch_1-5);
      }

      .cls-4 {
        fill: none;
        stroke: url(#New_Gradient_Swatch_copy);
        stroke-miterlimit: 10;
        stroke-width: 4px;
      }

      .cls-5 {
        fill: url(#New_Gradient_Swatch_copy-2);
      }

      .cls-6 {
        fill: url(#New_Gradient_Swatch_1);
      }

      .cls-7 {
        fill: url(#New_Gradient_Swatch_1-2);
      }

      .cls-8 {
        fill: #d22;
      }

      .cls-9 {
        fill: url(#linear-gradient-3);
      }

      .cls-10 {
        fill: url(#linear-gradient);
      }

      .cls-11 {
        fill: url(#New_Gradient_Swatch_1-4);
      }
    </style>
    <linearGradient id="New_Gradient_Swatch_1" data-name="New Gradient Swatch 1" x1="187.22" y1="42.97" x2="187.22" y2="180.69" gradientUnits="userSpaceOnUse">
      <stop offset="0" stop-color="#1c7fb1"/>
      <stop offset=".34" stop-color="#186795"/>
      <stop offset="1" stop-color="#0f3256"/>
    </linearGradient>
    <linearGradient id="New_Gradient_Swatch_1-2" data-name="New Gradient Swatch 1" x1="384.43" y1="53.87" x2="384.43" y2="172.15" xlink:href="#New_Gradient_Swatch_1"/>
    <linearGradient id="New_Gradient_Swatch_1-3" data-name="New Gradient Swatch 1" x1="507.43" y1="53.87" x2="507.43" y2="172.15" xlink:href="#New_Gradient_Swatch_1"/>
    <linearGradient id="linear-gradient" x1="69.2" y1="158.58" x2="387.43" y2="158.58" gradientUnits="userSpaceOnUse">
      <stop offset="0" stop-color="#4c6da3"/>
      <stop offset="1" stop-color="#2b2728"/>
      <stop offset="1" stop-color="#374178"/>
    </linearGradient>
    <linearGradient id="linear-gradient-2" x1="37.29" y1="144.41" x2="259.18" y2="144.41" xlink:href="#linear-gradient"/>
    <linearGradient id="New_Gradient_Swatch_1-4" data-name="New Gradient Swatch 1" x1="290.71" y1="70.15" x2="290.71" y2="172.15" xlink:href="#New_Gradient_Swatch_1"/>
    <linearGradient id="New_Gradient_Swatch_1-5" data-name="New Gradient Swatch 1" x1="290.71" y1="27.29" x2="290.71" y2="51.86" xlink:href="#New_Gradient_Swatch_1"/>
    <linearGradient id="New_Gradient_Swatch_copy" data-name="New Gradient Swatch copy" x1="585.71" y1="0" x2="585.71" y2="54.58" gradientUnits="userSpaceOnUse">
      <stop offset="0" stop-color="#1c7fb1"/>
      <stop offset=".34" stop-color="#186795"/>
      <stop offset="1" stop-color="#0f3256"/>
    </linearGradient>
    <linearGradient id="New_Gradient_Swatch_copy-2" data-name="New Gradient Swatch copy" x1="574.36" y1="17.06" x2="574.36" y2="36.13" xlink:href="#New_Gradient_Swatch_copy"/>
    <linearGradient id="linear-gradient-3" x1="594.49" y1="17.71" x2="594.58" y2="35.85" gradientUnits="userSpaceOnUse">
      <stop offset="0" stop-color="#1c7fb1"/>
      <stop offset=".34" stop-color="#186795"/>
      <stop offset="1" stop-color="#0f3256"/>
    </linearGradient>
  </defs>
  <g id="Layer_1-2" data-name="Layer 1">
    <g>
      <g>
        <path class="cls-6" d="m190.68,43.06c-5.3-.26-10.49.09-15.48.97-3.75.66-7.4,1.62-10.92,2.87-2.83,1-4.73,3.67-4.77,6.67l-.17,14.03v44.24h.11c-.08.78-.11,1.58-.11,2.39,0,15.98,13.45,28.82,29.64,27.83,13.89-.86,25.19-12.15,26.06-26.03,1.02-16.22-11.83-29.68-27.82-29.68-1.35,0-2.67.1-3.97.28-4.26.61-8.05-2.79-8.05-7.09v-12.56c0-3.63,2.71-6.72,6.32-7.11,1.87-.2,3.77-.31,5.7-.31,28.88,0,52.28,23.41,52.28,52.28s-24.48,53.36-54.27,52.25c-27.12-1.01-49.22-23.09-50.26-50.21-.32-8.38,1.34-16.35,4.55-23.47v-.02c.34-4.34-1.79-8.23-4.95-9.51-3.49-1.43-8.36.33-10.87,4.51l-.48.99c-.28.71-.55,1.43-.82,2.15-2.91,8.08-4.34,16.87-3.99,26.03,1.37,35.69,30.35,64.69,66.04,66.09,38.87,1.52,70.94-29.2,71.61-67.58.65-36.96-28.47-68.18-65.39-70Zm-1.88,59.89c5.42.68,9.79,5.05,10.47,10.47,1.01,7.95-5.68,14.63-13.63,13.63-5.41-.68-9.78-5.06-10.47-10.47-1-7.95,5.69-14.63,13.63-13.63Z"/>
        <path class="cls-7" d="m429.04,83.15l-51.63,53.6c-2.11,2.19-.56,5.83,2.48,5.83h52.52c1.9,0,3.44,1.54,3.44,3.44v22.69c0,1.9-1.54,3.44-3.44,3.44h-95.98c-1.9,0-3.44-1.54-3.44-3.44v-27.89c0-.89.35-1.75.96-2.39l47.62-49.45c2.11-2.19.56-5.83-2.48-5.83h-42.66c-1.9,0-3.44-1.54-3.44-3.44v-22.4c0-1.9,1.54-3.44,3.44-3.44h95.98c1.9,0,3.44,1.54,3.44,3.44v17.36c0,.89-.34,1.74-.96,2.39l-5.86,6.09Z"/>
        <path class="cls-2" d="m552.04,83.15l-51.63,53.6c-2.11,2.19-.56,5.83,2.48,5.83h52.52c1.9,0,3.44,1.54,3.44,3.44v22.69c0,1.9-1.54,3.44-3.44,3.44h-95.98c-1.9,0-3.44-1.54-3.44-3.44v-27.89c0-.89.35-1.75.96-2.39l47.62-49.45c2.11-2.19.56-5.83-2.48-5.83h-42.66c-1.9,0-3.44-1.54-3.44-3.44v-22.4c0-1.9,1.54-3.44,3.44-3.44h95.98c1.9,0,3.44,1.54,3.44,3.44v17.36c0,.89-.34,1.74-.96,2.39l-5.86,6.09Z"/>
        <path class="cls-10" d="m82.29,96.29c-1.82,7.14-4.32,21.35,1.03,37.09,1.93,5.67,6.53,16.41,23.14,31.14,11.06,9.81,33.02,26.34,68.61,35.9,19.73,5,43.14,8.86,69.54,10.55,40.88,2.63,93.97-.05,142.82-21.27,0,0-109,58.24-236.14,15.43,0,0-121.29-37.29-69-108.86Z"/>
        <path class="cls-1" d="m111.53,51.86c-5.89,3.78-59.67,39.31-56.45,89.13.82,12.64,5.74,23.72,5.74,23.72,4.5,9.77,11.99,19.31,30.21,31.67,22.4,15.2,44.16,23.23,58.99,27.64,34.61,10.29,63.26,11,85.02,10.27,16.39-.55,24.13-1.25,24.14-1.18.01.2-68.52,11.04-123.86-4.58-18.77-5.3-35.54-13.5-38.29-14.86-12.4-6.13-23.13-11.43-34.36-21.7-2.2-2.01-19.26-16.91-23.36-30.89-10.01-34.09,17.66-80.55,72.22-109.21Z"/>
        <path class="cls-8" d="m189,16.58c-17.14.18-47.03,2.72-80.14,18-37.31,17.22-60.14,42.03-71.14,55.82-3.21,3.13-19.42,19.55-19.29,44.89.18,34.54,30.56,53.07,32.14,54-24.76-4.69-44.2-22.84-49.29-45.86-5.88-26.6,10.16-47.32,12.43-50.14,12.92-15.31,40.96-44.29,86.57-62.14,36.92-14.45,69.63-15.45,88.71-14.57Z"/>
        <rect class="cls-11" x="278.43" y="70.15" width="24.57" height="102" rx="6.86" ry="6.86"/>
        <rect class="cls-3" x="278.43" y="27.29" width="24.57" height="24.57" rx="6.93" ry="6.93"/>
        <circle class="cls-4" cx="585.71" cy="27.29" r="25.29"/>
        <polygon class="cls-5" points="582.46 17.06 582.46 21.19 577.05 21.19 577.05 36.13 571.67 36.13 571.67 21.19 566.26 21.19 566.26 17.06 582.46 17.06"/>
      </g>
      <polygon class="cls-8" points="419.07 202.04 415.67 195.32 409.17 191.5 415.89 188.09 419.71 181.59 423.12 188.32 429.62 192.14 422.9 195.55 419.07 202.04"/>
      <polygon class="cls-8" points="371.05 191.23 368.93 187.06 364.91 184.69 369.07 182.58 371.44 178.55 373.56 182.72 377.58 185.09 373.42 187.2 371.05 191.23"/>
      <polygon class="cls-8" points="398.06 211.36 396.67 208.92 394.32 207.38 396.5 206.42 397.59 204.31 398.98 206.75 401.33 208.29 399.15 209.24 398.06 211.36"/>
      <polygon class="cls-9" points="604.58 17.02 604.58 36.18 599.36 36.18 599.36 24.51 594.54 29.33 590.85 25.64 589.71 24.5 589.71 36.18 584.49 36.18 584.49 17.02 589.61 17.02 589.71 17.12 594.54 21.95 599.47 17.02 604.58 17.02"/>
    </g>
  </g>
</svg>