<?xml version="1.0" encoding="UTF-8"?>
<svg version="1.1" xmlns="http://www.w3.org/2000/svg" width="225" height="225">
<path d="M0 0 C74.25 0 148.5 0 225 0 C225 74.25 225 148.5 225 225 C150.75 225 76.5 225 0 225 C0 150.75 0 76.5 0 0 Z " fill="#FECC33" transform="translate(0,0)"/>
<path d="M0 0 C0.53625 0.680625 1.0725 1.36125 1.625 2.0625 C3.5518867 4.44575461 5.25656745 6.16802248 7.5625 8.125 C11.12423309 11.20778792 14.63694894 14.32935867 18.0625 17.5625 C19.02285156 18.45066406 19.98320312 19.33882812 20.97265625 20.25390625 C23 23 23 23 22.80859375 26.33984375 C22.54175781 27.21769531 22.27492188 28.09554687 22 29 C22.53109375 28.69964844 23.0621875 28.39929688 23.609375 28.08984375 C24.31578125 27.70957031 25.0221875 27.32929687 25.75 26.9375 C26.79414063 26.36322266 26.79414063 26.36322266 27.859375 25.77734375 C30.42565152 24.84542946 31.47221329 25.06227267 34 26 C36.01526169 26.96887581 38.01833966 27.9641321 40 29 C39.84660156 28.34773438 39.69320312 27.69546875 39.53515625 27.0234375 C39.37917969 26.14945313 39.22320312 25.27546875 39.0625 24.375 C38.80146484 23.08722656 38.80146484 23.08722656 38.53515625 21.7734375 C39.10107161 18.39696772 39.9398705 17.93523101 42.52905273 15.82666016 C43.17454575 15.2948111 43.82003876 14.76296204 44.48509216 14.21499634 C44.98501175 13.81404755 45.48493134 13.41309875 46 13 C52.37205099 19.232743 58.72754923 25.48177183 65.06279564 31.75192261 C68.00535451 34.66323129 70.95320322 37.56872163 73.9140625 40.46142578 C76.77378066 43.25572765 79.61838749 46.06463401 82.45332718 48.88406372 C83.53490891 49.95459913 84.62173987 51.01985903 85.71393967 52.07955933 C92.62804233 58.7960773 96.38693922 63.11810362 97.25878906 72.9050293 C97.26217285 74.22627808 97.26217285 74.22627808 97.265625 75.57421875 C97.27203003 77.0600647 97.27203003 77.0600647 97.27856445 78.57592773 C97.26913818 79.60274658 97.25971191 80.62956543 97.25 81.6875 C97.24250732 82.75750244 97.23501465 83.82750488 97.22729492 84.92993164 C96.80267019 116.12680247 84.28620591 143.52030507 62.23413086 165.30297852 C44.46970942 182.22216567 21.37432905 192.4889206 -3 195 C-4.04909546 195.13257202 -4.04909546 195.13257202 -5.11938477 195.26782227 C-19.13771267 196.88828376 -19.13771267 196.88828376 -24.58984375 192.60546875 C-27.17588266 190.17919271 -29.43702297 187.53822972 -31.62231445 184.75 C-36.90602925 178.03838071 -42.87191624 171.99801513 -48.9375 166 C-50.10635742 164.83791016 -50.10635742 164.83791016 -51.29882812 163.65234375 C-53.1969242 161.76589243 -55.09733149 159.88183755 -57 158 C-53.25461812 156.80195852 -49.71497324 156.90008309 -45.80395508 156.93408203 C-45.08630981 156.93875488 -44.36866455 156.94342773 -43.62927246 156.94824219 C-42.07365712 156.95872708 -40.51805524 156.97138392 -38.96247292 156.98596573 C-36.49391573 157.00804157 -34.025436 157.02208765 -31.55680847 157.03366089 C-24.53865991 157.06719445 -17.52063855 157.10865424 -10.50268555 157.17138672 C-6.20572422 157.20922052 -1.90889498 157.23211558 2.38820839 157.24569321 C4.01917509 157.25370459 5.650125 157.26725208 7.28099632 157.28662491 C19.43919011 157.46631573 19.43919011 157.46631573 31 154 C35.21132494 149.78867506 36.158756 146.26951233 36.25 140.4375 C36.11292017 130.09420402 33.35791066 122.41461903 26 115 C17.37598132 107.99579701 10.16021932 106.75046845 -0.72265625 107.04296875 C-3.05921317 107.06652936 -5.3958074 107.08659951 -7.73242188 107.10351562 C-11.39213052 107.13607139 -15.04660938 107.1870175 -18.70483398 107.2980957 C-41.26007422 107.93799317 -41.26007422 107.93799317 -48.48643494 101.31526184 C-55 94.30345078 -55 94.30345078 -55 92 C-53.88625 91.71125 -52.7725 91.4225 -51.625 91.125 C-47.99708908 90.30758671 -47.99708908 90.30758671 -46 88 C-45.77401852 85.16495959 -45.67572897 82.45946483 -45.6875 79.625 C-45.67138672 78.85671875 -45.65527344 78.0884375 -45.63867188 77.296875 C-45.63481037 72.83297234 -45.86696132 70.4075833 -49 67 C-50.46343555 59.19501041 -45.79465206 52.56365741 -41.83984375 46.10546875 C-37.36782871 40.03058093 -29.40159932 35.64925536 -22.04296875 34.25390625 C-21.36878906 34.17011719 -20.69460937 34.08632813 -20 34 C-19.25363281 33.90589844 -18.50726563 33.81179687 -17.73828125 33.71484375 C-8.3295218 33.12395548 0.66049063 36.69433924 7.9375 42.5625 C13.57900416 48.06869133 18.25083995 55.56393945 18.5 63.625 C18 67 18 67 16 69 C15.69620138 70.98391345 15.69620138 70.98391345 15.7265625 73.24609375 C15.7059375 74.08333984 15.6853125 74.92058594 15.6640625 75.78320312 C15.63807975 77.54873105 15.61981514 79.31438989 15.609375 81.08007812 C15.43086824 87.53111397 15.43086824 87.53111397 13.140625 90.0234375 C8.31691087 92.22403701 4.3430802 93.36430092 -1 93 C-1.99 92.505 -1.99 92.505 -3 92 C-7.65275976 91.6947378 -7.65275976 91.6947378 -12 93 C-12 94.98 -12 96.96 -12 99 C-10.37536158 99.05395478 -8.75021459 99.09277195 -7.125 99.125 C-6.22007813 99.14820313 -5.31515625 99.17140625 -4.3828125 99.1953125 C-1.81193006 99.24324836 -1.81193006 99.24324836 0 97 C2.10780463 96.43185859 4.23717829 95.94197662 6.375 95.5 C10.88166627 94.60545262 10.88166627 94.60545262 15.125 92.9375 C17.98313014 91.50843493 20.82833168 91.55293477 23.9765625 91.34375 C26.22286476 91.16292808 26.22286476 91.16292808 28 89 C28.44693579 85.89568335 28.32408589 82.75782567 28.3125 79.625 C28.32861328 78.76132813 28.34472656 77.89765625 28.36132812 77.0078125 C28.36497649 72.27952632 28.29105779 69.61765132 25 66 C24.4453125 63.7734375 24.4453125 63.7734375 24.125 61.375 C22.37308515 51.75359669 17.49208847 43.32144965 10 37 C4.07031069 33.33589953 -1.97077 30.11228123 -8.9375 29.0625 C-14.40764441 28.166089 -16.80186603 24.18408718 -20 20 C-20.55945313 19.46246094 -21.11890625 18.92492187 -21.6953125 18.37109375 C-23 17 -23 17 -23 15 C-17.77348066 11.96132597 -17.77348066 11.96132597 -14.5 12.125 C-11.51627861 13.16930249 -8.78538605 14.51014235 -6 16 C-6.2475 15.2265625 -6.2475 15.2265625 -6.5 14.4375 C-7.1830061 11.10784527 -7.35741638 8.39545558 -7 5 C-2.95744681 0 -2.95744681 0 0 0 Z " fill="#D1A224" transform="translate(127,29)"/>
<path d="M0 0 C74.25 0 148.5 0 225 0 C225 74.25 225 148.5 225 225 C150.75 225 76.5 225 0 225 C0 150.75 0 76.5 0 0 Z M27 40 C7.41828245 63.69997937 -1.32187516 93.46891752 1 124 C4.18608535 150.04361657 15.83288822 173.23724521 34 192 C34.78632812 192.81210938 35.57265625 193.62421875 36.3828125 194.4609375 C57.42366928 214.85834301 86.74708486 224.90220462 115.77734375 224.45532227 C147.51327718 223.33943534 174.63735265 209.71633393 196.4453125 186.9609375 C217.82526462 163.75850677 225.3648031 132.78964025 224.19970703 101.94140625 C222.42885439 75.85921474 208.87539672 51.4614753 191 33 C190.21367187 32.18789063 189.42734375 31.37578125 188.6171875 30.5390625 C167.73650538 10.29693335 138.42413087 0.26072009 109.63354492 0.52709961 C77.49381634 1.52044577 48.23664061 16.01397288 27 40 Z " fill="#FEFEFD" transform="translate(0,0)"/>
<path d="M0 0 C1.07572266 -0.00524185 2.15144531 -0.0104837 3.25976562 -0.0158844 C5.52212668 -0.02227519 7.78452109 -0.02100602 10.046875 -0.01245117 C13.49018934 -0.00393053 16.9318486 -0.03276316 20.375 -0.06445312 C22.58333284 -0.06606524 24.79166859 -0.06548742 27 -0.0625 C28.01900391 -0.07373398 29.03800781 -0.08496796 30.08789062 -0.09654236 C40.05205088 -0.00030796 48.25489629 3.54190974 55.5 10.43359375 C62.92408124 19.14373631 64.97757772 26.36661178 64.75 37.66015625 C64.30906842 42.55174095 62.66451954 45.26907421 59.25 48.68359375 C53.80839985 52.14643021 48.30201684 52.68560707 41.96337891 52.70825195 C41.24529556 52.71336288 40.52721222 52.71847382 39.78736877 52.72373962 C37.43367986 52.73754241 35.08028687 52.73668584 32.7265625 52.734375 C31.07660821 52.73826727 29.42665491 52.74260302 27.77670288 52.74736023 C24.32538601 52.75480259 20.87417147 52.75454577 17.42285156 52.74926758 C13.01935554 52.74347791 8.61628082 52.7604013 4.21285439 52.78361225 C0.80687039 52.79840799 -2.59901352 52.79921334 -6.00502396 52.79610252 C-7.62758849 52.79661288 -9.25015904 52.8017965 -10.87269211 52.81191444 C-29.91642271 52.91610031 -29.91642271 52.91610031 -36.11689758 48.20510864 C-39.39435964 44.86017203 -40.11222857 41.78906473 -40.14404297 37.31811523 C-40.11713379 36.59309814 -40.09022461 35.86808105 -40.0625 35.12109375 C-40.04590332 34.36707275 -40.02930664 33.61305176 -40.01220703 32.83618164 C-39.76866262 26.99048487 -38.74173364 22.38203451 -35.5 17.43359375 C-35.07589844 16.74007812 -34.65179688 16.0465625 -34.21484375 15.33203125 C-26.1227679 3.29535018 -13.79645575 -0.03974607 0 0 Z " fill="#FEFEFD" transform="translate(99.5,134.56640625)"/>
<path d="M0 0 C6.8724546 3.77311233 12.1832644 9.64519039 15 17 C15.25 20.3125 15.25 20.3125 15 23 C14.505 23.495 14.505 23.495 14 24 C13.86403216 27.30855078 13.75204949 30.61048128 13.74609375 33.921875 C13.61075756 37.79676385 13.20256179 39.69196225 11.01953125 43.01171875 C6.85618595 45.75317122 3.78343648 45.42623857 -1.0625 45.0625 C-7.14319007 44.4513321 -7.14319007 44.4513321 -12.54296875 46.76171875 C-14.57816956 49.88818005 -14.28035912 52.35533146 -14 56 C-21.11942185 56.65920573 -26.09760871 55.06547015 -32 51 C-38.37504908 44.92852469 -41.07641641 41.00406076 -41.5 32.25 C-41.7856017 26.47337054 -41.7856017 26.47337054 -42.65625 20.76171875 C-43.25375757 15.96128862 -40.6893551 12.81157982 -38 9 C-28.35228063 -2.91364862 -14.0457785 -6.38945218 0 0 Z " fill="#FEFEFD" transform="translate(126,73)"/>
<path d="M0 0 C9.1374097 6.52672121 15.36441015 15.50954392 17.375 26.625 C17.48070312 27.41648438 17.58640625 28.20796875 17.6953125 29.0234375 C18.08525549 31.33547244 18.08525549 31.33547244 19.78125 32.94140625 C22.14662935 36.65932964 21.68318375 40.50367005 21.625 44.8125 C21.63660156 45.67552734 21.64820313 46.53855469 21.66015625 47.42773438 C21.65628906 48.25724609 21.65242188 49.08675781 21.6484375 49.94140625 C21.64505371 50.69623291 21.64166992 51.45105957 21.63818359 52.22875977 C21.14886278 54.77661321 20.26906432 55.66813828 18.25 57.25 C16.19921875 57.65625 16.19921875 57.65625 13.9375 57.75 C10.83513369 57.99400634 9.217255 58.2663725 6.375 59.6875 C2.51646044 61.61676978 -1.11491397 62.11381963 -5.359375 62.72265625 C-7.92182671 63.06303408 -7.92182671 63.06303408 -9.75 65.25 C-16.780837 65.80800294 -16.780837 65.80800294 -19.8125 64.0625 C-20.75 62.25 -20.75 62.25 -20.5625 59.625 C-19.75 57.25 -19.75 57.25 -17.75 56.25 C-11.21666667 56.01666667 -11.21666667 56.01666667 -8.75 57.25 C-6.73593659 57.26434257 -6.73593659 57.26434257 -4.5 57 C-3.75234375 56.93296875 -3.0046875 56.8659375 -2.234375 56.796875 C0.89429132 56.10817487 3.43899783 54.76111677 6.25 53.25 C6.26981934 52.68490723 6.28963867 52.11981445 6.31005859 51.53759766 C6.40518236 48.98292003 6.51491058 46.42907459 6.625 43.875 C6.6559375 42.98554687 6.686875 42.09609375 6.71875 41.1796875 C6.75742188 40.32890625 6.79609375 39.478125 6.8359375 38.6015625 C6.88306885 37.42327881 6.88306885 37.42327881 6.93115234 36.22119141 C7.25 34.25 7.25 34.25 9.25 32.25 C10.39582302 24.51569464 7.37908902 18.69670673 3.25 12.25 C-2.53941888 5.02963632 -11.42458963 1.20839551 -20.45703125 -0.16015625 C-30.18980348 -0.51268186 -39.45487486 2.80737032 -46.75 9.25 C-49.11029712 12.07926446 -50.98535122 15.02046649 -52.75 18.25 C-53.0903125 18.87261719 -53.430625 19.49523437 -53.78125 20.13671875 C-55.77638801 24.24707253 -56.26149862 27.73176221 -55.75 32.25 C-55.00943359 33.07951172 -55.00943359 33.07951172 -54.25390625 33.92578125 C-52.02826827 37.36540358 -52.27549342 40.78693209 -52.3125 44.75 C-52.29251953 45.50925781 -52.27253906 46.26851562 -52.25195312 47.05078125 C-52.25508796 50.63076274 -52.43419502 52.81252124 -54.5546875 55.75 C-57.75978949 57.93996293 -59.96737394 57.80020015 -63.75 57.25 C-65.80868216 55.46232219 -66.6407888 54.00437851 -67.0324707 51.29882812 C-67.15470804 48.94157767 -67.15893047 46.61005273 -67.125 44.25 C-67.13660156 43.44304687 -67.14820312 42.63609375 -67.16015625 41.8046875 C-67.13742574 37.21312415 -66.88623143 34.78626095 -63.75 31.25 C-63.14844877 29.01117971 -63.14844877 29.01117971 -62.875 26.625 C-61.00280077 16.41028098 -55.64149056 7.97238085 -47.75 1.25 C-32.22139279 -8.72193181 -15.95038123 -9.84458605 0 0 Z " fill="#FDFBF7" transform="translate(134.75,63.75)"/>
<path d="M0 0 C6.03331362 4.98404168 11.5184171 10.41915303 17 16 C16.25621094 16.59425781 15.51242188 17.18851563 14.74609375 17.80078125 C13.83988281 18.52652344 12.93367188 19.25226563 12 20 C10.99646484 20.79470703 10.99646484 20.79470703 9.97265625 21.60546875 C4.89058032 25.81455004 1.3825777 30.3495577 -2 36 C-7.4691352 31.60091299 -12.0987106 26.72768981 -16.765625 21.48828125 C-18.46483399 19.59598033 -20.17648053 17.77023481 -22 16 C-15.76331361 11.96449704 -15.76331361 11.96449704 -12.3125 12.125 C-10.11863293 12.95511186 -8.08783244 13.93630432 -6 15 C-6.06960937 14.41992188 -6.13921875 13.83984375 -6.2109375 13.2421875 C-6.64788065 6.937722 -6.64788065 6.937722 -4.6640625 4.06640625 C-3 2.4375 -3 2.4375 0 0 Z " fill="#D1A224" transform="translate(77,45)"/>
<path d="M0 0 C0.99 0.33 1.98 0.66 3 1 C3.37125 1.969375 3.7425 2.93875 4.125 3.9375 C5.64538671 7.11940742 5.64538671 7.11940742 8.19140625 7.83984375 C10.45873496 8.32595335 12.6985908 8.72016408 15 9 C14.00282832 11.22445991 13.22929851 12.7973512 11.38671875 14.42578125 C9.41400553 16.66522752 9.69842035 18.25945575 9.8125 21.1875 C9.83957031 22.08855469 9.86664063 22.98960938 9.89453125 23.91796875 C9.92933594 24.60503906 9.96414062 25.29210937 10 26 C8.63875 25.5359375 8.63875 25.5359375 7.25 25.0625 C6.1775 24.711875 5.105 24.36125 4 24 C3.34 23.731875 2.68 23.46375 2 23.1875 C-1.14953752 22.89223086 -3.28572646 24.52485134 -6 26 C-6.66 26 -7.32 26 -8 26 C-7.94199219 25.33613281 -7.88398438 24.67226563 -7.82421875 23.98828125 C-7.43052333 17.99798365 -7.43052333 17.99798365 -10.5 13 C-11.325 12.34 -12.15 11.68 -13 11 C-13 10.34 -13 9.68 -13 9 C-9.7 8.67 -6.4 8.34 -3 8 C-2.690625 7.05125 -2.38125 6.1025 -2.0625 5.125 C-1 2 -1 2 0 0 Z " fill="#FEFCF6" transform="translate(157,32)"/>
<path d="M0 0 C0.99 0.33 1.98 0.66 3 1 C3.37125 1.969375 3.7425 2.93875 4.125 3.9375 C5.64538671 7.11940742 5.64538671 7.11940742 8.19140625 7.83984375 C10.45873496 8.32595335 12.6985908 8.72016408 15 9 C14.00282832 11.22445991 13.22929851 12.7973512 11.38671875 14.42578125 C9.41400553 16.66522752 9.69842035 18.25945575 9.8125 21.1875 C9.83957031 22.08855469 9.86664063 22.98960938 9.89453125 23.91796875 C9.92933594 24.60503906 9.96414062 25.29210937 10 26 C8.948125 25.484375 7.89625 24.96875 6.8125 24.4375 C3.43152868 22.998211 1.56388973 22.81203676 -2 24 C-3.093125 24.350625 -4.18625 24.70125 -5.3125 25.0625 C-6.6428125 25.5265625 -6.6428125 25.5265625 -8 26 C-7.94199219 25.27554688 -7.88398437 24.55109375 -7.82421875 23.8046875 C-7.39691129 17.05096256 -7.39691129 17.05096256 -10.5 11.3125 C-11.325 10.549375 -12.15 9.78625 -13 9 C-9.52674819 7.8422494 -6.63932552 7.93133348 -3 8 C-2.690625 7.05125 -2.38125 6.1025 -2.0625 5.125 C-1 2 -1 2 0 0 Z " fill="#FEFCF6" transform="translate(62,35)"/>
<path d="M0 0 C0.66 0 1.32 0 2 0 C5 5.75 5 5.75 5 8 C8.3 8.33 11.6 8.66 15 9 C14.175 9.763125 13.35 10.52625 12.5 11.3125 C9.19716553 15.17356001 9.59665704 18.92836511 9.82421875 23.8046875 C9.88222656 24.52914062 9.94023438 25.25359375 10 26 C9.113125 25.690625 8.22625 25.38125 7.3125 25.0625 C6.219375 24.711875 5.12625 24.36125 4 24 C3.195625 23.731875 2.39125 23.46375 1.5625 23.1875 C-2.22882814 22.91008575 -4.60796942 24.33723991 -8 26 C-7.94199219 25.33613281 -7.88398437 24.67226563 -7.82421875 23.98828125 C-7.43052333 17.99798365 -7.43052333 17.99798365 -10.5 13 C-11.325 12.34 -12.15 11.68 -13 11 C-13 10.34 -13 9.68 -13 9 C-12.39671875 8.93683594 -11.7934375 8.87367187 -11.171875 8.80859375 C-6.30280837 8.15707247 -6.30280837 8.15707247 -2.51171875 5.30859375 C-1.28504265 3.17971755 -1.28504265 3.17971755 0 0 Z " fill="#FEFCF7" transform="translate(111,19)"/>
<path d="M0 0 C0.33 0 0.66 0 1 0 C1.3784219 4.5410628 1.3784219 4.5410628 -0.46875 6.78125 C-2.45438385 9.65839292 -2.49918401 11.7849857 -2.6875 15.25 C-2.78611328 16.86648437 -2.78611328 16.86648437 -2.88671875 18.515625 C-2.92410156 19.33546875 -2.96148437 20.1553125 -3 21 C-3.66 21 -4.32 21 -5 21 C-5.1079859 18.56131832 -5.18726589 16.12740867 -5.25 13.6875 C-5.28351563 12.99720703 -5.31703125 12.30691406 -5.3515625 11.59570312 C-5.390625 9.57421875 -5.390625 9.57421875 -5 6 C-3.046875 4.20703125 -3.046875 4.20703125 -1 3 C-0.67 2.01 -0.34 1.02 0 0 Z " fill="#CF9F12" transform="translate(144,91)"/>
<path d="M0 0 C0.33 0 0.66 0 1 0 C1.13487595 2.77245014 1.23400807 5.53837088 1.3125 8.3125 C1.35439453 9.09818359 1.39628906 9.88386719 1.43945312 10.69335938 C1.48647449 12.90336375 1.48367587 14.84148911 1 17 C-1.51953125 19.04296875 -1.51953125 19.04296875 -4 20 C-4.6875 18.25 -4.6875 18.25 -5 16 C-3.6875 13.75 -3.6875 13.75 -2 12 C-1.34 12 -0.68 12 0 12 C0 8.04 0 4.08 0 0 Z " fill="#D4AA3C" transform="translate(141,100)"/>
</svg>
