<?xml version="1.0" encoding="UTF-8"?>
<svg version="1.1" xmlns="http://www.w3.org/2000/svg" width="512" height="512">
<path d="M0 0 C0.825 0.35964844 1.65 0.71929687 2.5 1.08984375 C3.18578125 1.41597656 3.8715625 1.74210937 4.578125 2.078125 C13.01121721 4.28503071 19.86676305 2.27295163 27.625 -1.16015625 C29.36115004 -1.90038517 31.0981003 -2.63874073 32.8359375 -3.375 C33.5892334 -3.70491943 34.3425293 -4.03483887 35.11865234 -4.37475586 C41.89382985 -7.07008135 50.57497528 -7.68558916 57.546875 -5.50390625 C67.74295049 0.09040066 73.71482793 11.6916656 79.4765625 21.33203125 C82.74623748 25.84043772 86.36507071 28.12716986 91.625 29.77734375 C92.66914063 30.10863281 93.71328125 30.43992188 94.7890625 30.78125 C97.86013018 31.66513517 100.94189694 32.45945828 104.04394531 33.22607422 C114.71010589 35.89128309 121.59456735 39.32865151 127.5 48.77734375 C130.57650021 56.98134432 129.39892253 66.37076915 128.625 74.90234375 C127.93864707 84.43848979 129.01066185 89.99553776 135.1796875 97.390625 C135.86289062 98.17824219 136.54609375 98.96585937 137.25 99.77734375 C152.07336664 117.22100247 152.07336664 117.22100247 151.25 129.77734375 C149.77613499 137.17371221 146.06844829 142.13797464 141.25 147.77734375 C139.92545928 149.34475095 138.60405599 150.91469855 137.28540039 152.48706055 C135.99318813 154.02362521 134.69018395 155.55109456 133.38671875 157.078125 C127.38606689 164.65847315 128.175159 172.26533556 128.984375 181.46484375 C129.81713179 191.84981081 130.07015837 201.25214578 123.25 209.77734375 C117.65416934 215.37317441 110.94020231 218.40237672 103.07763672 219.32714844 C101.8145166 219.47571289 100.55139648 219.62427734 99.25 219.77734375 C99.53433395 220.73199524 99.81866791 221.68664673 100.11161804 222.67022705 C101.23578105 226.4446724 102.35982943 230.21915189 103.48387146 233.99363327 C104.26891125 236.62961953 105.05407083 239.26557009 105.8392334 241.90151978 C108.69327381 251.48415855 111.54422291 261.06770395 114.38989258 270.65283203 C115.53054302 274.49388009 116.67144041 278.33485472 117.8125 282.17578125 C118.09417715 283.12406422 118.3758543 284.07234718 118.66606712 285.049366 C122.02694846 296.35991338 125.418768 307.65962815 128.875 318.94140625 C129.78836001 321.94428258 130.70039754 324.94755603 131.61172485 327.9510498 C132.15865225 329.74017082 132.71177868 331.5274095 133.27133179 333.31262207 C134.02288406 335.71059149 134.75397851 338.11387483 135.48046875 340.51953125 C135.69578247 341.18433502 135.91109619 341.84913879 136.13293457 342.53408813 C137.42496441 346.91424215 137.24766023 349.66630402 135.25 353.77734375 C132.25 355.77734375 132.25 355.77734375 129.63671875 355.8203125 C124.64982447 354.28455613 121.1303955 351.28952091 117.0625 348.08984375 C115.28717733 346.72432514 113.51111612 345.35976625 111.734375 343.99609375 C110.83009766 343.29742187 109.92582031 342.59875 108.99414062 341.87890625 C104.64814293 338.55058346 100.23098463 335.32094988 95.8125 332.08984375 C87.78050473 326.21179001 87.78050473 326.21179001 84.40234375 323.4453125 C82.2639489 321.5980164 82.2639489 321.5980164 79.25 320.77734375 C79.07621826 321.45104004 78.90243652 322.12473633 78.72338867 322.81884766 C76.9834919 329.39992285 74.93387255 335.77402744 72.5625 342.15234375 C72.04683472 343.54996948 72.04683472 343.54996948 71.52075195 344.97583008 C70.80047441 346.92278688 70.07771308 348.8688265 69.35253906 350.81396484 C68.24365544 353.7943965 67.14889479 356.77977875 66.0546875 359.765625 C65.34980777 361.66567992 64.64410808 363.5654309 63.9375 365.46484375 C63.61241455 366.3554248 63.2873291 367.24600586 62.95239258 368.16357422 C62.64197021 368.98873535 62.33154785 369.81389648 62.01171875 370.6640625 C61.608927 371.75013794 61.608927 371.75013794 61.19799805 372.8581543 C60.13391871 375.01234633 59.13533913 376.28858681 57.25 377.77734375 C53.75 378.21484375 53.75 378.21484375 50.25 377.77734375 C47.35182909 374.78599211 46.35808811 371.53649303 45.18798828 367.59570312 C44.80932114 366.33513596 44.43065399 365.07456879 44.04051208 363.77580261 C43.6336157 362.3909476 43.22688747 361.00604316 42.8203125 359.62109375 C42.38943018 358.17563478 41.95782 356.73039261 41.52552795 355.28535461 C40.37074548 351.41766165 39.22616787 347.54701945 38.08373642 343.67566299 C36.90416852 339.68407979 35.71589694 335.69508951 34.52856445 331.70581055 C32.64006336 325.3566525 30.75716328 319.00585985 28.87841797 312.65380859 C26.5896926 304.91627432 24.28402014 297.18392973 21.97265625 289.453125 C21.07127545 286.43104239 20.17065653 283.4087348 19.27069092 280.38623047 C18.7172251 278.52866766 18.16274825 276.67140579 17.60723877 274.81445312 C16.85261209 272.2889377 16.10322157 269.76193267 15.35546875 267.234375 C15.13778336 266.50962479 14.92009796 265.78487457 14.69581604 265.03816223 C13.85318944 262.1723537 13.25 259.78323423 13.25 256.77734375 C12.59 256.77734375 11.93 256.77734375 11.25 256.77734375 C11.15375336 257.3341684 11.05750671 257.89099304 10.95834351 258.46469116 C9.53601574 266.14062149 7.35871898 273.53895855 5.1015625 281.00390625 C4.68797784 282.38406028 4.27480503 283.76433778 3.86201477 285.14472961 C2.76447536 288.81079747 1.66139894 292.47517514 0.55686569 296.13914108 C-0.58368014 299.92476398 -1.72026377 303.71157611 -2.85717773 307.49829102 C-4.21640548 312.02479898 -5.5760641 316.55117479 -6.93803406 321.07685852 C-9.53064453 329.69462868 -12.09867786 338.31908948 -14.63671875 346.953125 C-15.44729997 349.69966427 -16.25847833 352.44602635 -17.06988525 355.19232178 C-17.56155894 356.86244439 -18.0504907 358.53337687 -18.53656006 360.20513916 C-19.195393 362.46973683 -19.86405375 364.73120133 -20.53515625 366.9921875 C-21.07474976 368.83478149 -21.07474976 368.83478149 -21.62524414 370.71459961 C-22.69235155 373.62036529 -23.58266409 375.57853409 -25.75 377.77734375 C-31.77343873 378.53027359 -31.77343873 378.53027359 -34.34518433 376.54745483 C-36.00875851 374.45130005 -36.80845369 372.5323273 -37.72705078 370.01806641 C-38.08397003 369.05341461 -38.44088928 368.08876282 -38.80862427 367.09487915 C-39.18373138 366.05423309 -39.5588385 365.01358704 -39.9453125 363.94140625 C-40.33822479 362.86990326 -40.73113708 361.79840027 -41.13595581 360.69442749 C-41.96518738 358.42793267 -42.79037322 356.15995417 -43.61181641 353.890625 C-44.86870205 350.41973555 -46.1383155 346.95371494 -47.41015625 343.48828125 C-48.21429676 341.28543175 -49.01770657 339.08231534 -49.8203125 336.87890625 C-50.38904587 335.32400986 -50.38904587 335.32400986 -50.9692688 333.73770142 C-51.31988373 332.7667453 -51.67049866 331.79578918 -52.03173828 330.79541016 C-52.34023712 329.94508209 -52.64873596 329.09475403 -52.96658325 328.21865845 C-53.75757882 325.75372633 -54.29279008 323.32346812 -54.75 320.77734375 C-60.41543003 323.80786363 -65.29895127 327.39876921 -70.3125 331.40234375 C-76.96275057 336.64460305 -83.68101899 341.72803698 -90.625 346.57421875 C-92.65304712 348.00399197 -94.65541975 349.47117084 -96.625 350.98046875 C-97.924375 351.96273437 -97.924375 351.96273437 -99.25 352.96484375 C-99.9821875 353.53589844 -100.714375 354.10695313 -101.46875 354.6953125 C-104.67712666 356.21709389 -106.41968926 355.90982845 -109.75 354.77734375 C-112.10028817 351.91044791 -112.81891783 350.48945623 -112.45800781 346.76025391 C-111.96059082 344.99367432 -111.96059082 344.99367432 -111.453125 343.19140625 C-111.26590881 342.51018707 -111.07869263 341.8289679 -110.88580322 341.12710571 C-110.1991986 338.66923946 -109.47658269 336.22368539 -108.75 333.77734375 C-108.46777588 332.81195679 -108.18555176 331.84656982 -107.89477539 330.85192871 C-105.66970231 323.2503368 -103.38369758 315.66771367 -101.08608246 308.08778381 C-99.48257573 302.79246892 -97.88884822 297.49419388 -96.2931633 292.19651794 C-95.67780631 290.15391185 -95.06201403 288.11143732 -94.44619751 286.06896973 C-90.12644703 271.73537766 -85.87118711 257.38288547 -81.625 243.02734375 C-81.09827698 241.24731964 -81.09827698 241.24731964 -80.56091309 239.43133545 C-78.62250452 232.8804294 -76.68532794 226.32916057 -74.75 219.77734375 C-76.00482178 219.63111572 -77.25964355 219.4848877 -78.55249023 219.33422852 C-86.1711955 218.44639866 -93.48410196 215.68312218 -98.8125 210.02734375 C-106.36967184 200.14772398 -105.16767166 189.38983519 -104.125 177.58984375 C-103.43542731 168.08209915 -104.52965109 162.53638648 -110.6796875 155.1640625 C-111.36289063 154.37644531 -112.04609375 153.58882812 -112.75 152.77734375 C-127.57336664 135.33368503 -127.57336664 135.33368503 -126.75 122.77734375 C-125.27613499 115.38097529 -121.56844829 110.41671286 -116.75 104.77734375 C-115.42545928 103.20993655 -114.10405599 101.63998895 -112.78540039 100.06762695 C-111.49318813 98.53106229 -110.19018395 97.00359294 -108.88671875 95.4765625 C-102.89528435 87.90785834 -103.68330956 80.33561762 -104.48046875 71.15234375 C-105.33057204 60.50757212 -105.53727215 51.3187532 -98.8125 42.52734375 C-91.47791369 34.85867691 -80.41043934 32.94703372 -70.42480469 30.65161133 C-63.40136255 28.96420823 -58.39826948 26.39953721 -54.3125 20.21484375 C-53.72855469 19.3434375 -53.14460938 18.47203125 -52.54296875 17.57421875 C-50.71266473 14.71910399 -48.91823342 11.84335292 -47.125 8.96484375 C-34.97069157 -10.29756469 -19.10612562 -8.49462687 0 0 Z " fill="#FDCB5A" transform="translate(243.75,70.22265625)"/>
<path d="M0 0 C0.825 0.35964844 1.65 0.71929687 2.5 1.08984375 C3.18578125 1.41597656 3.8715625 1.74210937 4.578125 2.078125 C13.01121721 4.28503071 19.86676305 2.27295163 27.625 -1.16015625 C29.36115004 -1.90038517 31.0981003 -2.63874073 32.8359375 -3.375 C33.5892334 -3.70491943 34.3425293 -4.03483887 35.11865234 -4.37475586 C41.89382985 -7.07008135 50.57497528 -7.68558916 57.546875 -5.50390625 C67.74295049 0.09040066 73.71482793 11.6916656 79.4765625 21.33203125 C82.74623748 25.84043772 86.36507071 28.12716986 91.625 29.77734375 C92.66914063 30.10863281 93.71328125 30.43992188 94.7890625 30.78125 C97.86013018 31.66513517 100.94189694 32.45945828 104.04394531 33.22607422 C114.71010589 35.89128309 121.59456735 39.32865151 127.5 48.77734375 C130.57650021 56.98134432 129.39892253 66.37076915 128.625 74.90234375 C127.93864707 84.43848979 129.01066185 89.99553776 135.1796875 97.390625 C135.86289062 98.17824219 136.54609375 98.96585937 137.25 99.77734375 C152.07336664 117.22100247 152.07336664 117.22100247 151.25 129.77734375 C149.77613499 137.17371221 146.06844829 142.13797464 141.25 147.77734375 C139.92545928 149.34475095 138.60405599 150.91469855 137.28540039 152.48706055 C135.99318813 154.02362521 134.69018395 155.55109456 133.38671875 157.078125 C127.38606689 164.65847315 128.175159 172.26533556 128.984375 181.46484375 C129.81713179 191.84981081 130.07015837 201.25214578 123.25 209.77734375 C117.65416934 215.37317441 110.94020231 218.40237672 103.07763672 219.32714844 C101.8145166 219.47571289 100.55139648 219.62427734 99.25 219.77734375 C99.53433395 220.73199524 99.81866791 221.68664673 100.11161804 222.67022705 C101.23578105 226.4446724 102.35982943 230.21915189 103.48387146 233.99363327 C104.26891125 236.62961953 105.05407083 239.26557009 105.8392334 241.90151978 C108.69327381 251.48415855 111.54422291 261.06770395 114.38989258 270.65283203 C115.53054302 274.49388009 116.67144041 278.33485472 117.8125 282.17578125 C118.09417715 283.12406422 118.3758543 284.07234718 118.66606712 285.049366 C122.02694846 296.35991338 125.418768 307.65962815 128.875 318.94140625 C129.78836001 321.94428258 130.70039754 324.94755603 131.61172485 327.9510498 C132.15865225 329.74017082 132.71177868 331.5274095 133.27133179 333.31262207 C134.02288406 335.71059149 134.75397851 338.11387483 135.48046875 340.51953125 C135.69578247 341.18433502 135.91109619 341.84913879 136.13293457 342.53408813 C137.42496441 346.91424215 137.24766023 349.66630402 135.25 353.77734375 C132.25 355.77734375 132.25 355.77734375 129.63671875 355.8203125 C124.64982447 354.28455613 121.1303955 351.28952091 117.0625 348.08984375 C115.28717733 346.72432514 113.51111612 345.35976625 111.734375 343.99609375 C110.83009766 343.29742187 109.92582031 342.59875 108.99414062 341.87890625 C104.64814293 338.55058346 100.23098463 335.32094988 95.8125 332.08984375 C87.78050473 326.21179001 87.78050473 326.21179001 84.40234375 323.4453125 C82.2639489 321.5980164 82.2639489 321.5980164 79.25 320.77734375 C79.07621826 321.45104004 78.90243652 322.12473633 78.72338867 322.81884766 C76.9834919 329.39992285 74.93387255 335.77402744 72.5625 342.15234375 C72.04683472 343.54996948 72.04683472 343.54996948 71.52075195 344.97583008 C70.80047441 346.92278688 70.07771308 348.8688265 69.35253906 350.81396484 C68.24365544 353.7943965 67.14889479 356.77977875 66.0546875 359.765625 C65.34980777 361.66567992 64.64410808 363.5654309 63.9375 365.46484375 C63.61241455 366.3554248 63.2873291 367.24600586 62.95239258 368.16357422 C62.64197021 368.98873535 62.33154785 369.81389648 62.01171875 370.6640625 C61.608927 371.75013794 61.608927 371.75013794 61.19799805 372.8581543 C60.13391871 375.01234633 59.13533913 376.28858681 57.25 377.77734375 C53.75 378.21484375 53.75 378.21484375 50.25 377.77734375 C47.35182909 374.78599211 46.35808811 371.53649303 45.18798828 367.59570312 C44.80932114 366.33513596 44.43065399 365.07456879 44.04051208 363.77580261 C43.6336157 362.3909476 43.22688747 361.00604316 42.8203125 359.62109375 C42.38943018 358.17563478 41.95782 356.73039261 41.52552795 355.28535461 C40.37074548 351.41766165 39.22616787 347.54701945 38.08373642 343.67566299 C36.90416852 339.68407979 35.71589694 335.69508951 34.52856445 331.70581055 C32.64006336 325.3566525 30.75716328 319.00585985 28.87841797 312.65380859 C26.5896926 304.91627432 24.28402014 297.18392973 21.97265625 289.453125 C21.07127545 286.43104239 20.17065653 283.4087348 19.27069092 280.38623047 C18.7172251 278.52866766 18.16274825 276.67140579 17.60723877 274.81445312 C16.85261209 272.2889377 16.10322157 269.76193267 15.35546875 267.234375 C15.13778336 266.50962479 14.92009796 265.78487457 14.69581604 265.03816223 C13.85318944 262.1723537 13.25 259.78323423 13.25 256.77734375 C12.59 256.77734375 11.93 256.77734375 11.25 256.77734375 C11.15375336 257.3341684 11.05750671 257.89099304 10.95834351 258.46469116 C9.53601574 266.14062149 7.35871898 273.53895855 5.1015625 281.00390625 C4.68797784 282.38406028 4.27480503 283.76433778 3.86201477 285.14472961 C2.76447536 288.81079747 1.66139894 292.47517514 0.55686569 296.13914108 C-0.58368014 299.92476398 -1.72026377 303.71157611 -2.85717773 307.49829102 C-4.21640548 312.02479898 -5.5760641 316.55117479 -6.93803406 321.07685852 C-9.53064453 329.69462868 -12.09867786 338.31908948 -14.63671875 346.953125 C-15.44729997 349.69966427 -16.25847833 352.44602635 -17.06988525 355.19232178 C-17.56155894 356.86244439 -18.0504907 358.53337687 -18.53656006 360.20513916 C-19.195393 362.46973683 -19.86405375 364.73120133 -20.53515625 366.9921875 C-21.07474976 368.83478149 -21.07474976 368.83478149 -21.62524414 370.71459961 C-22.69235155 373.62036529 -23.58266409 375.57853409 -25.75 377.77734375 C-31.77343873 378.53027359 -31.77343873 378.53027359 -34.34518433 376.54745483 C-36.00875851 374.45130005 -36.80845369 372.5323273 -37.72705078 370.01806641 C-38.08397003 369.05341461 -38.44088928 368.08876282 -38.80862427 367.09487915 C-39.18373138 366.05423309 -39.5588385 365.01358704 -39.9453125 363.94140625 C-40.33822479 362.86990326 -40.73113708 361.79840027 -41.13595581 360.69442749 C-41.96518738 358.42793267 -42.79037322 356.15995417 -43.61181641 353.890625 C-44.86870205 350.41973555 -46.1383155 346.95371494 -47.41015625 343.48828125 C-48.21429676 341.28543175 -49.01770657 339.08231534 -49.8203125 336.87890625 C-50.38904587 335.32400986 -50.38904587 335.32400986 -50.9692688 333.73770142 C-51.31988373 332.7667453 -51.67049866 331.79578918 -52.03173828 330.79541016 C-52.34023712 329.94508209 -52.64873596 329.09475403 -52.96658325 328.21865845 C-53.75757882 325.75372633 -54.29279008 323.32346812 -54.75 320.77734375 C-60.41543003 323.80786363 -65.29895127 327.39876921 -70.3125 331.40234375 C-76.96275057 336.64460305 -83.68101899 341.72803698 -90.625 346.57421875 C-92.65304712 348.00399197 -94.65541975 349.47117084 -96.625 350.98046875 C-97.924375 351.96273437 -97.924375 351.96273437 -99.25 352.96484375 C-99.9821875 353.53589844 -100.714375 354.10695313 -101.46875 354.6953125 C-104.67712666 356.21709389 -106.41968926 355.90982845 -109.75 354.77734375 C-112.10028817 351.91044791 -112.81891783 350.48945623 -112.45800781 346.76025391 C-111.96059082 344.99367432 -111.96059082 344.99367432 -111.453125 343.19140625 C-111.26590881 342.51018707 -111.07869263 341.8289679 -110.88580322 341.12710571 C-110.1991986 338.66923946 -109.47658269 336.22368539 -108.75 333.77734375 C-108.46777588 332.81195679 -108.18555176 331.84656982 -107.89477539 330.85192871 C-105.66970231 323.2503368 -103.38369758 315.66771367 -101.08608246 308.08778381 C-99.48257573 302.79246892 -97.88884822 297.49419388 -96.2931633 292.19651794 C-95.67780631 290.15391185 -95.06201403 288.11143732 -94.44619751 286.06896973 C-90.12644703 271.73537766 -85.87118711 257.38288547 -81.625 243.02734375 C-81.09827698 241.24731964 -81.09827698 241.24731964 -80.56091309 239.43133545 C-78.62250452 232.8804294 -76.68532794 226.32916057 -74.75 219.77734375 C-76.00482178 219.63111572 -77.25964355 219.4848877 -78.55249023 219.33422852 C-86.1711955 218.44639866 -93.48410196 215.68312218 -98.8125 210.02734375 C-106.36967184 200.14772398 -105.16767166 189.38983519 -104.125 177.58984375 C-103.43542731 168.08209915 -104.52965109 162.53638648 -110.6796875 155.1640625 C-111.36289063 154.37644531 -112.04609375 153.58882812 -112.75 152.77734375 C-127.57336664 135.33368503 -127.57336664 135.33368503 -126.75 122.77734375 C-125.27613499 115.38097529 -121.56844829 110.41671286 -116.75 104.77734375 C-115.42545928 103.20993655 -114.10405599 101.63998895 -112.78540039 100.06762695 C-111.49318813 98.53106229 -110.19018395 97.00359294 -108.88671875 95.4765625 C-102.89528435 87.90785834 -103.68330956 80.33561762 -104.48046875 71.15234375 C-105.33057204 60.50757212 -105.53727215 51.3187532 -98.8125 42.52734375 C-91.47791369 34.85867691 -80.41043934 32.94703372 -70.42480469 30.65161133 C-63.40136255 28.96420823 -58.39826948 26.39953721 -54.3125 20.21484375 C-53.72855469 19.3434375 -53.14460938 18.47203125 -52.54296875 17.57421875 C-50.71266473 14.71910399 -48.91823342 11.84335292 -47.125 8.96484375 C-34.97069157 -10.29756469 -19.10612562 -8.49462687 0 0 Z M-32.75 9.77734375 C-35.81134708 14.23707215 -38.55146187 18.88900033 -41.31445312 23.53710938 C-47.0974692 32.97524722 -53.13293548 39.55218213 -64.16845703 42.40185547 C-67.80106305 43.25457674 -71.44663904 44.03463303 -75.09960938 44.79492188 C-81.26148318 46.16373496 -85.8311306 47.85718129 -90.40332031 52.43139648 C-92.29633957 55.72907995 -92.01046585 58.72354764 -91.83203125 62.40234375 C-91.79404079 63.92966584 -91.75696183 65.45701082 -91.72070312 66.984375 C-91.6468466 69.36972146 -91.56349892 71.7538412 -91.4621582 74.13818359 C-90.92543684 87.63087963 -93.0722047 97.10149909 -102.34765625 107.515625 C-103.10369141 108.32580078 -103.10369141 108.32580078 -103.875 109.15234375 C-110.86736905 116.44294113 -110.86736905 116.44294113 -114.3125 125.65234375 C-113.78875714 133.83197496 -107.24387785 139.80165307 -101.9362793 145.5065918 C-92.28789392 156.3277091 -90.953881 166.38245912 -91.5625 180.21484375 C-91.6458182 182.50790547 -91.71978268 184.80036422 -91.77604675 187.09425354 C-91.81237482 188.5083154 -91.86474359 189.92209054 -91.93598938 191.33482361 C-92.06987464 195.71910999 -91.41496105 198.2876449 -88.75 201.77734375 C-83.80725353 205.9707305 -78.73716022 206.91467107 -72.5625 208.15234375 C-59.83411474 210.96138183 -50.8743412 214.77519333 -43.3996582 225.76220703 C-42.11239073 227.7927226 -40.86077646 229.84011742 -39.625 231.90234375 C-34.76850664 240.28708002 -34.76850664 240.28708002 -27.75 246.77734375 C-20.36205057 247.63815686 -14.7428655 245.17012933 -8 242.33984375 C-5.96432191 241.50590536 -3.92789283 240.67379719 -1.890625 239.84375 C-0.99891602 239.47193604 -0.10720703 239.10012207 0.81152344 238.71704102 C11.86359082 234.45798942 20.82569706 237.75846172 31.29882812 241.99902344 C34.13145519 243.12895526 36.9930059 244.15583335 39.875 245.15234375 C40.77476562 245.46945312 41.67453125 245.7865625 42.6015625 246.11328125 C47.03035886 247.22374641 49.97921029 247.3486935 54.1953125 245.453125 C59.57733291 241.4700097 62.53278051 234.66446085 65.86328125 229.01757812 C73.35751142 216.69132205 81.1607072 212.00160157 94.96875 208.6015625 C95.80688232 208.39225098 96.64501465 208.18293945 97.50854492 207.96728516 C99.17638228 207.5575402 100.84843685 207.16449839 102.5246582 206.79052734 C107.98708066 205.47261312 111.2833391 203.80627562 115.25 199.77734375 C116.43150931 196.23281583 116.26430504 193.14244748 116.13671875 189.46875 C116.10453875 187.98375738 116.07399517 186.49872857 116.04492188 185.01367188 C115.995969 182.68950614 115.93851869 180.36728989 115.85229492 178.04418945 C115.42244194 165.95506135 116.97506976 157.62596151 124.59375 147.734375 C125.3053125 147.02667969 126.016875 146.31898438 126.75 145.58984375 C132.66466942 139.40541745 138.69118636 132.80129396 138.5625 123.88574219 C138.04104389 120.36754296 136.00549892 118.00452877 133.75 115.40234375 C133.29802246 114.84708008 132.84604492 114.29181641 132.38037109 113.71972656 C131.02190658 112.05593007 129.64040787 110.41448581 128.25 108.77734375 C126.78434917 107.03346768 125.32524346 105.28405375 123.875 103.52734375 C122.96621094 102.46773437 122.96621094 102.46773437 122.0390625 101.38671875 C115.07872596 91.23496153 115.93931713 81.52302405 116.4074707 69.68920898 C116.49217807 67.36059159 116.54601061 65.03267473 116.59765625 62.703125 C116.63601089 61.99674393 116.67436554 61.29036285 116.71388245 60.56257629 C116.78949208 56.74338739 116.28642599 54.33267707 113.95117188 51.38037109 C110.78345016 48.32774556 107.84096237 47.1782107 103.6875 46.08984375 C102.98294678 45.88544678 102.27839355 45.6810498 101.55249023 45.47045898 C97.33766151 44.26710938 93.09232633 43.28602643 88.8125 42.33984375 C75.8403648 39.15833092 69.67616657 29.90133823 63.0625 19.02734375 C62.11310547 17.42632812 62.11310547 17.42632812 61.14453125 15.79296875 C57.32995275 9.46817057 57.32995275 9.46817057 51.25 5.77734375 C44.19835806 4.99062996 38.47834546 7.64920092 32 10.21484375 C29.84899052 11.0469582 27.69795028 11.87899316 25.546875 12.7109375 C24.60166992 13.08275146 23.65646484 13.45456543 22.68261719 13.83764648 C11.63340745 18.10585286 1.85167428 14.56481839 -8.63671875 10.17578125 C-9.61777588 9.76706787 -9.61777588 9.76706787 -10.61865234 9.35009766 C-12.46811252 8.56729424 -14.30668499 7.75891329 -16.14453125 6.94921875 C-22.61780762 4.8452286 -27.85618172 4.37917061 -32.75 9.77734375 Z " fill="#353433" transform="translate(243.75,70.22265625)"/>
<path d="M0 0 C1.71292236 0.01353516 1.71292236 0.01353516 3.46044922 0.02734375 C23.85003711 0.44292771 41.2931329 7.60853805 56.3125 21.4375 C56.94285156 21.97632813 57.57320312 22.51515625 58.22265625 23.0703125 C70.87340222 34.53955372 80.14650772 54.2398293 81.52832031 71.06542969 C82.04752155 81.78189271 81.96546856 92.24146325 78.3125 102.4375 C77.96058594 103.48808594 77.60867188 104.53867188 77.24609375 105.62109375 C69.77292876 126.56075406 55.6778368 142.95803827 35.59643555 152.70214844 C16.82265757 161.32189715 -6.39371752 163.17732643 -25.9921875 155.984375 C-36.00014082 151.92695567 -44.6186697 146.60206484 -52.6875 139.4375 C-53.71617187 138.54998047 -53.71617187 138.54998047 -54.765625 137.64453125 C-69.00736304 124.49615499 -77.99726284 104.27580387 -79.07421875 85.046875 C-79.84143876 60.64589694 -71.19143966 39.67093613 -54.5625 21.8125 C-39.89203177 7.72279041 -20.2565375 -0.19248974 0 0 Z " fill="#EA9822" transform="translate(254.6875,116.5625)"/>
<path d="M0 0 C1.71292236 0.01353516 1.71292236 0.01353516 3.46044922 0.02734375 C23.85003711 0.44292771 41.2931329 7.60853805 56.3125 21.4375 C56.94285156 21.97632813 57.57320312 22.51515625 58.22265625 23.0703125 C70.87340222 34.53955372 80.14650772 54.2398293 81.52832031 71.06542969 C82.04752155 81.78189271 81.96546856 92.24146325 78.3125 102.4375 C77.96058594 103.48808594 77.60867188 104.53867188 77.24609375 105.62109375 C69.77292876 126.56075406 55.6778368 142.95803827 35.59643555 152.70214844 C16.82265757 161.32189715 -6.39371752 163.17732643 -25.9921875 155.984375 C-36.00014082 151.92695567 -44.6186697 146.60206484 -52.6875 139.4375 C-53.71617187 138.54998047 -53.71617187 138.54998047 -54.765625 137.64453125 C-69.00736304 124.49615499 -77.99726284 104.27580387 -79.07421875 85.046875 C-79.84143876 60.64589694 -71.19143966 39.67093613 -54.5625 21.8125 C-39.89203177 7.72279041 -20.2565375 -0.19248974 0 0 Z M-50.6875 35.4375 C-63.03241268 50.35992192 -67.9247416 67.33523961 -66.6875 86.4375 C-64.74947423 105.41597187 -55.44145895 120.58061424 -41.69140625 133.28125 C-29.56937211 143.08315288 -14.97239569 147.99229396 0.4375 147.75 C1.47003906 147.75322266 2.50257813 147.75644531 3.56640625 147.75976562 C21.23566963 147.63596824 37.34111736 140.21669272 50.125 128.125 C57.74445012 120.07841976 62.55524297 110.7871604 66.3125 100.4375 C66.63347656 99.6125 66.95445312 98.7875 67.28515625 97.9375 C72.62448702 82.04367817 69.6706461 65.1842049 62.890625 50.3203125 C59.71611134 44.15902524 55.82281222 38.68786345 51.3125 33.4375 C50.80332031 32.83292969 50.29414063 32.22835937 49.76953125 31.60546875 C39.97004163 20.88652085 24.33451638 13.18909795 9.83276367 12.2824707 C-14.74515166 11.25370666 -33.48201761 17.38421123 -50.6875 35.4375 Z " fill="#373533" transform="translate(254.6875,116.5625)"/>
<path d="M0 0 C5.07574979 0.86358006 7.04940545 4.03475153 10 8 C12.23099108 11.32733124 14.25968985 14.76795915 16.29882812 18.21484375 C20.42840143 25.03875162 25.52073162 30.83865976 33 34 C40.79721118 35.7016715 47.51373472 33.04498341 54.60546875 30.04760742 C59.7183929 27.90613097 59.7183929 27.90613097 63 29 C62.82460693 29.56581787 62.64921387 30.13163574 62.46850586 30.71459961 C59.01207509 41.89453522 55.663227 53.09085575 52.5625 64.375 C49.87727968 74.12361682 46.90325534 83.75330536 43.77856445 93.36938477 C41.66852687 99.86958655 39.70289561 106.3795234 37.875 112.96484375 C36.41454887 118.0307836 34.71616196 123.01582749 33 128 C31.30927685 125.46391527 30.35165129 123.53903311 29.32006836 120.72802734 C29.00311508 119.87058929 28.6861618 119.01315125 28.35960388 118.12973022 C28.02308304 117.20777863 27.68656219 116.28582703 27.33984375 115.3359375 C26.9899086 114.38812408 26.63997345 113.44031067 26.2794342 112.46377563 C25.161753 109.43553295 24.0491917 106.40544614 22.9375 103.375 C21.82183958 100.33756476 20.70504268 97.3005694 19.58485413 94.26480103 C18.88763659 92.37500499 18.19310477 90.48421562 17.50144958 88.59237671 C17.18764847 87.74124298 16.87384735 86.89010925 16.55053711 86.01318359 C16.27455185 85.26056244 15.99856659 84.50794128 15.71421814 83.73251343 C15.13101494 82.00293588 15.13101494 82.00293588 14 81 C10.1761848 80.32371353 8.0995538 80.36598309 4.69921875 82.32666016 C2.06543126 84.24791782 -0.47196967 86.2540664 -3 88.3125 C-4.86117956 89.77966076 -6.72316444 91.24580046 -8.5859375 92.7109375 C-9.49956055 93.43764648 -10.41318359 94.16435547 -11.35449219 94.91308594 C-15.05521235 97.83240634 -18.8246726 100.64973474 -22.625 103.4375 C-23.53765625 104.11776245 -23.53765625 104.11776245 -24.46875 104.81176758 C-26.97725777 106.65666234 -29.02322979 108.00774326 -32 109 C-30.37025492 101.83769927 -28.37273853 94.86338466 -26.125 87.875 C-24.14728936 81.71739092 -22.26644348 75.55158715 -20.5625 69.3125 C-16.44314784 54.25143444 -12.18311761 39.24377775 -7.125 24.46875 C-5.50589001 19.47649419 -4.19177076 14.42391859 -2.89453125 9.33984375 C-2.04727216 6.17649649 -1.06918262 3.09450653 0 0 Z " fill="#FC715B" transform="translate(181,294)"/>
<path d="M0 0 C5.44156447 17.83435134 10.86247782 35.67412857 16.10595703 53.56787109 C17.71515351 59.0519614 19.3541733 64.52680306 21 70 C22.00076398 73.33310447 23.00061156 76.66648285 24 80 C24.23251465 80.77472656 24.4650293 81.54945313 24.70458984 82.34765625 C27.35155364 91.18476373 29.87176681 100.01989412 32 109 C28.99366359 107.60168437 26.46434387 105.9567261 23.83203125 103.9453125 C22.62752319 103.03072266 22.62752319 103.03072266 21.39868164 102.09765625 C20.5452417 101.44667969 19.69180176 100.79570312 18.8125 100.125 C15.21172227 97.41215292 11.60572671 94.70626466 8 92 C7.16919922 91.37448242 6.33839844 90.74896484 5.48242188 90.10449219 C3.18741302 88.38649815 0.87792409 86.69033397 -1.4375 85 C-2.12803467 84.47809082 -2.81856934 83.95618164 -3.5300293 83.41845703 C-6.33077122 81.39780503 -8.2700595 80.100537 -11.72265625 79.625 C-17.3493161 83.02222859 -19.26980964 93.19198546 -21.453125 99.19140625 C-21.91075226 100.43747902 -21.91075226 100.43747902 -22.37762451 101.70872498 C-23.33795278 104.32560872 -24.29404883 106.94401456 -25.25 109.5625 C-25.90596898 111.35231656 -26.56221652 113.14203106 -27.21875 114.93164062 C-28.81571797 119.28658885 -30.40889602 123.6429061 -32 128 C-34.92584161 125.07415839 -35.51218393 121.44852436 -36.625 117.5625 C-37.16014294 115.73567318 -37.69529994 113.90885049 -38.23046875 112.08203125 C-38.51583496 111.09928223 -38.80120117 110.1165332 -39.09521484 109.10400391 C-40.02816994 105.90335871 -40.97490945 102.70708474 -41.92578125 99.51171875 C-44.60604942 90.50473297 -47.28371515 81.49729311 -49.890625 72.46875 C-53.61081863 59.54419572 -53.61081863 59.54419572 -57.75 46.75 C-59.86422645 40.57478413 -61.54311938 34.36052757 -63 28 C-58.97982689 28.64530454 -55.60572196 29.95379802 -51.875 31.5625 C-45.02873565 34.22364682 -38.86047513 35.56199884 -31.71484375 33.265625 C-20.66001787 28.22379787 -14.74888969 16.38839697 -8.67578125 6.4453125 C-4.25878594 0 -4.25878594 0 0 0 Z " fill="#FD715B" transform="translate(331,294)"/>
<path d="M0 0 C3.5 1 3.5 1 4.92578125 2.92578125 C7.15744019 7.28388444 9.18768055 11.7190039 11.1875 16.1875 C11.60322266 17.10208984 12.01894531 18.01667969 12.44726562 18.95898438 C12.83978516 19.83232422 13.23230469 20.70566406 13.63671875 21.60546875 C13.99467529 22.40106201 14.35263184 23.19665527 14.72143555 24.01635742 C15.5 26 15.5 26 15.5 28 C17.43939453 27.97292969 17.43939453 27.97292969 19.41796875 27.9453125 C24.26304849 27.94720993 29.00138005 28.33187441 33.8125 28.875 C34.9890918 28.99294922 34.9890918 28.99294922 36.18945312 29.11328125 C44.28546548 30.00748822 44.28546548 30.00748822 46.5 32 C47.55859375 35.28125 47.55859375 35.28125 47.5 39 C45.47265625 41.84375 45.47265625 41.84375 42.5625 44.5 C42.06121582 44.96776855 41.55993164 45.43553711 41.04345703 45.91748047 C39.54845726 47.30191603 38.02949632 48.65388069 36.5 50 C35.68144531 50.73476562 34.86289062 51.46953125 34.01953125 52.2265625 C32.1971181 53.83984627 30.35410896 55.42351163 28.5 57 C27.15711089 58.12220804 27.15711089 58.12220804 27.3125 61.02734375 C27.52062084 65.43690404 28.38188034 69.3128898 29.5 73.5625 C30.77689179 78.44143452 31.93976111 82.90483681 31.5 88 C29.875 90.4375 29.875 90.4375 27.5 92 C23.15692573 91.65140328 20.19176538 90.51232599 16.53125 88.20703125 C15.17966797 87.3862207 15.17966797 87.3862207 13.80078125 86.54882812 C11.92832661 85.38801071 10.06113093 84.21866858 8.19921875 83.04101562 C3.16715859 79.82592551 3.16715859 79.82592551 -2.55859375 79.28515625 C-3.52925781 79.85105469 -4.49992187 80.41695313 -5.5 81 C-6.2110791 81.40226807 -6.9221582 81.80453613 -7.65478516 82.21899414 C-11.01046606 84.1427865 -14.30624193 86.15925215 -17.59960938 88.1875 C-18.41365234 88.67476563 -19.22769531 89.16203125 -20.06640625 89.6640625 C-20.79802979 90.11217285 -21.52965332 90.5602832 -22.28344727 91.02197266 C-24.89087338 92.1724682 -26.67815388 92.30367793 -29.5 92 C-31.74579561 89.91806072 -32.44810527 88.68591299 -32.6796875 85.625 C-32.08981053 80.54298301 -31.23798191 75.70303158 -29.9375 70.75 C-28.16950328 64.43857311 -28.16950328 64.43857311 -28.5 58 C-30.8517759 54.96152984 -33.59918792 52.50614377 -36.5 50 C-37.21671875 49.36578125 -37.9334375 48.7315625 -38.671875 48.078125 C-41.42735578 45.65413063 -44.16875288 43.25853434 -47.0625 41 C-48.5 39 -48.5 39 -48.4375 35.375 C-47.5 32 -47.5 32 -44.5 30 C-41.58911133 29.58935547 -41.58911133 29.58935547 -38.08203125 29.3671875 C-36.82841797 29.28339844 -35.57480469 29.19960937 -34.28320312 29.11328125 C-32.97287109 29.03464844 -31.66253906 28.95601562 -30.3125 28.875 C-28.9771604 28.78857759 -27.64187283 28.70134732 -26.30664062 28.61328125 C-23.03818578 28.40089068 -19.76942433 28.1968046 -16.5 28 C-16.32404297 27.44747559 -16.14808594 26.89495117 -15.96679688 26.32568359 C-14.22614196 20.96851131 -12.25879056 15.78372255 -10 10.625 C-9.70480469 9.92761719 -9.40960938 9.23023438 -9.10546875 8.51171875 C-5.39690799 0 -5.39690799 0 0 0 Z " fill="#363533" transform="translate(256.5,148)"/>
<path d="M0 0 C0.66 0 1.32 0 2 0 C2.55429687 1.14339844 3.10859375 2.28679687 3.6796875 3.46484375 C4.41114152 4.95588463 5.14292967 6.44676162 5.875 7.9375 C6.23980469 8.69224609 6.60460937 9.44699219 6.98046875 10.22460938 C7.33496094 10.94326172 7.68945312 11.66191406 8.0546875 12.40234375 C8.54171143 13.39995728 8.54171143 13.39995728 9.03857422 14.41772461 C9.91752268 16.18049244 9.91752268 16.18049244 12 17 C15.30894459 17.27758124 18.61770071 17.44696305 21.93359375 17.62109375 C25 18 25 18 28 20 C26.75323147 21.27400377 25.5024352 22.54406654 24.25 23.8125 C23.55390625 24.52019531 22.8578125 25.22789062 22.140625 25.95703125 C20 28 20 28 17.7578125 29.51171875 C15.84604126 30.83516696 15.84604126 30.83516696 15.5390625 32.875 C15.78843098 39.04120247 16.73583097 44.96133541 18 51 C13.37267711 49.7274862 9.97097186 47.79574221 6.125 45.0234375 C3.14476382 43.58810316 1.2897409 43.59178398 -2 44 C-4.6062983 45.1043035 -6.97019378 46.51394021 -9.375 48 C-10.33599609 48.57234375 -10.33599609 48.57234375 -11.31640625 49.15625 C-12.88462755 50.09250152 -14.44332645 51.04467157 -16 52 C-15.15020862 43.70097357 -15.15020862 43.70097357 -14.4375 40.375 C-13.8217798 37.03251892 -13.63160018 34.4085925 -14 31 C-15.67509283 28.62184004 -17.75388414 26.89126325 -20 25.0625 C-20.57234375 24.56943359 -21.1446875 24.07636719 -21.734375 23.56835938 C-23.14104744 22.36096553 -24.56857524 21.17794329 -26 20 C-21.81189528 17.20793018 -18.07024516 17.61567418 -13.12890625 17.44140625 C-9.64034044 16.94926151 -8.39267924 16.55427631 -6 14 C-4.77935512 11.59510561 -3.73109526 9.30778565 -2.75 6.8125 C-2.481875 6.15830078 -2.21375 5.50410156 -1.9375 4.83007812 C-1.28113105 3.22431838 -0.63911656 1.61270412 0 0 Z " fill="#FAC85A" transform="translate(255,170)"/>
</svg>
