<?xml version="1.0" encoding="UTF-8"?>
<svg version="1.1" xmlns="http://www.w3.org/2000/svg" width="217" height="232">
<path d="M0 0 C71.61 0 143.22 0 217 0 C217 76.56 217 153.12 217 232 C145.39 232 73.78 232 0 232 C0 155.44 0 78.88 0 0 Z " fill="#FEFEFE" transform="translate(0,0)"/>
<path d="M0 0 C1.44947021 0.01740234 1.44947021 0.01740234 2.92822266 0.03515625 C19.84601825 0.42100569 35.79309503 6.00500718 48.015625 18.04296875 C49.09070313 19.19732422 49.09070313 19.19732422 50.1875 20.375 C51.26257813 21.51388672 51.26257813 21.51388672 52.359375 22.67578125 C64.59994064 36.73402487 66.04408903 52.38532844 65.40966797 70.328125 C64.21476656 86.71534435 53.45040906 100.48634333 44.05859375 113.29296875 C42.25630796 115.77551492 40.83366764 118.05700216 39.41015625 120.80078125 C37.22491851 124.83465531 35.46673307 127.66545973 30.91162109 129.08349609 C25.23576405 130.26845022 19.51300036 130.7629061 13.73681641 131.17626953 C10.68705519 131.41401188 7.70201443 131.85993727 4.6875 132.375 C-4.78824596 133.87183805 -14.3052055 135.0974613 -23.8125 136.375 C-24.2971875 135.34761719 -24.781875 134.32023438 -25.28125 133.26171875 C-29.87090307 123.70533929 -34.87245148 115.13517376 -41.8125 107.04296875 C-55.80677637 90.56142841 -60.23303494 72.64392675 -58.8125 51.375 C-56.8316445 35.24262726 -47.72086528 21.70918999 -35.375 11.5625 C-24.6970146 3.68377813 -13.23777245 -0.20520063 0 0 Z " fill="#F4BB2B" transform="translate(105.8125,43.625)"/>
<path d="M0 0 C2.76223278 2.76223278 2.57856291 5.20706617 3 9 C6.98859302 9.88610806 6.98859302 9.88610806 11 10 C13.56034753 7.71924815 13.56034753 7.71924815 15 5 C20.44208234 5.34013015 23.93668198 8.70296528 28 12 C27.38722388 14.96175123 26.74627478 16.38058783 25 19 C25.26259783 21.48051222 25.26259783 21.48051222 26 24 C26.185625 24.763125 26.37125 25.52625 26.5625 26.3125 C26.706875 26.869375 26.85125 27.42625 27 28 C27.99 27.505 27.99 27.505 29 27 C31.3329866 26.95977609 33.66706666 26.95679753 36 27 C38.38864199 31.87681074 39.65423391 35.43901174 39 41 C35.81237635 43.12508244 33.73487777 43.5020163 30 44 C29.11389194 47.98859302 29.11389194 47.98859302 29 52 C31.28075185 54.56034753 31.28075185 54.56034753 34 56 C33.5580612 60.86132679 31.41411471 64.58588529 28 68 C25.4375 68.625 25.4375 68.625 23 68 C22.34 67.46375 21.68 66.9275 21 66.375 C20.34 65.92125 19.68 65.4675 19 65 C16.34754398 65.66096786 16.34754398 65.66096786 14 67 C13.01 67.495 13.01 67.495 12 68 C12 70.97 12 73.94 12 77 C7.63497158 79.04610707 3.78474517 79.76848007 -1 80 C-3 79 -3 79 -4 77 C-4.1875 73.3125 -4.1875 73.3125 -4 70 C-10.523713 69.33351253 -10.523713 69.33351253 -16.0625 72.5 C-17.0215625 73.7375 -17.0215625 73.7375 -18 75 C-22.10958767 73.54955729 -25.43258745 71.48889248 -29 69 C-28.23923445 62.40669856 -28.23923445 62.40669856 -26.75 59.875 C-25.71932032 57.87415496 -25.71932032 57.87415496 -26.875 55.25 C-28.70282516 52.8188176 -28.70282516 52.8188176 -30.8828125 52.82421875 C-32.99613135 52.90893797 -32.99613135 52.90893797 -35.0625 53.21484375 C-37 53 -37 53 -38.69921875 51.32421875 C-40.15665511 48.72009073 -40.5516976 46.8366544 -40.8125 43.875 C-40.90144531 43.00617188 -40.99039063 42.13734375 -41.08203125 41.2421875 C-41 39 -41 39 -39 37 C-36.34462628 36.43479997 -33.70855287 36.26211802 -31 36 C-30.65353874 31.9696972 -30.65353874 31.9696972 -31 28 C-33.33830958 25.4595774 -33.33830958 25.4595774 -36 24 C-35.54300722 18.97307937 -33.00758252 15.85103739 -30 12 C-23.31460674 12.917603 -23.31460674 12.917603 -20.375 13.6875 C-17.39271569 14.07990583 -15.66973389 13.29672789 -13 12 C-13.33 9.03 -13.66 6.06 -14 3 C-9.70655788 0.13770525 -5.12494369 -0.42707864 0 0 Z " fill="#FEFDFB" transform="translate(110,64)"/>
<path d="M0 0 C3.96761661 1.73494346 7.03891709 3.97884941 10 7.125 C11.90369257 12.59811614 12.0280079 18.58418143 9.75 23.9375 C4.0014498 30.71257702 4.0014498 30.71257702 -1.48828125 31.23828125 C-5.99268441 31.35665422 -9.2626549 31.32175059 -13.4375 29.5 C-17.66108087 25.3794333 -19.62834486 21.31252088 -20.5625 15.5 C-19.70797065 10.18292849 -17.4853342 6.15355415 -13.390625 2.60546875 C-9.18174831 -0.12643975 -4.87297449 -1.07464837 0 0 Z " fill="#F4BB2D" transform="translate(113,88)"/>
<path d="M0 0 C0.02687279 1.81242052 0.04633715 3.62495233 0.0625 5.4375 C0.07410156 6.44683594 0.08570313 7.45617187 0.09765625 8.49609375 C0 11 0 11 -1 12 C-2.79379526 12.34680293 -4.59866543 12.63661508 -6.40625 12.90234375 C-7.53571045 13.06959961 -8.6651709 13.23685547 -9.82885742 13.40917969 C-11.04033447 13.58352539 -12.25181152 13.75787109 -13.5 13.9375 C-14.71985596 14.11571289 -15.93971191 14.29392578 -17.1965332 14.47753906 C-26.4475476 15.81385777 -35.70649439 17.00379912 -45 18 C-46.43668294 14.1389146 -47.11185208 11.103573 -47 7 C-42.9842586 6.32231944 -38.96812785 5.64699575 -34.95166016 4.97363281 C-33.5921826 4.74540169 -32.23280348 4.51658331 -30.87353516 4.28710938 C-5.4705318 0 -5.4705318 0 0 0 Z " fill="#5D566B" transform="translate(133,199)"/>
<path d="M0 0 C-0.33 3.3 -0.66 6.6 -1 10 C-7.03169194 10.85889649 -13.06400129 11.71326682 -19.09692383 12.56347656 C-21.14853159 12.85325259 -23.19996615 13.14425767 -25.2512207 13.43652344 C-28.2021879 13.85676289 -31.15375276 14.27255688 -34.10546875 14.6875 C-35.02023483 14.81874268 -35.93500092 14.94998535 -36.87748718 15.08520508 C-40.9462672 15.65319099 -44.87922937 16.17965213 -49 16 C-49.33 13.03 -49.66 10.06 -50 7 C-43.36182525 6.00030463 -36.72323097 5.00346108 -30.08422852 4.00927734 C-27.82499571 3.67054669 -25.5658803 3.33103209 -23.30688477 2.99072266 C-20.06296725 2.50217657 -16.81864031 2.01643595 -13.57421875 1.53125 C-12.56163498 1.37813354 -11.54905121 1.22501709 -10.50578308 1.06726074 C-9.09465996 0.85704285 -9.09465996 0.85704285 -7.6550293 0.64257812 C-6.82674118 0.51822388 -5.99845306 0.39386963 -5.14506531 0.26574707 C-3 0 -3 0 0 0 Z " fill="#5E576C" transform="translate(134,181)"/>
<path d="M0 0 C3.74561104 1.17917385 4.43948803 1.78297256 6.375 5.0625 C6.74731445 7.2890625 6.74731445 7.2890625 6.73828125 9.6875 C6.73763672 10.55890625 6.73699219 11.4303125 6.73632812 12.328125 C6.72021484 13.23046875 6.70410156 14.1328125 6.6875 15.0625 C6.69072266 15.96484375 6.69394531 16.8671875 6.69726562 17.796875 C6.635849 25.3455367 6.635849 25.3455367 4.375 29.0625 C1.81234514 30.98449114 0.54301051 31.07278636 -2.6875 30.875 C-5.79398789 30.01575867 -6.71063326 29.56242957 -8.625 27.0625 C-9.2864518 23.46989377 -9.1343868 19.83427177 -9.125 16.1875 C-9.15335937 15.19363281 -9.18171875 14.19976562 -9.2109375 13.17578125 C-9.22382431 8.36255778 -9.19902333 5.85737637 -6.3203125 1.87109375 C-3.625 0.0625 -3.625 0.0625 0 0 Z " fill="#070707" transform="translate(115.625,-0.0625)"/>
<path d="M0 0 C1.72089844 -0.05800781 1.72089844 -0.05800781 3.4765625 -0.1171875 C4.55550781 -0.15457031 5.63445312 -0.19195312 6.74609375 -0.23046875 C10.35822634 0.29660281 11.48419977 1.32162173 13.6640625 4.1953125 C14.1640625 7.1953125 14.1640625 7.1953125 13.6640625 10.1953125 C10.66780121 14.038498 8.23494599 14.83132753 3.4765625 15.4453125 C1.20891462 15.72272397 -1.06212302 15.97406209 -3.3359375 16.1953125 C-4.21894531 16.29199219 -5.10195312 16.38867188 -6.01171875 16.48828125 C-10.18458049 16.74777013 -11.87597572 16.49888727 -15.4609375 14.1328125 C-17.3359375 11.1953125 -17.3359375 11.1953125 -17.3984375 7.5703125 C-16.3359375 4.1953125 -16.3359375 4.1953125 -14.8359375 2.3203125 C-10.09528726 0.18701989 -5.10550698 0.29891727 0 0 Z " fill="#070707" transform="translate(203.3359375,93.8046875)"/>
<path d="M0 0 C10.28965784 -0.27935723 10.28965784 -0.27935723 14.765625 3.15625 C16.03953529 6.81874207 16.10052772 8.43860132 14.453125 11.96875 C12.765625 14.15625 12.765625 14.15625 10.765625 15.15625 C7.14763854 15.47588871 3.52099465 15.48050786 -0.109375 15.53125 C-1.11613281 15.56863281 -2.12289063 15.60601562 -3.16015625 15.64453125 C-10.5839256 15.73326156 -10.5839256 15.73326156 -13.8984375 12.79296875 C-15.39422985 9.84074701 -15.9002459 8.40237063 -15.234375 5.15625 C-13.06875997 1.90782745 -11.6220352 1.24083041 -7.796875 0.40625 C-5.20024126 0.21101438 -2.60111573 0.12565776 0 0 Z " fill="#050505" transform="translate(15.234375,100.84375)"/>
<path d="M0 0 C4.96988569 1.27432966 7.54358726 3.60901896 11.18359375 7.1015625 C11.81136719 7.6584375 12.43914063 8.2153125 13.0859375 8.7890625 C16.24046636 11.74600748 17.66509748 13.45976013 18.84765625 17.71875 C18.80859375 20.9765625 18.80859375 20.9765625 16.80859375 23.9765625 C13.80859375 25.9765625 13.80859375 25.9765625 10.5859375 26.015625 C5.51717099 24.62132108 2.96900116 22.05988188 -0.62890625 18.3515625 C-1.26505859 17.74699219 -1.90121094 17.14242187 -2.55664062 16.51953125 C-5.73565266 13.31661687 -7.08671264 11.76095921 -7.69921875 7.171875 C-7.19140625 3.9765625 -7.19140625 3.9765625 -5.62890625 1.4765625 C-3.19140625 -0.0234375 -3.19140625 -0.0234375 0 0 Z " fill="#040404" transform="translate(32.19140625,22.0234375)"/>
<path d="M0 0 C3 0.5 3 0.5 5.375 2.0625 C7.65986451 5.48979677 7.4415535 7.41047176 7 11.5 C5.63405482 14.53082608 3.84808083 17.16272447 1.9375 19.875 C1.47150391 20.59816406 1.00550781 21.32132813 0.52539062 22.06640625 C-2.03601458 25.78131502 -3.23068377 27.27588775 -7.6875 28.57421875 C-11 28.5 -11 28.5 -13.9375 26.9375 C-16 24.5 -16 24.5 -16.39453125 21.79296875 C-15.89113333 17.59134053 -14.0890199 14.78454312 -11.75 11.375 C-11.35425781 10.76785156 -10.95851562 10.16070312 -10.55078125 9.53515625 C-4.73969605 0.78994934 -4.73969605 0.78994934 0 0 Z " fill="#030303" transform="translate(183,25.5)"/>
<path d="M0 0 C-2.6050642 5.36336746 -6.44618565 8.50326906 -11.8828125 10.79296875 C-17.70069996 12.54775667 -24.34359631 12.69154838 -29.93359375 10.10546875 C-32.20766659 8.64940772 -33.78105754 7.43788493 -35 5 C-31.68863914 4.34823577 -28.37572755 3.70470172 -25.0625 3.0625 C-24.13630859 2.88009766 -23.21011719 2.69769531 -22.25585938 2.50976562 C-14.90112239 1.09043042 -7.51881912 -0.24254255 0 0 Z " fill="#60586D" transform="translate(129,220)"/>
</svg>
