<?xml version="1.0" encoding="UTF-8"?>
<svg version="1.1" xmlns="http://www.w3.org/2000/svg" width="512" height="512">
<path d="M0 0 C0.81178711 0.29777344 1.62357422 0.59554687 2.45996094 0.90234375 C4.37619432 1.61211056 6.2891891 2.33065336 8.19970703 3.05566406 C10.79593114 4.03774408 13.39509423 5.00791022 15.99951172 5.96777344 C20.00792388 7.44613708 24.00793095 8.94565646 28.00375366 10.45770264 C29.61325633 11.06433634 31.22475314 11.66570795 32.83828735 12.26153564 C52.10159721 19.39849535 52.10159721 19.39849535 57.5625 28.5 C57.93375 29.44875 58.305 30.3975 58.6875 31.375 C59.35332864 33.04200163 60.01986614 34.70872054 60.6875 36.375 C61.60112305 36.15360352 62.51474609 35.93220703 63.45605469 35.70410156 C89.07302343 29.5298537 114.27998123 24.07830815 140.75 23.9375 C141.75793106 23.92783203 141.75793106 23.92783203 142.78622437 23.91796875 C152.56573929 23.86014902 162.10681973 24.33129693 170.5625 29.6875 C171.59375 30.244375 172.625 30.80125 173.6875 31.375 C176.15219578 30.63978096 176.15219578 30.63978096 178.6875 29.375 C180.35324768 28.68527635 182.0199163 27.99777268 183.6875 27.3125 C184.5125 26.97089844 185.3375 26.62929687 186.1875 26.27734375 C216.75673395 15.24376087 258.59700431 29.08322909 288.6875 36.375 C288.89503906 35.818125 289.10257812 35.26125 289.31640625 34.6875 C292.25849153 27.39999169 296.15914858 20.70316275 303.55078125 17.30078125 C305.02511048 16.73949267 306.50908294 16.20311407 308 15.6875 C309.74609922 15.03647299 311.49219247 14.38542999 313.23828125 13.734375 C314.23037598 13.37408203 315.2224707 13.01378906 316.24462891 12.64257812 C320.31919346 11.14242643 324.3687717 9.58268751 328.41796875 8.015625 C334.46299659 5.68054869 340.50818273 3.34606274 346.5625 1.03515625 C347.22215256 0.78135193 347.88180511 0.52754761 348.56144714 0.26605225 C356.43664667 -2.73153671 364.56044877 -4.44935964 372.59611511 -0.86373901 C380.77901102 3.98303618 384.48853816 12.43519449 387.54296875 21.0078125 C387.96349518 22.13455887 388.38402161 23.26130524 388.81729126 24.42219543 C389.9530126 27.47506922 391.07092026 30.53374528 392.1814003 33.59586716 C393.35071698 36.80598143 394.54349506 40.00733812 395.73510742 43.20922852 C397.21730127 47.19556878 398.69773662 51.18251067 400.16859436 55.17304993 C403.63783427 64.58283863 407.17243694 73.96589617 410.7578125 83.33203125 C411.00193438 83.96981255 411.24605625 84.60759384 411.49757576 85.26470184 C412.69734603 88.39798867 413.89849168 91.53074407 415.10025024 94.66326904 C417.32773346 100.47045041 419.54904675 106.27998352 421.76953125 112.08984375 C422.15388336 113.0933638 422.53823547 114.09688385 422.93423462 115.1308136 C423.45949234 116.50453377 423.45949234 116.50453377 423.99536133 117.90600586 C424.45208977 119.09920692 424.45208977 119.09920692 424.91804504 120.31651306 C427.35558487 126.83754961 427.89065411 134.05052036 426.00390625 140.83203125 C421.73568481 150.0946031 413.48825289 153.04043124 404.5 156.5625 C403.3255835 157.03155762 402.15116699 157.50061523 400.94116211 157.98388672 C356.62430468 175.55755918 356.62430468 175.55755918 344.7109375 171.30859375 C342.13164907 170.11853596 340.44556444 168.59168994 338.6875 166.375 C335.87398214 167.66395717 333.7549293 169.03768505 331.515625 171.16796875 C330.9369165 171.71155029 330.35820801 172.25513184 329.76196289 172.81518555 C328.52708083 173.99784993 327.29455985 175.18298375 326.06420898 176.37036133 C322.77284756 179.52212318 319.60335687 182.10726376 315.75 184.5625 C313.63863849 186.33461526 312.77324856 187.50564843 312.50048828 190.27099609 C312.50660471 194.22483141 312.88645603 198.12492984 313.29296875 202.0546875 C314.24124181 211.2389968 311.11913078 218.02853164 305.6875 225.375 C301.32735454 230.24626299 295.91675789 233.41756222 289.6875 235.375 C288.3675 235.375 287.0475 235.375 285.6875 235.375 C285.501875 236.344375 285.31625 237.31375 285.125 238.3125 C282.66530154 246.6924382 276.57706646 251.99536009 269.21484375 256.18359375 C263.60662075 258.82734648 258.79800884 259.67201183 252.625 259.5625 C251.93083984 259.56185547 251.23667969 259.56121094 250.52148438 259.56054688 C246.79254911 259.52867563 243.31287712 259.25837649 239.6875 258.375 C239.26339844 258.95507812 238.83929688 259.53515625 238.40234375 260.1328125 C232.55108552 267.92591687 226.43268225 274.80661612 216.6875 277.375 C211.06697596 277.85929273 205.65107796 277.78838483 200.125 276.625 C196.41022078 276.35483424 194.95793508 276.95146062 191.5625 278.3125 C177.23736072 283.44657247 161.4195876 281.14478471 147.6875 275.375 C146.99172852 275.08560547 146.29595703 274.79621094 145.57910156 274.49804688 C121.40488027 264.22645623 100.44723355 247.36934075 81.2421875 229.71484375 C79.06052185 227.71665152 76.85738691 225.75351111 74.625 223.8125 C64.76775245 215.22715536 55.223301 206.31306225 45.6875 197.375 C44.3802497 196.15099748 43.07295812 194.92703906 41.765625 193.703125 C32.05711334 184.61055033 22.37020014 175.49504697 12.6875 166.375 C10.53003202 167.41129932 8.72654465 168.34268719 6.875 169.875 C1.91102865 173.27886607 -3.45101149 173.70803912 -9.3125 173.375 C-12.1334838 172.60220732 -14.76785187 171.76150713 -17.5 170.75 C-18.72904053 170.30660278 -18.72904053 170.30660278 -19.98291016 169.85424805 C-23.10083704 168.71520742 -26.20705005 167.54765434 -29.3125 166.375 C-30.00551208 166.11386414 -30.69852417 165.85272827 -31.41253662 165.5836792 C-36.19439922 163.78003623 -40.97015335 161.96104676 -45.7406311 160.12750244 C-47.36421589 159.50377729 -48.9885398 158.88197252 -50.61361694 158.262146 C-52.93036727 157.37648065 -55.24295446 156.48069905 -57.5546875 155.58203125 C-58.24777512 155.31861435 -58.94086273 155.05519745 -59.654953 154.78379822 C-65.29501616 152.57033833 -70.66403035 149.98659175 -74.125 144.8125 C-74.52332031 144.23371094 -74.92164062 143.65492188 -75.33203125 143.05859375 C-78.67510116 137.31810319 -78.36224321 129.65094877 -76.82141113 123.37463379 C-75.16613362 117.97129146 -73.03308078 112.7439727 -70.9375 107.5 C-70.26253997 105.76416473 -69.58974112 104.02748779 -68.91894531 102.29003906 C-67.4861431 98.58725227 -66.04164444 94.88932952 -64.58886719 91.19433594 C-62.25265606 85.24040836 -59.96918637 79.26702964 -57.6953125 73.2890625 C-53.58959119 62.50018008 -49.45358545 51.72324774 -45.30383301 40.95123291 C-44.37063983 38.52609125 -43.44009047 36.0999571 -42.51074219 33.67333984 C-40.99500526 29.71633581 -39.46761516 25.7639665 -37.9375 21.8125 C-37.30473145 20.15589355 -37.30473145 20.15589355 -36.65917969 18.46582031 C-33.20570071 9.61111162 -29.59719837 2.30785924 -20.5 -1.9375 C-13.14901324 -3.52300695 -6.95357651 -2.63452833 0 0 Z " fill="#020202" transform="translate(81.3125,227.625)"/>
<path d="M0 0 C8.0722787 6.05420903 13.91693184 15.40278146 15.96484375 25.32421875 C17.98469904 42.06411531 14.56544957 59.18864167 4.56640625 73.015625 C4.13199219 73.56734375 3.69757813 74.1190625 3.25 74.6875 C4.3121875 75.07421875 5.374375 75.4609375 6.46875 75.859375 C13.59054702 78.47619787 20.56382965 81.06582439 27.25 84.6875 C27.12625 83.635625 27.0025 82.58375 26.875 81.5 C27.25 77.6875 27.25 77.6875 29.8125 75.16796875 C33.14620811 72.59040492 36.75062025 70.80821826 40.625 69.1875 C41.31980469 68.89198242 42.01460937 68.59646484 42.73046875 68.29199219 C78.00880833 53.62446632 118.45229569 52.22913009 154.06835938 66.70068359 C171.40305411 73.99360822 171.40305411 73.99360822 173.25 77.6875 C173.29022391 80.0204866 173.29320247 82.35456666 173.25 84.6875 C174.22839844 84.21699219 175.20679688 83.74648437 176.21484375 83.26171875 C183.12815131 79.96777772 189.89261017 76.88180925 197.25 74.6875 C196.80269531 74.06746094 196.35539062 73.44742188 195.89453125 72.80859375 C186.14258559 58.52376076 181.82977895 41.42263987 184.86328125 24.20703125 C187.89733143 13.01980656 193.88524731 4.40891492 203.65625 -1.87890625 C216.51640341 -8.98685249 230.54379083 -10.18919559 244.94921875 -7.6640625 C256.72898158 -4.06084093 266.56353101 3.83110794 272.85546875 14.37890625 C278.33812453 26.1581695 278.14528702 41.37713601 274.6875 53.75 C271.84415669 61.48511675 267.81539128 68.83941308 263.25 75.6875 C264.44625 75.89375 265.6425 76.1 266.875 76.3125 C283.75787845 80.11447105 299.25346966 90.19080923 309.125 104.5 C316.08313725 117.51709492 315.84456033 130.28214889 315.71655273 144.72021484 C315.68728833 148.33867293 315.69603488 151.95569011 315.70898438 155.57421875 C315.702755 157.87500713 315.69437037 160.17579092 315.68359375 162.4765625 C315.68652939 163.55773346 315.68946503 164.63890442 315.69248962 165.75283813 C315.67980545 166.75173065 315.66712128 167.75062317 315.65405273 168.77978516 C315.64864975 169.65768707 315.64324677 170.53558899 315.63768005 171.44009399 C315.15060973 174.26367175 314.52954801 174.97524915 312.25 176.6875 C309.63195515 177.05664349 309.63195515 177.05664349 306.42243958 177.04826355 C305.2066774 177.05238754 303.99091522 177.05651154 302.73831177 177.0607605 C301.38909691 177.05014312 300.03988429 177.03923869 298.69067383 177.02807617 C297.27153033 177.02723006 295.85238553 177.02770474 294.4332428 177.02940369 C290.57805681 177.03026568 286.72314991 177.01260706 282.86802888 176.99168181 C278.84014943 176.97294896 274.81226383 176.97116726 270.78434753 176.96760559 C263.15578627 176.95827513 255.52735373 176.93364786 247.89884919 176.90355712 C239.21456156 176.87004421 230.53026783 176.85353494 221.84593165 176.83847082 C203.98054807 176.80709914 186.11528438 176.75431924 168.25 176.6875 C167.94908447 177.63133545 167.64816895 178.5751709 167.33813477 179.54760742 C162.08838368 194.69614876 144.63731788 206.13398765 130.84375 212.921875 C126.37973847 215.01786829 121.84045338 216.88830763 117.25 218.6875 C116.53602051 218.97592773 115.82204102 219.26435547 115.08642578 219.56152344 C105.69879336 223.27841001 98.93622191 224.44760373 89.25 220.6875 C88.01765625 220.27886719 86.7853125 219.87023437 85.515625 219.44921875 C71.45396131 214.68996621 58.30097289 207.67773379 47.25 197.6875 C46.45980469 196.97851562 45.66960937 196.26953125 44.85546875 195.5390625 C39.57441113 190.54701799 35.41807806 185.259709 32.25 178.6875 C32.25 178.0275 32.25 177.3675 32.25 176.6875 C31.51062793 176.69026538 30.77125586 176.69303076 30.00947857 176.69587994 C12.03288651 176.76208447 -5.94368127 176.8117536 -23.92036915 176.84293652 C-32.6137053 176.85841651 -41.30696016 176.87952758 -50.00024414 176.91381836 C-57.57582629 176.94368614 -65.15134958 176.96306676 -72.72698897 176.96976548 C-76.73959906 176.97368221 -80.75204074 176.98291038 -84.76459694 177.00469017 C-88.53941722 177.02501404 -92.3139993 177.03134219 -96.08886909 177.02682304 C-97.47603397 177.02765009 -98.8632066 177.03364029 -100.25032425 177.04511642 C-102.14097111 177.0599945 -104.03174505 177.05467698 -105.92243958 177.04826355 C-106.98157971 177.05102893 -108.04071985 177.05379431 -109.13195515 177.05664349 C-111.75 176.6875 -111.75 176.6875 -113.58957195 175.30736732 C-115.20218981 173.05627818 -115.14393392 171.45924913 -115.16992188 168.70385742 C-115.18583374 167.68817184 -115.20174561 166.67248627 -115.21813965 165.62602234 C-115.21834106 164.52611465 -115.21854248 163.42620697 -115.21875 162.29296875 C-115.22636353 161.15402664 -115.23397705 160.01508453 -115.24182129 158.84162903 C-115.25264209 156.42316885 -115.25546741 154.00466186 -115.25097656 151.58618164 C-115.2500137 147.92707318 -115.29141752 144.2701285 -115.3359375 140.61132812 C-115.42165325 123.98638789 -114.55632988 110.42779918 -102.75 97.6875 C-102.10417969 96.93984375 -101.45835938 96.1921875 -100.79296875 95.421875 C-90.45656639 84.14579969 -76.94820122 79.22542388 -62.75 74.6875 C-63.13671875 74.130625 -63.5234375 73.57375 -63.921875 73 C-74.26250817 57.84738902 -77.595509 43.01784385 -75.75 24.6875 C-73.38895576 13.32711323 -66.70370385 5.05614382 -57.4375 -1.6875 C-39.66754968 -12.37984617 -17.25629995 -11.06173073 0 0 Z " fill="#010101" transform="translate(155.75,12.3125)"/>
<path d="M0 0 C1.0003125 -0.00999023 2.000625 -0.01998047 3.03125 -0.03027344 C9.24829742 0.04394098 14.42673178 1.09409126 20.1875 3.4375 C20.1875 4.4275 20.1875 5.4175 20.1875 6.4375 C17.94921875 8.34765625 17.94921875 8.34765625 14.875 10.5 C9.47683351 14.37172168 4.61296641 18.53476997 -0.2421875 23.078125 C-2.04629633 24.73417626 -3.91285361 26.32349901 -5.8203125 27.859375 C-14.96558952 35.73911761 -25.0467401 49.62988286 -26.015625 62.0390625 C-26.16595053 71.73505924 -24.69173251 78.96766753 -18.5625 86.64453125 C-13.49177792 91.83975767 -7.76630259 94.52643943 -0.5222168 94.73095703 C17.63197555 94.89678757 32.82169212 86.63026807 47.73901367 76.87866211 C55.34678975 71.92072178 55.34678975 71.92072178 59.375 71.625 C77.56623171 75.50181987 95.19928529 93.9534145 107.7109375 106.98828125 C109.73539601 108.99038769 111.78737209 110.84649096 113.94140625 112.703125 C118.40485934 116.57322222 122.58538476 120.68777147 126.75 124.875 C127.46607422 125.58720703 128.18214844 126.29941406 128.91992188 127.03320312 C132.93933644 131.05993237 136.75317842 135.1928722 140.46606445 139.50219727 C143.90125111 143.3641636 147.66073046 146.91138956 151.37695312 150.5 C151.97056641 151.08265625 152.56417969 151.6653125 153.17578125 152.265625 C153.70727783 152.7802832 154.23877441 153.29494141 154.78637695 153.82519531 C158.85246427 158.504136 158.6070132 163.20588913 158.5 169.171875 C157.92486758 175.18200874 155.72934735 179.30770883 151.25 183.3125 C145.125 187.5625 145.125 187.5625 140.88671875 187.2890625 C137.31395738 186.16191058 135.16802928 184.00861582 132.5625 181.4375 C131.49842139 180.42333343 130.43196962 179.41165158 129.36328125 178.40234375 C128.56398193 177.64606689 128.56398193 177.64606689 127.74853516 176.87451172 C125.50175599 174.80623799 123.13639577 172.90422503 120.75 171 C115.97208662 167.15704521 111.49755016 163.06918671 107.02587891 158.88134766 C102.82068071 154.9653893 98.44675784 151.32442777 93.94921875 147.74609375 C91.90373408 146.03621901 89.991524 144.32301327 88.08203125 142.47265625 C87.29517944 141.71674194 87.29517944 141.71674194 86.49243164 140.94555664 C85.01976434 139.5172844 83.56402742 138.07161567 82.109375 136.625 C78.68113766 134.0584052 76.44064361 133.51889988 72.1875 133.4375 C69.9480522 135.30196573 69.9480522 135.30196573 69.66796875 138.16796875 C70.42147702 142.90997192 72.95480334 144.71654716 76.5 147.75 C77.1386499 148.31904053 77.7772998 148.88808105 78.43530273 149.47436523 C82.98265147 153.49481428 87.67152564 157.3366101 92.41015625 161.12890625 C95.61192929 163.79029565 98.64983425 166.59213665 101.6875 169.4375 C106.43478792 173.88354991 111.3230686 178.05272761 116.3984375 182.125 C121.50781021 186.36134264 126.337456 190.90909941 131.1875 195.4375 C129.53910312 200.6407006 128.13950871 204.66033112 123.25390625 207.6015625 C118.91291898 209.81586427 114.9312053 211.58417186 110 211.75 C108.92685547 211.80607422 108.92685547 211.80607422 107.83203125 211.86328125 C100.83714379 210.73707337 95.4949985 206.37315533 90.375 201.75 C89.1545201 200.67608893 87.93315641 199.60318149 86.7109375 198.53125 C86.11506836 198.0053125 85.51919922 197.479375 84.90527344 196.9375 C80.76399564 193.32123923 76.45761985 189.89941535 72.1875 186.4375 C70.47833039 185.0426908 68.77001989 183.6468283 67.0625 182.25 C65.71091797 181.14591797 65.71091797 181.14591797 64.33203125 180.01953125 C61.92501533 178.04800297 59.52971624 176.06273466 57.13671875 174.07421875 C52.83863448 170.50600696 48.52331974 166.95976909 44.1875 163.4375 C43.57567871 162.94024414 42.96385742 162.44298828 42.33349609 161.93066406 C40.7130414 160.62569208 39.07946002 159.34024915 37.4375 158.0625 C36.53515625 157.35351562 35.6328125 156.64453125 34.703125 155.9140625 C31.88011696 154.25707952 30.40365587 153.94523125 27.1875 154.4375 C26.5275 155.0975 25.8675 155.7575 25.1875 156.4375 C25.19286591 160.95023371 25.68802568 162.8958378 28.77734375 166.24609375 C29.87805521 167.14138135 30.99497898 168.01700344 32.125 168.875 C33.01396973 169.58692505 33.01396973 169.58692505 33.92089844 170.31323242 C35.66397985 171.70473441 37.42393174 173.07212333 39.1875 174.4375 C40.7723823 175.70640106 42.35587002 176.97704737 43.9375 178.25 C44.73542969 178.88292969 45.53335938 179.51585937 46.35546875 180.16796875 C50.01424289 183.10003465 53.6326937 186.0795158 57.25 189.0625 C57.96857178 189.65498535 58.68714355 190.2474707 59.42749023 190.85791016 C62.47014005 193.36788647 65.51163655 195.87925688 68.55273438 198.39111328 C70.8679211 200.30309869 73.1839481 202.21406277 75.5 204.125 C76.21099854 204.71297363 76.92199707 205.30094727 77.65454102 205.90673828 C80.78333369 208.4879261 83.90606201 211.05023278 87.1875 213.4375 C84.05553684 220.24875968 79.09555878 225.82325929 72.15625 228.8125 C67.39867967 230.32283979 64.1164865 229.78390175 59.5 228.0625 C54.66450843 225.41736546 50.60823357 221.77750626 46.4453125 218.203125 C43.18529032 215.40994588 39.82641208 212.75927859 36.4375 210.125 C31.30393255 206.12247292 26.23016179 202.05393383 21.1875 197.9375 C14.92864529 192.83270671 8.63323207 187.7807042 2.25 182.83203125 C0.3929828 181.38005224 -1.44621778 179.90432398 -3.25 178.38671875 C-7.20260555 175.04066351 -7.20260555 175.04066351 -12.25 174.5 C-14.71228361 175.19691317 -14.71228361 175.19691317 -15.8125 176.4375 C-16.36662076 179.25971085 -16.36662076 179.25971085 -15.8125 182.4375 C-13.95867854 184.4914849 -12.35329938 185.97237209 -10.1875 187.625 C-9.60137939 188.09566895 -9.01525879 188.56633789 -8.41137695 189.05126953 C-6.55886268 190.53180386 -4.68760423 191.98572737 -2.8125 193.4375 C-1.67222134 194.33602801 -0.53287273 195.23573779 0.60546875 196.13671875 C2.90353086 197.95134504 5.20949026 199.75534395 7.51953125 201.5546875 C12.13189845 205.16133183 16.66219801 208.86801425 21.19067383 212.57910156 C24.52702175 215.30561453 27.88500455 217.99021497 31.3125 220.6015625 C31.96476563 221.10107422 32.61703125 221.60058594 33.2890625 222.11523438 C34.52772661 223.05952461 35.77230233 223.99612471 37.0234375 224.92382812 C38.46653575 226.02647714 39.83547433 227.22490197 41.1875 228.4375 C41.1875 229.4275 41.1875 230.4175 41.1875 231.4375 C27.79304801 235.90231733 13.17705951 229.66621987 1.1875 223.75 C-12.74020317 216.58460575 -25.07687711 208.01352696 -37.03613281 197.92578125 C-39.49177903 195.86838442 -41.99848591 193.87621128 -44.5 191.875 C-49.18376969 188.04474858 -53.63605221 183.99843936 -58.04760742 179.86108398 C-60.89916641 177.1873769 -63.78737943 174.57188663 -66.73828125 172.0078125 C-70.68333681 168.5734483 -74.50957591 165.02788927 -78.3125 161.4375 C-79.72001243 160.1132391 -81.12756566 158.78902157 -82.53515625 157.46484375 C-83.24559082 156.79565918 -83.95602539 156.12647461 -84.68798828 155.43701172 C-88.69032116 151.6701643 -92.70425255 147.9156813 -96.71606445 144.15893555 C-100.29280671 140.80719538 -103.86178297 137.44755101 -107.421875 134.078125 C-108.18636963 133.3555249 -108.95086426 132.6329248 -109.73852539 131.88842773 C-111.20798385 130.49892254 -112.67600318 129.10789327 -114.14233398 127.71508789 C-114.81079346 127.0833667 -115.47925293 126.45164551 -116.16796875 125.80078125 C-116.7923584 125.20475098 -117.41674805 124.6087207 -118.06005859 123.99462891 C-119.93521166 122.24721405 -119.93521166 122.24721405 -122.86328125 120.48046875 C-123.50652344 119.80628906 -124.14976563 119.13210938 -124.8125 118.4375 C-124.51761275 112.13178412 -122.71705679 106.85745005 -120.41015625 101.02734375 C-120.06053329 100.12191833 -119.71091034 99.21649292 -119.35069275 98.28363037 C-118.20059998 95.31072143 -117.037949 92.3429007 -115.875 89.375 C-115.07007511 87.30283512 -114.26605222 85.23031966 -113.46289062 83.1574707 C-112.20905877 79.92226861 -110.95438362 76.68741472 -109.69619751 73.4539032 C-106.6547463 65.63425749 -103.65801555 57.79848997 -100.68359375 49.953125 C-99.85870937 47.78130601 -99.03375923 45.609512 -98.20874023 43.43774414 C-97.01346983 40.2909292 -95.8195415 37.14364327 -94.63015747 33.99459839 C-93.52920093 31.08173767 -92.42161402 28.17148124 -91.3125 25.26171875 C-90.82305153 23.9588089 -90.82305153 23.9588089 -90.32371521 22.62957764 C-90.02095169 21.83875793 -89.71818817 21.04793823 -89.40625 20.2331543 C-89.14521484 19.5444072 -88.88417969 18.8556601 -88.61523438 18.14604187 C-87.8125 16.4375 -87.8125 16.4375 -85.8125 14.4375 C-83.56030273 13.72314453 -83.56030273 13.72314453 -80.74609375 13.0703125 C-79.71266846 12.82651855 -78.67924316 12.58272461 -77.61450195 12.33154297 C-75.94907349 11.9508667 -75.94907349 11.9508667 -74.25 11.5625 C-71.94005742 11.02624298 -69.63016159 10.48978455 -67.3203125 9.953125 C-66.19399414 9.69337891 -65.06767578 9.43363281 -63.90722656 9.16601562 C-61.40340713 8.57660278 -58.91544623 7.95702338 -56.4296875 7.296875 C-38.09573937 2.55338945 -18.92593305 0.10844172 0 0 Z " fill="#F8C8BF" transform="translate(223.8125,263.5625)"/>
<path d="M0 0 C0.30784587 2.57937691 0.41988332 4.92091776 0.40405273 7.50390625 C0.41091599 8.27817459 0.41777924 9.05244293 0.42485046 9.85017395 C0.44321322 12.42113385 0.43926417 14.99148828 0.43359375 17.5625 C0.43815447 19.35172728 0.44345972 21.14095281 0.44947815 22.93017578 C0.45843037 26.68968797 0.45596627 30.44898806 0.44604492 34.20849609 C0.43461427 39.00562572 0.45466446 43.80201276 0.48396206 48.5990448 C0.50240384 52.30019732 0.50201473 56.00117507 0.49632454 59.70236206 C0.49617196 61.46923862 0.50216311 63.23612752 0.51461601 65.00296021 C0.61418926 81.46351753 -2.7261833 91.44625092 -14.1875 103.5625 C-25.52946348 114.58310785 -42.56330603 123.44196249 -58 127 C-75.51656089 125.8878374 -95.7803385 114.10044529 -108 102 C-118.99693993 89.32839917 -120.58830806 78.44695947 -120.390625 62.3046875 C-120.38315235 60.50294629 -120.37746427 58.70119687 -120.37347412 56.89944458 C-120.35829827 52.18767331 -120.31908719 47.47640565 -120.2746582 42.76483154 C-120.23353054 37.9448528 -120.21542596 33.12479163 -120.1953125 28.3046875 C-120.15258404 18.86957201 -120.08443185 9.4348281 -120 0 C-118.09218763 -0.96932795 -116.18257632 -1.93511578 -114.2722168 -2.89941406 C-113.20899704 -3.4376178 -112.14577728 -3.97582153 -111.05033875 -4.53033447 C-107.33854375 -6.31869229 -103.76101202 -7.57470386 -99.8125 -8.75 C-98.790354 -9.05502441 -98.790354 -9.05502441 -97.74755859 -9.36621094 C-67.66687677 -18.2147357 -27.04200004 -18.02800003 0 0 Z " fill="#010302" transform="translate(316,96)"/>
<path d="M0 0 C1.33526733 0.0151062 1.33526733 0.0151062 2.69750977 0.03051758 C5.29884036 0.06867948 7.89913423 0.12591016 10.5 0.1875 C12.29244141 0.21457031 12.29244141 0.21457031 14.12109375 0.2421875 C33.64424685 1.02403344 53.12904977 5.64487277 72.0625 10.25 C73.10988846 10.4982402 73.10988846 10.4982402 74.17843628 10.75149536 C76.16617468 11.22628665 78.14781097 11.72095341 80.12890625 12.22265625 C81.8315564 12.64623413 81.8315564 12.64623413 83.56860352 13.07836914 C87.50607896 14.56816267 89.70654718 16.63896931 91.63262939 20.39797974 C91.93078552 21.20395599 92.22894165 22.00993225 92.53613281 22.84033203 C92.88514648 23.76701691 93.23416016 24.69370178 93.59375 25.64846802 C93.95984375 26.6539267 94.3259375 27.65938538 94.703125 28.6953125 C95.29625488 30.28241531 95.29625488 30.28241531 95.90136719 31.90158081 C97.19448778 35.36817411 98.47236691 38.84017216 99.75 42.3125 C101.08702407 45.91300359 102.42737592 49.5122578 103.76776123 53.11151123 C104.67573168 55.55082691 105.58233882 57.99065047 106.48760986 60.43096924 C109.39641213 68.26427332 112.35969859 76.07429457 115.375 83.8671875 C115.93824982 85.32646164 115.93824982 85.32646164 116.51287842 86.81521606 C117.93803983 90.50656559 119.36329428 94.19779058 120.80334473 97.88336182 C121.77729205 100.3778002 122.74117387 102.87591611 123.703125 105.375 C123.98961914 106.09968475 124.27611328 106.82436951 124.57128906 107.5710144 C125.9587611 111.20228889 127.02647048 114.28646916 126.5 118.1875 C124.6640625 120.328125 124.6640625 120.328125 122.125 122.4375 C121.21234375 123.21351563 120.2996875 123.98953125 119.359375 124.7890625 C118.41578125 125.58054687 117.4721875 126.37203125 116.5 127.1875 C114.78551545 128.72232299 113.0769709 130.26381219 111.375 131.8125 C107.11835815 135.6448247 102.82388073 139.43127959 98.5 143.1875 C90.45440901 136.60474374 82.85781065 129.24149528 76.125 121.3125 C68.88561715 112.82801445 60.72118648 104.88319257 52.2109375 97.68359375 C50.4414749 96.13632394 48.82025552 94.50274692 47.1875 92.8125 C43.5218597 89.08880658 39.52641692 85.84845524 35.453125 82.58203125 C33.45864793 80.96481637 31.49008913 79.31518281 29.546875 77.63671875 C18.97785003 68.52024302 8.34721176 60.49114973 -6.03515625 60.75 C-15.41167692 61.93395751 -23.35770815 68.31412098 -31.1875 73.2265625 C-42.47839554 79.91055962 -53.23834857 84.50689899 -66.5 83.1875 C-71.96901795 80.84363516 -75.24477786 76.62316362 -77.5 71.1875 C-78.8883651 63.80034983 -76.73526185 56.73308775 -72.80078125 50.4921875 C-59.96570604 32.38691441 -42.48282276 18.24594773 -23.8125 6.4375 C-23.17828125 6.03168701 -22.5440625 5.62587402 -21.890625 5.20776367 C-14.7900154 0.84808737 -8.20413838 -0.1301493 0 0 Z " fill="#F29D8F" transform="translate(286.5,263.8125)"/>
<path d="M0 0 C4.13085747 3.69908734 5.91292648 7.50932944 7.8828125 12.703125 C8.13471344 13.357435 8.38661438 14.011745 8.64614868 14.68588257 C9.48367746 16.86981235 10.30424069 19.05971856 11.125 21.25 C11.72324762 22.81989397 12.32256236 24.38938164 12.92285156 25.95849609 C14.23912207 29.40623028 15.54763475 32.85678079 16.85058594 36.30957031 C19.15140436 42.40627285 21.46969645 48.49627135 23.7890625 54.5859375 C26.26871882 61.09651231 28.74541174 67.60812844 31.20654297 74.12573242 C36.2327866 87.42988731 36.2327866 87.42988731 41.46875 100.65234375 C41.95118164 101.85487793 42.43361328 103.05741211 42.93066406 104.29638672 C43.76988196 106.37393244 44.62436201 108.4454265 45.49902344 110.50830078 C47.67077516 115.90819929 49.3706157 121.36944275 47 127 C42.64620354 131.5938098 36.64334336 133.35470956 30.85546875 135.546875 C29.77171463 135.96294006 28.68796051 136.37900513 27.57136536 136.80767822 C25.28266937 137.68292011 22.99214851 138.55340298 20.69995117 139.41943359 C17.20424029 140.74365854 13.71829939 142.0915422 10.23242188 143.44140625 C8.00315802 144.29051801 5.77335707 145.1382213 3.54296875 145.984375 C1.98789864 146.58895538 1.98789864 146.58895538 0.40141296 147.20574951 C-5.27101741 149.32353424 -9.94281285 150.95043769 -16 150 C-20.88912998 146.53094393 -22.49059167 142.10266113 -24.390625 136.65234375 C-24.69247711 135.82452393 -24.99432922 134.9967041 -25.30532837 134.14379883 C-25.95741234 132.35144389 -26.6032863 130.55681996 -27.24359131 128.76022339 C-28.97542964 123.90285222 -30.75347289 119.06232783 -32.5234375 114.21875 C-33.07192856 112.71150612 -33.07192856 112.71150612 -33.63150024 111.17381287 C-37.22691614 101.31457355 -40.98713086 91.52193986 -44.78677368 81.73989868 C-45.86927719 78.95223738 -46.94813798 76.16319062 -48.02612305 73.3737793 C-50.8291943 66.1270514 -53.63657339 58.88276724 -56.52166748 51.66822815 C-57.26389449 49.81103076 -58.00047191 47.95157856 -58.73681641 46.09204102 C-59.58293747 43.95897449 -60.43963111 41.83005102 -61.31005859 39.70678711 C-63.47164227 34.23470878 -64.90362269 29.88934508 -64 24 C-59.83846642 18.48937661 -54.20509939 16.72295319 -47.890625 14.35546875 C-46.80924255 13.94081863 -45.72786011 13.52616852 -44.6137085 13.09895325 C-42.32998253 12.22763329 -40.04363163 11.36316633 -37.75488281 10.50512695 C-34.26827289 9.19436952 -30.79424357 7.85371133 -27.3203125 6.50976562 C-25.09444465 5.66483443 -22.86790271 4.82167647 -20.640625 3.98046875 C-19.60907288 3.58055222 -18.57752075 3.18063568 -17.51470947 2.76860046 C-5.8251545 -1.55765921 -5.8251545 -1.55765921 0 0 Z " fill="#FDC637" transform="translate(448,238)"/>
<path d="M0 0 C3.10895775 0.78226214 6.02099629 1.89992119 8.98828125 3.10546875 C9.81273239 3.42655106 10.63718353 3.74763336 11.48661804 4.07844543 C14.10105925 5.10067608 16.70659267 6.14373409 19.3125 7.1875 C21.0482924 7.86920422 22.78461735 8.54955406 24.52148438 9.22851562 C28.63273266 10.84029321 32.73269362 12.47846756 36.82818604 14.12982178 C38.80178421 14.9205811 40.78082675 15.69491269 42.76318359 16.46337891 C43.8248877 16.88409668 44.8865918 17.30481445 45.98046875 17.73828125 C47.31501099 18.25902222 47.31501099 18.25902222 48.67651367 18.7902832 C51.51233492 20.26674577 53.12688485 21.38002527 55 24 C55.78525399 30.42135801 54.18134983 35.21732343 51.80078125 41.12890625 C51.45808197 42.0120047 51.11538269 42.89510315 50.76229858 43.80496216 C49.62458495 46.72907887 48.46847319 49.64555913 47.3125 52.5625 C46.5080576 54.62092916 45.70510925 56.67994275 44.90356445 58.73950195 C43.62976876 62.01135897 42.35472217 65.28268517 41.07469177 68.55210876 C37.77237787 76.98883989 34.52513178 85.44581949 31.3046875 93.9140625 C31.06940275 94.53247198 30.834118 95.15088146 30.59170341 95.78803062 C28.50193212 101.28090707 26.41437526 106.7746249 24.32681274 112.26834106 C23.03609291 115.66265998 21.74290314 119.05602882 20.44921875 122.44921875 C19.88453384 123.9372551 19.88453384 123.9372551 19.30844116 125.45535278 C18.58554907 127.34979469 17.85590734 129.24167712 17.11898804 131.13070679 C16.32651837 133.16274623 15.55101767 135.20144104 14.7875061 137.24453735 C14.37398895 138.30957489 13.9604718 139.37461243 13.53442383 140.47192383 C13.16851639 141.43503983 12.80260895 142.39815582 12.4256134 143.39045715 C10.71979505 146.51290682 8.96181862 148.05482759 6 150 C-1.11925264 150.98941459 -6.76454579 148.58961395 -13.32421875 145.984375 C-14.388647 145.57213684 -15.45307526 145.15989868 -16.54975891 144.73516846 C-18.79033732 143.86393117 -21.02835768 142.98608978 -23.26391602 142.10205078 C-26.68059114 140.75272847 -30.10594042 139.42763403 -33.53320312 138.10546875 C-35.71409722 137.25402579 -37.89445497 136.40120749 -40.07421875 135.546875 C-41.09513107 135.15191833 -42.1160434 134.75696167 -43.16789246 134.35003662 C-53.24597233 130.338172 -53.24597233 130.338172 -56 127 C-58.50914383 119.78331747 -55.9036379 113.59198941 -53.171875 106.84765625 C-52.75556824 105.77428009 -52.33926147 104.70090393 -51.91033936 103.59500122 C-50.5414191 100.07688687 -49.14588149 96.56999379 -47.75 93.0625 C-46.79291791 90.61772693 -45.83786443 88.17215879 -44.88476562 85.72583008 C-43.41252152 81.94822261 -41.93864383 78.17130374 -40.45556641 74.39793396 C-37.08687094 65.82352294 -33.79076153 57.22415913 -30.546875 48.6015625 C-30.11751648 47.46164352 -29.68815796 46.32172455 -29.24578857 45.14726257 C-27.59462967 40.76117182 -25.94470395 36.37463325 -24.30065918 31.98587036 C-23.17413853 28.98217806 -22.04088087 25.98110508 -20.90625 22.98046875 C-20.421492 21.67917526 -20.421492 21.67917526 -19.92694092 20.35159302 C-11.67047564 -1.40591186 -11.67047564 -1.40591186 0 0 Z " fill="#73C2FB" transform="translate(73,238)"/>
<path d="M0 0 C8.60974457 3.74012419 16.52088208 3.83379969 25.3125 0.5625 C26.20710938 0.2015625 27.10171875 -0.159375 28.0234375 -0.53125 C37.39631151 -4.29253278 45.59375491 -0.72481328 54.5 2.8125 C71.23435945 10.04018054 79.66729281 18.57448201 86.4375 35.5 C86.4375 49.03 86.4375 62.56 86.4375 76.5 C43.2075 76.5 -0.0225 76.5 -44.5625 76.5 C-44.5625 55.38 -44.5625 34.26 -44.5625 12.5 C-13.94646531 -6.98293117 -13.94646531 -6.98293117 0 0 Z " fill="#FBC437" transform="translate(372.5625,100.5)"/>
<path d="M0 0 C6.96765304 3.97540941 15.48543969 4.25550033 23.14453125 2.203125 C25.17741843 1.51129163 27.2009467 0.79093446 29.2109375 0.03515625 C38.77807843 -3.37776365 48.43360208 -0.08554247 57.40234375 4.0078125 C62.8908607 6.6631096 68.03995793 9.38934344 72.9375 13.0625 C72.9375 34.1825 72.9375 55.3025 72.9375 77.0625 C29.7075 77.0625 -13.5225 77.0625 -58.0625 77.0625 C-58.0625 27.66856061 -58.0625 27.66856061 -48.0625 17.0625 C-38.18510459 7.63750438 -14.04777539 -8.10559524 0 0 Z " fill="#72C0F9" transform="translate(111.0625,99.9375)"/>
<path d="M0 0 C0.30784587 2.57937691 0.41988332 4.92091776 0.40405273 7.50390625 C0.41091599 8.27817459 0.41777924 9.05244293 0.42485046 9.85017395 C0.44321322 12.42113385 0.43926417 14.99148828 0.43359375 17.5625 C0.43815447 19.35172728 0.44345972 21.14095281 0.44947815 22.93017578 C0.45843037 26.68968797 0.45596627 30.44898806 0.44604492 34.20849609 C0.43461427 39.00562572 0.45466446 43.80201276 0.48396206 48.5990448 C0.50240384 52.30019732 0.50201473 56.00117507 0.49632454 59.70236206 C0.49617196 61.46923862 0.50216311 63.23612752 0.51461601 65.00296021 C0.61418926 81.46351753 -2.7261833 91.44625092 -14.1875 103.5625 C-25.52946348 114.58310785 -42.56330603 123.44196249 -58 127 C-75.51656089 125.8878374 -95.7803385 114.10044529 -108 102 C-118.99693993 89.32839917 -120.58830806 78.44695947 -120.390625 62.3046875 C-120.38315235 60.50294629 -120.37746427 58.70119687 -120.37347412 56.89944458 C-120.35829827 52.18767331 -120.31908719 47.47640565 -120.2746582 42.76483154 C-120.23353054 37.9448528 -120.21542596 33.12479163 -120.1953125 28.3046875 C-120.15258404 18.86957201 -120.08443185 9.4348281 -120 0 C-118.09218763 -0.96932795 -116.18257632 -1.93511578 -114.2722168 -2.89941406 C-113.20899704 -3.4376178 -112.14577728 -3.97582153 -111.05033875 -4.53033447 C-107.33854375 -6.31869229 -103.76101202 -7.57470386 -99.8125 -8.75 C-98.790354 -9.05502441 -98.790354 -9.05502441 -97.74755859 -9.36621094 C-67.66687677 -18.2147357 -27.04200004 -18.02800003 0 0 Z M-106 7 C-108.37092425 10.55638637 -108.26262937 12.11140795 -108.29052734 16.33227539 C-108.30328705 17.64116226 -108.31604675 18.95004913 -108.32919312 20.29859924 C-108.33225232 21.73161674 -108.33447925 23.16463623 -108.3359375 24.59765625 C-108.34236791 26.07157012 -108.34909646 27.54548271 -108.35610962 29.01939392 C-108.36809261 32.11378939 -108.37178985 35.2080732 -108.37060547 38.30249023 C-108.37040323 42.24428604 -108.39760055 46.1853531 -108.43214989 50.12697697 C-108.45453674 53.17530008 -108.45843929 56.22345182 -108.45738602 59.27184868 C-108.45972833 60.72334724 -108.46847368 62.17485152 -108.48405075 63.62626839 C-108.60656034 76.23077184 -106.63702145 85.28489855 -97.73046875 94.5546875 C-90.25744619 101.24726564 -81.67625455 105.92970724 -72.5625 110 C-71.91273193 110.29092529 -71.26296387 110.58185059 -70.59350586 110.8815918 C-64.60607956 113.41842843 -59.77037347 114.8652444 -53.546875 112.59375 C-51.9390474 111.91651605 -50.3402163 111.21761239 -48.75 110.5 C-47.91025635 110.13124756 -47.0705127 109.76249512 -46.20532227 109.38256836 C-32.83498204 103.3755291 -18.81302671 95.14052543 -13 81 C-11.87384428 77.43878603 -11.85378384 74.07306129 -11.82299805 70.35131836 C-11.81642685 69.69231033 -11.80985565 69.03330231 -11.80308533 68.35432434 C-11.78344065 66.18282954 -11.77171409 64.01140336 -11.76171875 61.83984375 C-11.75764322 61.09704226 -11.7535677 60.35424076 -11.74936867 59.58893013 C-11.7285529 55.66272386 -11.71422775 51.73655216 -11.70483398 47.81030273 C-11.69373496 43.75243738 -11.65928306 39.69511518 -11.61966228 35.63744259 C-11.59356253 32.51736917 -11.58514849 29.3974271 -11.58155251 26.2772541 C-11.57667497 24.7808824 -11.56502777 23.284517 -11.54651451 21.78825188 C-11.52224595 19.69815172 -11.52306341 17.60948408 -11.5300293 15.51928711 C-11.52122993 13.73535805 -11.52122993 13.73535805 -11.51225281 11.91539001 C-11.72197055 8.92145878 -11.72197055 8.92145878 -13.8372345 7.17262268 C-39.68094544 -6.83949355 -80.20947001 -6.75782452 -106 7 Z " fill="#07A587" transform="translate(316,96)"/>
<path d="M0 0 C1.051875 0.5775 2.10375 1.155 3.1875 1.75 C9.23240177 6.58592142 14.59699334 12.16867191 16 20 C16.54449316 27.49995422 16.61063778 34.88499756 14 42 C13.65839844 42.94617187 13.31679688 43.89234375 12.96484375 44.8671875 C8.66418746 55.9576259 2.51871851 64.92125265 -8.3125 70.375 C-14.17635188 72.73047948 -19.59702005 73.19715612 -25.609375 71.08203125 C-38.25877036 65.15981433 -44.23394648 56.09899737 -49.23828125 43.32421875 C-52.2474192 34.14249013 -53.09549135 21.2181322 -49 12.3125 C-38.7813189 -4.25371839 -16.83886653 -9.308241 0 0 Z " fill="#F7C7BE" transform="translate(404,20)"/>
<path d="M0 0 C6.02787005 4.20260847 10.42416923 9.59841796 12.65234375 16.64453125 C13.94677728 31.93690872 11.53103301 44.8508294 2.65234375 57.64453125 C1.90984375 58.71703125 1.16734375 59.78953125 0.40234375 60.89453125 C-5.58056489 66.87743989 -12.48863171 70.66027288 -20.97265625 71.01953125 C-28.78432517 70.90465377 -34.81336048 67.33349567 -40.53515625 62.20703125 C-45.54927885 56.877619 -48.41921153 50.26914809 -51.34765625 43.64453125 C-51.72148438 42.80277344 -52.0953125 41.96101563 -52.48046875 41.09375 C-55.38004373 32.90440985 -56.09078575 21.89233879 -52.78515625 13.76953125 C-48.92023257 6.46155937 -43.79500649 1.17222347 -36.34765625 -2.35546875 C-35.17203125 -2.93296875 -33.99640625 -3.51046875 -32.78515625 -4.10546875 C-22.00381301 -7.87998157 -9.69224021 -5.59601889 0 0 Z " fill="#F7C7BE" transform="translate(146.34765625,21.35546875)"/>
<path d="M0 0 C0 6.27 0 12.54 0 19 C-1.98 19.99 -3.96 20.98 -6 22 C-8.12025638 23.87761834 -10.08929579 25.73733652 -12.0546875 27.76171875 C-12.87430466 28.58770317 -12.87430466 28.58770317 -13.71047974 29.43037415 C-15.43921202 31.17578276 -17.15716708 32.93136991 -18.875 34.6875 C-20.05138451 35.8789456 -21.2284612 37.06970819 -22.40625 38.25976562 C-25.27889996 41.16533809 -28.14193689 44.08008092 -31 47 C-33.87949554 44.22215522 -35.65628467 41.95617372 -37.3125 38.3125 C-38.49100807 35.93990361 -38.49100807 35.93990361 -40 34 C-43.57144694 32.91040602 -45.6102474 32.3051237 -49 34 C-49.82589117 40.93560883 -47.11165664 45.04006108 -43.5 50.8125 C-42.46528618 52.50439692 -41.43385875 54.19830953 -40.40625 55.89453125 C-39.71499023 57.00598511 -39.71499023 57.00598511 -39.00976562 58.13989258 C-38 60 -38 60 -38 62 C-32.88394346 62.63733924 -32.88394346 62.63733924 -28.21173096 60.91308594 C-26.42334288 59.31352079 -24.79082747 57.63873769 -23.1640625 55.875 C-22.55863617 55.25351074 -21.95320984 54.63202148 -21.32943726 53.99169922 C-19.40808198 52.01254831 -17.51609034 50.00805011 -15.625 48 C-13.70746155 45.99750428 -11.78431859 44.00069943 -9.85629272 42.00830078 C-8.66036538 40.76889211 -7.47151126 39.52261259 -6.29043579 38.26904297 C-4.8980747 36.80903755 -3.45356686 35.39908135 -2 34 C-1.34 34 -0.68 34 0 34 C0.10007178 38.35581651 0.17202448 42.71099593 0.21972656 47.06762695 C0.23964487 48.54463378 0.26679007 50.02156384 0.30175781 51.49829102 C0.51442461 60.72114975 -0.00930358 68.49575203 -4 77 C-4.43828125 78.14597656 -4.8765625 79.29195313 -5.328125 80.47265625 C-7.61506824 83.92978774 -9.9479012 84.86689052 -13.75 86.4375 C-14.94109375 86.95183594 -16.1321875 87.46617187 -17.359375 87.99609375 C-24.45498635 89.95271619 -29.72411917 87.54384502 -35.9375 84.3125 C-36.64044189 83.95236816 -37.34338379 83.59223633 -38.06762695 83.22119141 C-47.04105132 78.52989889 -55.69242308 73.09629237 -59 63 C-59.24050903 60.15885925 -59.24050903 60.15885925 -59.22705078 57.01635742 C-59.22689972 55.83551071 -59.22674866 54.654664 -59.22659302 53.43803406 C-59.21110916 51.54091423 -59.21110916 51.54091423 -59.1953125 49.60546875 C-59.1924826 48.30297684 -59.18965271 47.00048492 -59.18673706 45.65852356 C-59.17912697 42.20777616 -59.15950135 38.75719902 -59.1373291 35.30651855 C-59.11681388 31.780541 -59.10772324 28.25453575 -59.09765625 24.72851562 C-59.07625272 17.81894079 -59.04214874 10.90947859 -59 4 C-57.0796834 3.34814758 -55.15834239 2.69931245 -53.23657227 2.05175781 C-52.16673599 1.69011536 -51.09689972 1.3284729 -49.99464417 0.95587158 C-34.31103173 -4.05023886 -15.96980939 -3.00608177 0 0 Z " fill="#E8E3EC" transform="translate(279,108)"/>
<path d="M0 0 C13.90735914 6.12073545 25.44728568 18.02353173 36.35253906 28.35473633 C37.71298675 29.62226409 39.08970067 30.87239665 40.47558594 32.11206055 C50.63868811 41.2498732 60.25882079 50.946418 69.91894531 60.60864258 C72.48278653 63.17258698 75.05353679 65.72948867 77.62592697 68.28485203 C79.61608612 70.26394055 81.60173233 72.24750857 83.58609772 74.23240471 C84.99240384 75.63695915 86.40324688 77.03696625 87.81414795 78.43690491 C88.65632874 79.28216232 89.49850952 80.12741974 90.36621094 80.99829102 C91.48440216 82.11434471 91.48440216 82.11434471 92.62518311 83.25294495 C94.21484375 85.08984375 94.21484375 85.08984375 94.21484375 87.08984375 C95.20484375 87.41984375 96.19484375 87.74984375 97.21484375 88.08984375 C97.21484375 88.74984375 97.21484375 89.40984375 97.21484375 90.08984375 C97.87484375 90.41984375 98.53484375 90.74984375 99.21484375 91.08984375 C95.91484375 94.05984375 92.61484375 97.02984375 89.21484375 100.08984375 C81.16925276 93.50708749 73.5726544 86.14383903 66.83984375 78.21484375 C59.6004609 69.7303582 51.43603023 61.78553632 42.92578125 54.5859375 C41.15631865 53.03866769 39.53509927 51.40509067 37.90234375 49.71484375 C34.23670345 45.99115033 30.24126067 42.75079899 26.16796875 39.484375 C24.17349168 37.86716012 22.20493288 36.21752656 20.26171875 34.5390625 C9.69269378 25.42258677 -0.93794449 17.39349348 -15.3203125 17.65234375 C-24.69683317 18.83630126 -32.6428644 25.21646473 -40.47265625 30.12890625 C-51.76355179 36.81290337 -62.52350482 41.40924274 -75.78515625 40.08984375 C-81.24271732 37.750889 -84.54754978 33.52540281 -86.78515625 28.08984375 C-87.72503418 22.45057617 -86.60223144 17.42750211 -84.78515625 12.08984375 C-84.12515625 12.83234375 -83.46515625 13.57484375 -82.78515625 14.33984375 C-77.72026508 19.27811264 -72.82395037 21.33866695 -65.72265625 21.65234375 C-50.12009459 21.0771341 -36.87972412 12.8622537 -24.05078125 4.73046875 C-15.73694051 -0.45599291 -9.60773712 -3.1396953 0 0 Z " fill="#EA8E80" transform="translate(295.78515625,306.91015625)"/>
<path d="M0 0 C7.6832619 6.51406988 15.23783085 13.1371361 22.296875 20.328125 C24.09462245 22.09288626 25.9635162 23.73443517 27.875 25.375 C30.8846753 27.96634205 33.71088616 30.67254783 36.5 33.5 C39.88241399 36.9288279 43.38070442 40.12048518 47.03515625 43.25390625 C49.10820324 45.09615675 51.05435802 47.02401662 53 49 C56.06456293 52.10589614 59.23757298 54.98785791 62.546875 57.828125 C65.87111433 60.77124135 69.08308354 63.82861599 72.3125 66.875 C77.54417049 71.7969856 82.86485816 76.46042855 88.48046875 80.94140625 C90.95309451 82.96167567 93.2866063 85.07666939 95.625 87.25 C114.20756405 104.1486115 135.90016827 119.06668282 159 129 C159 129.33 159 129.66 159 130 C130.85810896 132.16846763 104.24995887 112.75795017 83.77636719 95.48828125 C81.32072097 93.43088442 78.81401409 91.43871128 76.3125 89.4375 C71.62873031 85.60724858 67.17644779 81.56093936 62.76489258 77.42358398 C59.91333359 74.7498769 57.02512057 72.13438663 54.07421875 69.5703125 C50.12916319 66.1359483 46.30292409 62.59038927 42.5 59 C41.09248757 57.6757391 39.68493434 56.35152157 38.27734375 55.02734375 C37.56690918 54.35815918 36.85647461 53.68897461 36.12451172 52.99951172 C32.12217884 49.2326643 28.10824745 45.4781813 24.09643555 41.72143555 C20.51969329 38.36969538 16.95071703 35.01005101 13.390625 31.640625 C12.62613037 30.9180249 11.86163574 30.1954248 11.07397461 29.45092773 C9.60451615 28.06142254 8.13649682 26.67039327 6.67016602 25.27758789 C3.85378602 22.61599508 1.12582335 20.09358625 -1.98828125 17.77734375 C-2.65214844 17.19082031 -3.31601563 16.60429687 -4 16 C-4 10.13618747 -2.21106957 5.38347373 0 0 Z " fill="#F2B1A6" transform="translate(103,366)"/>
<path d="M0 0 C4.88179827 0.69739975 8.50793002 1.35655976 13 3 C13.09301622 10.55435107 13.16392438 18.10864214 13.20724869 25.66343689 C13.22805108 29.17215319 13.25623163 32.68047533 13.30175781 36.18896484 C13.35386357 40.23017993 13.37300577 44.27098629 13.390625 48.3125 C13.41127014 49.5617627 13.43191528 50.81102539 13.45318604 52.09814453 C13.45532712 60.46493438 12.55014285 65.99156598 6.8515625 72.42578125 C2.74512911 75.90544323 -0.99953841 78.94852858 -6 81 C-5.40000543 77.46778655 -4.40794223 74.50759853 -2.984375 71.23046875 C-0.20283062 63.7396641 -0.32564928 56.18794196 -0.25 48.3125 C-0.22177453 46.82092995 -0.19183819 45.32939126 -0.16015625 43.83789062 C-0.08708103 40.22540737 -0.03703404 36.61305388 0 33 C-4.7240315 36.92537651 -9.11653259 41.07642121 -13.3828125 45.49609375 C-14.08334747 46.21909164 -14.08334747 46.21909164 -14.79803467 46.95669556 C-16.73657548 48.95805371 -18.67371894 50.9599256 -20.58740234 52.98510742 C-22.0054687 54.48190239 -23.44195089 55.95877376 -24.8828125 57.43359375 C-25.72215332 58.31072021 -26.56149414 59.18784668 -27.42626953 60.09155273 C-30.56033987 62.4154977 -32.18165439 62.51123737 -36 62 C-40.34642875 58.92266209 -42.69806531 53.75353431 -45.25 49.1875 C-45.93835938 48.01477539 -45.93835938 48.01477539 -46.640625 46.81835938 C-49.28835932 42.10208262 -50.88259446 38.55892153 -50 33 C-47 31 -47 31 -43.58984375 30.96484375 C-39.65421977 32.09970812 -38.57005547 33.21130617 -36.54101562 36.70898438 C-36.21810547 37.32064453 -35.89519531 37.93230469 -35.5625 38.5625 C-35.21251953 39.17802734 -34.86253906 39.79355469 -34.50195312 40.42773438 C-33.64630641 41.93976761 -32.82011704 43.4684048 -32 45 C-24.87763504 39.14879282 -18.57981594 32.55233361 -12.20703125 25.90429688 C-11.35238281 25.03224609 -10.49773437 24.16019531 -9.6171875 23.26171875 C-8.46645752 22.07002075 -8.46645752 22.07002075 -7.29248047 20.85424805 C-5 19 -5 19 0 18 C0 12.06 0 6.12 0 0 Z " fill="#DED8E4" transform="translate(279,109)"/>
<path d="M0 0 C9.44276089 -0.42176103 17.4834618 -0.70779847 26 4 C27.051875 4.5775 28.10375 5.155 29.1875 5.75 C35.23240177 10.58592142 40.59699334 16.16867191 42 24 C42.54449316 31.49995422 42.61063778 38.88499756 40 46 C39.65839844 46.94617187 39.31679688 47.89234375 38.96484375 48.8671875 C34.66418746 59.9576259 28.51871851 68.92125265 17.6875 74.375 C12.80299287 76.41301849 8.21567438 76.39199223 3 76 C3.845625 75.071875 4.69125 74.14375 5.5625 73.1875 C17.64459453 58.96824252 22.99846541 43.52303378 22.17919922 25.02636719 C21.43874496 16.65338301 16.31480217 8.77106694 10.078125 3.3203125 C6.79722146 1.23582867 3.83716083 1.3197634 0 1 C0 0.67 0 0.34 0 0 Z " fill="#F2B1A5" transform="translate(378,16)"/>
<path d="M0 0 C12.04116662 -0.64124556 22.7273051 0.46481356 32.31640625 8.359375 C38.15271794 14.0467321 41.21449138 19.92580471 41.38037109 28.1796875 C41.34973898 41.41276139 38.63951699 51.99187709 31 63 C30.2575 64.0725 29.515 65.145 28.75 66.25 C23.50704121 71.49295879 16.9830411 75.81124844 9.421875 76.09765625 C8.54015625 76.08605469 7.6584375 76.07445313 6.75 76.0625 C5.41195312 76.04896484 5.41195312 76.04896484 4.046875 76.03515625 C3.37140625 76.02355469 2.6959375 76.01195313 2 76 C2.86625 75.01 3.7325 74.02 4.625 73 C5.75484541 71.6707701 6.87966542 70.33725585 8 69 C8.51433594 68.38640625 9.02867188 67.7728125 9.55859375 67.140625 C18.66351379 55.69443981 23.52904279 40.63209005 22 26 C20.85324454 19.0334606 18.80637579 13.94128165 14.20703125 8.55859375 C13 7 13 7 13 5 C12.360625 4.690625 11.72125 4.38125 11.0625 4.0625 C9 3 9 3 8 2 C6.65252916 1.76924918 5.29622435 1.58846937 3.9375 1.4375 C2.638125 1.293125 1.33875 1.14875 0 1 C0 0.67 0 0.34 0 0 Z " fill="#F3B2A6" transform="translate(118,16)"/>
<path d="M0 0 C0.66 0 1.32 0 2 0 C2.94806519 1.09489746 2.94806519 1.09489746 3.9152832 2.21191406 C7.84614113 6.28072977 13.14852273 7.71290454 18.35546875 9.609375 C19.45345291 10.02165344 20.55143707 10.43393188 21.68269348 10.85870361 C25.17965311 12.16866247 28.68325149 13.45968246 32.1875 14.75 C34.5571161 15.63283942 36.92626268 16.51694015 39.29492188 17.40234375 C42.62107942 18.64551098 45.94783383 19.88670063 49.27836609 21.11810303 C50.26311417 21.48228333 51.24786224 21.84646362 52.26245117 22.22167969 C53.13117355 22.54191101 53.99989594 22.86214233 54.89494324 23.19207764 C57 24 57 24 59 25 C60.53668865 25.22467831 62.07968054 25.40796805 63.625 25.5625 C64.44226563 25.64628906 65.25953125 25.73007812 66.1015625 25.81640625 C67.04128906 25.90728516 67.04128906 25.90728516 68 26 C65.24281984 36.75718016 65.24281984 36.75718016 61 41 C56.97682512 43.01158744 52.63065633 42.45213662 48.42495728 41.28601074 C45.47912261 40.25119701 42.57760825 39.13686427 39.67578125 37.984375 C38.611353 37.57213684 37.54692474 37.15989868 36.45024109 36.73516846 C34.20966268 35.86393117 31.97164232 34.98608978 29.73608398 34.10205078 C26.31940886 32.75272847 22.89405958 31.42763403 19.46679688 30.10546875 C17.28590278 29.25402579 15.10554503 28.40120749 12.92578125 27.546875 C11.90486893 27.15191833 10.8839566 26.75696167 9.83210754 26.35003662 C5.00624691 24.42896636 0.76576371 22.70775325 -3 19 C-5.11829205 13.98247875 -4.00591911 9.33075168 -2.0625 4.4375 C-1.39436569 2.94948561 -0.71349723 1.46680332 0 0 Z " fill="#4AB0F9" transform="translate(20,346)"/>
<path d="M0 0 C0.66 0 1.32 0 2 0 C4.82214269 5.80174398 6.50471335 10.5171884 5.84765625 16.9921875 C3.89593432 21.61516018 -0.63744427 23.39119689 -5.03051758 25.19824219 C-7.06457227 25.99132568 -9.10286696 26.77359185 -11.14453125 27.546875 C-12.22828537 27.96294006 -13.31203949 28.37900513 -14.42863464 28.80767822 C-16.71733063 29.68292011 -19.00785149 30.55340298 -21.30004883 31.41943359 C-24.79575971 32.74365854 -28.28170061 34.0915422 -31.76757812 35.44140625 C-33.99684198 36.29051801 -36.22664293 37.1382213 -38.45703125 37.984375 C-39.49374466 38.38742859 -40.53045807 38.79048218 -41.59858704 39.20574951 C-47.32137778 41.34233612 -51.8822985 42.63891088 -58 42 C-63.94551445 38.21649081 -65.16350383 31.43286648 -67 25 C-66.09617332 25.06226776 -66.09617332 25.06226776 -65.17408752 25.12579346 C-58.2648388 25.39285217 -53.07254889 24.01009383 -46.71484375 21.421875 C-45.77371231 21.05402893 -44.83258087 20.68618286 -43.8629303 20.30718994 C-40.88129775 19.13718752 -37.90963984 17.94388077 -34.9375 16.75 C-32.94004645 15.96333554 -30.94200354 15.17816584 -28.94335938 14.39453125 C-21.93597051 11.6342727 -14.93475577 8.86523638 -8.01782227 5.88378906 C-7.30239761 5.57572327 -6.58697296 5.26765747 -5.84986877 4.95025635 C-3.43571898 3.71013532 -1.79537891 2.01082438 0 0 Z " fill="#FCAF21" transform="translate(490,346)"/>
<path d="M0 0 C3 0.7265625 3 0.7265625 5 2.7265625 C5.64804922 6.22992426 5.7314635 8.62478627 3.71356201 11.66427612 C1.81524377 13.82300614 -0.16940469 15.83961312 -2.2265625 17.84765625 C-2.96699799 18.59241714 -3.70743347 19.33717804 -4.4703064 20.10450745 C-6.03729963 21.67188157 -7.61303396 23.23055872 -9.19677734 24.78100586 C-11.61849881 27.15768224 -14.0036111 29.56709677 -16.38671875 31.98242188 C-17.91459846 33.50208223 -19.4444817 35.01973142 -20.9765625 36.53515625 C-21.68930328 37.25690536 -22.40204407 37.97865448 -23.13638306 38.72227478 C-28.17202657 43.59401964 -28.17202657 43.59401964 -32.37353516 44.26660156 C-35.89936437 43.54164021 -36.80343803 42.59527244 -39 39.7265625 C-40.87579942 36.85470475 -42.57687746 33.90768727 -44.25 30.9140625 C-44.70890625 30.13224609 -45.1678125 29.35042969 -45.640625 28.54492188 C-48.28835932 23.82864512 -49.88259446 20.28548403 -49 14.7265625 C-46 12.7265625 -46 12.7265625 -42.58984375 12.69140625 C-38.65421977 13.82627062 -37.57005547 14.93786867 -35.54101562 18.43554688 C-35.05665039 19.35303711 -35.05665039 19.35303711 -34.5625 20.2890625 C-34.21251953 20.90458984 -33.86253906 21.52011719 -33.50195312 22.15429688 C-32.64630641 23.66633011 -31.82011704 25.1949673 -31 26.7265625 C-26.79339705 23.28583563 -22.94099804 19.69849637 -19.1875 15.765625 C-18.33929688 14.88261719 -17.49109375 13.99960938 -16.6171875 13.08984375 C-14.86065342 11.2520372 -13.11594878 9.40285679 -11.3828125 7.54296875 C-4.19734697 0.12817985 -4.19734697 0.12817985 0 0 Z " fill="#010403" transform="translate(278,127.2734375)"/>
<path d="M0 0 C4.52362189 0.54241334 6.83856234 2.84382481 10.04296875 5.83984375 C11.28420489 6.95288477 12.52640201 8.06485499 13.76953125 9.17578125 C14.6826709 10.00287598 14.6826709 10.00287598 15.61425781 10.84667969 C17.9859802 12.96566666 20.44256975 14.96855424 22.91796875 16.96484375 C26.93904966 20.23012678 30.90892037 23.54792219 34.85546875 26.90234375 C38.82450418 30.27517964 42.81563896 33.6141102 46.85546875 36.90234375 C50.89533308 40.19060542 54.88545305 43.53062948 58.85546875 46.90234375 C59.94908168 47.82698505 61.04283069 48.75146544 62.13671875 49.67578125 C64.25021826 51.4620703 66.3524357 53.26054514 68.44921875 55.06640625 C69.40828125 55.87851562 70.36734375 56.690625 71.35546875 57.52734375 C72.20109375 58.25179687 73.04671875 58.97625 73.91796875 59.72265625 C76.47727818 61.48628294 78.29581252 62.04174141 81.35546875 62.40234375 C81.35546875 62.73234375 81.35546875 63.06234375 81.35546875 63.40234375 C80.02414843 63.51328711 78.68991195 63.58922819 77.35546875 63.65234375 C76.61296875 63.69875 75.87046875 63.74515625 75.10546875 63.79296875 C68.05005144 62.79077879 62.68359468 58.35662483 57.54296875 53.71484375 C56.32248885 52.64093268 55.10112516 51.56802524 53.87890625 50.49609375 C53.28303711 49.97015625 52.68716797 49.44421875 52.07324219 48.90234375 C47.93196439 45.28608298 43.6255886 41.8642591 39.35546875 38.40234375 C37.64629914 37.00753455 35.93798864 35.61167205 34.23046875 34.21484375 C32.87888672 33.11076172 32.87888672 33.11076172 31.5 31.984375 C29.09298408 30.01284672 26.69768499 28.02757841 24.3046875 26.0390625 C14.55332625 17.94233878 14.55332625 17.94233878 4.60546875 10.08984375 C3.25195312 9.04376953 3.25195312 9.04376953 1.87109375 7.9765625 C-0.70965935 6.36158812 -2.64521603 5.77456093 -5.64453125 5.40234375 C-3.27131862 0.49770431 -3.27131862 0.49770431 0 0 Z " fill="#EFAFA4" transform="translate(256.64453125,411.59765625)"/>
<path d="M0 0 C5.90298653 0.10706747 9.129969 2.17918183 13.3125 6.0625 C14.4508398 7.07272346 15.59017162 8.08183016 16.73046875 9.08984375 C17.28524902 9.58726074 17.8400293 10.08467773 18.41162109 10.59716797 C20.58802344 12.51933334 22.84626427 14.32599811 25.125 16.125 C30.46375437 20.35977931 35.73198949 24.67771929 41 29 C43.75468656 31.25454489 46.5100701 33.50823529 49.265625 35.76171875 C51.04827624 37.22094612 52.82959275 38.68180602 54.609375 40.14453125 C60.04659192 44.60851851 65.51240091 49.03568608 71 53.4375 C71.64743164 53.95803955 72.29486328 54.4785791 72.96191406 55.01489258 C73.57260742 55.50368896 74.18330078 55.99248535 74.8125 56.49609375 C75.35519531 56.93107178 75.89789063 57.3660498 76.45703125 57.81420898 C77.92354519 58.94124351 79.46107356 59.97404904 81 61 C72.22479997 61.73126667 66.91717204 57.90234225 60.375 52.4375 C59.33515766 51.54778562 58.29611506 50.65713583 57.2578125 49.765625 C53.99779032 46.97244588 50.63891208 44.32177859 47.25 41.6875 C42.11643255 37.68497292 37.04266179 33.61643383 32 29.5 C25.74134893 24.39537279 19.44381651 19.34630189 13.06640625 14.390625 C11.2057557 12.94002864 9.35603364 11.4750606 7.52734375 9.984375 C6.83769531 9.43265625 6.14804688 8.8809375 5.4375 8.3125 C4.87933594 7.85488281 4.32117188 7.39726562 3.74609375 6.92578125 C1.42792402 5.69668455 -0.41784407 5.83668416 -3 6 C-2.42655063 3.13275314 -2.1385485 2.1385485 0 0 Z " fill="#EEAEA3" transform="translate(213,432)"/>
<path d="M0 0 C5.96731165 0.2328707 8.56867637 1.8417776 12.75 6 C13.79575124 7.014226 14.84397618 8.02590699 15.89453125 9.03515625 C16.4148291 9.53934082 16.93512695 10.04352539 17.47119141 10.56298828 C19.69228017 12.6507124 22.05300226 14.54034486 24.4375 16.4375 C29.21621628 20.28110057 33.69157687 24.36960164 38.16381836 28.55834961 C42.34450905 32.45178419 46.70248547 36.05882095 51.16015625 39.6328125 C55.10444715 42.92062582 58.84891486 46.40767158 62.5859375 49.92773438 C64.7810891 51.98876823 66.93964773 53.95619753 69.37890625 55.7265625 C69.91386719 56.14679688 70.44882812 56.56703125 71 57 C71 57.66 71 58.32 71 59 C67.890625 59.8359375 67.890625 59.8359375 64 60 C61.53164704 58.26232864 59.79042231 56.77187913 57.75 54.625 C56.61192363 53.50002002 55.47126361 52.37764817 54.328125 51.2578125 C53.76673828 50.6999707 53.20535156 50.14212891 52.62695312 49.56738281 C50.36848268 47.39160546 47.95682223 45.44678019 45.5 43.5 C41.3333379 40.15698041 37.39580188 36.64884863 33.5 33 C28.74606122 28.54776558 23.85774123 24.36662658 18.76171875 20.3046875 C16.72547733 18.60541955 14.80623665 16.89972398 12.89453125 15.0703125 C12.36996338 14.57088135 11.84539551 14.0714502 11.30493164 13.55688477 C9.83399428 12.14322366 8.3774675 10.71461242 6.921875 9.28515625 C3.51860486 6.62350781 1.16880721 5.90738963 -3 5 C-1.125 1.125 -1.125 1.125 0 0 Z " fill="#F1B1A5" transform="translate(299,391)"/>
</svg>
